<svg width="24" height="24" viewBox="0 0 24 24" fill="none" xmlns="http://www.w3.org/2000/svg">
<path fill-rule="evenodd" clip-rule="evenodd" d="M14.15 5H9.85C7.1724 5.00331 5.00275 7.1734 5 9.851V14.151C5.00386 16.8278 7.17318 18.9967 9.85 19H14.15C16.8276 18.9967 18.9972 16.8266 19 14.149V9.849C18.9961 7.17218 16.8268 5.0033 14.15 5ZM14.758 12.993H12.993V14.758C12.976 15.2939 12.5367 15.7195 12.0005 15.7195C11.4643 15.7195 11.025 15.2939 11.008 14.758V12.993H9.243C8.8809 13.0045 8.54128 12.8179 8.35683 12.5061C8.17238 12.1943 8.17238 11.8067 8.35683 11.4949C8.54128 11.1831 8.8809 10.9965 9.243 11.008H11.008V9.243C10.9965 8.8809 11.1831 8.54128 11.4949 8.35683C11.8067 8.17238 12.1943 8.17238 12.5061 8.35683C12.8179 8.54128 13.0045 8.8809 12.993 9.243V11.008H14.758C15.2939 11.025 15.7195 11.4643 15.7195 12.0005C15.7195 12.5367 15.2939 12.976 14.758 12.993Z" fill="#42526E"/>
</svg>
