<svg width="24" height="24" viewBox="0 0 24 24" fill="none" xmlns="http://www.w3.org/2000/svg">
<path fill-rule="evenodd" clip-rule="evenodd" d="M12 5C8.13401 5 5 8.13401 5 12C5 15.866 8.13401 19 12 19C15.866 19 19 15.866 19 12C19 10.1435 18.2625 8.36301 16.9497 7.05025C15.637 5.7375 13.8565 5 12 5ZM14.758 13.023H12.992V14.788C12.992 15.3359 12.5479 15.78 12 15.78C11.4521 15.78 11.008 15.3359 11.008 14.788V13.023H9.242C8.70612 13.006 8.28051 12.5667 8.28051 12.0305C8.28051 11.4943 8.70612 11.055 9.242 11.038H11.008V9.273C11.008 8.72513 11.4521 8.281 12 8.281C12.5479 8.281 12.992 8.72513 12.992 9.273V11.038H14.758C15.2939 11.055 15.7195 11.4943 15.7195 12.0305C15.7195 12.5667 15.2939 13.006 14.758 13.023Z" fill="#42526E"/>
</svg>
