<svg width="24" height="24" viewBox="0 0 24 24" fill="none" xmlns="http://www.w3.org/2000/svg">
<path fill-rule="evenodd" clip-rule="evenodd" d="M15.2509 17.4537C15.4353 17.7617 15.7514 17.9674 16.1077 18.0112C16.464 18.055 16.8205 17.9319 17.0739 17.6777C17.3815 17.3692 17.4918 16.915 17.3599 16.4997L15.4809 10.6597L18.0889 8.20974C18.7699 7.52874 19.3819 5.95074 18.7069 5.27574C18.0319 4.60074 16.5379 5.29374 15.8579 5.97574L13.3299 8.50574L7.49994 6.62474C7.08349 6.49055 6.62697 6.60101 6.31794 6.91074C6.06418 7.16506 5.94159 7.522 5.98552 7.87856C6.02946 8.23513 6.23504 8.55163 6.54294 8.73674L10.2219 10.9467C10.3239 11.007 10.392 11.1112 10.4063 11.2287C10.4206 11.3463 10.3795 11.4638 10.2949 11.5467L7.95294 13.8897L6.65994 13.3137C6.34262 13.1726 5.97114 13.2418 5.72594 13.4877L5.24594 13.9677C5.06335 14.1506 4.97494 14.4072 5.00617 14.6637C5.0374 14.9202 5.18481 15.1481 5.40594 15.2817L7.46894 16.5277L8.71394 18.5937C8.84717 18.8148 9.07474 18.9622 9.33094 18.9935C9.58715 19.0247 9.84348 18.9363 10.0259 18.7537L10.5059 18.2727C10.7512 18.0267 10.8199 17.6552 10.6789 17.3377L10.0999 16.0427L12.4479 13.6997C12.5308 13.6169 12.6472 13.5769 12.7635 13.5914C12.8798 13.6058 12.9829 13.6731 13.0429 13.7737L15.2509 17.4537Z" fill="#42526E"/>
</svg>
