<svg width="24" height="24" viewBox="0 0 24 24" fill="none" xmlns="http://www.w3.org/2000/svg">
<path fill-rule="evenodd" clip-rule="evenodd" d="M9.005 6.209H17.99C18.258 6.209 18.5151 6.31555 18.7045 6.50518C18.894 6.6948 19.0003 6.95196 19 7.22V7.62C19 7.8876 18.8937 8.14425 18.7045 8.33347C18.5152 8.52269 18.2586 8.629 17.991 8.629H9.005C8.44719 8.629 7.995 8.17681 7.995 7.619V7.219C7.995 6.66119 8.44719 6.209 9.005 6.209ZM6.01 10.79H17.99C18.5428 10.7927 18.9918 11.2372 19 11.79V12.2C18.9994 12.7576 18.5476 13.2094 17.99 13.21H6.01C5.45242 13.2094 5.00055 12.7576 5 12.2V11.792C5.00708 11.2385 5.45642 10.7927 6.01 10.79ZM17.99 15.372H12.505C12.2364 15.3709 11.9785 15.4769 11.7882 15.6664C11.598 15.8559 11.491 16.1134 11.491 16.382V16.782C11.491 17.3393 11.9427 17.791 12.5 17.791H17.991C18.5483 17.791 19 17.3393 19 16.782V16.382C19 15.8242 18.5478 15.372 17.99 15.372Z" fill="#42526E"/>
</svg>
