<svg width="24" height="24" viewBox="0 0 24 24" fill="none" xmlns="http://www.w3.org/2000/svg">
<path fill-rule="evenodd" clip-rule="evenodd" d="M17.99 6.209H6.01C5.45719 6.21166 5.00816 6.65624 5 7.209V7.616C4.99974 7.88413 5.106 8.14139 5.29541 8.33118C5.48482 8.52096 5.74187 8.62773 6.01 8.628H17.99C18.5472 8.62745 18.9989 8.17619 19 7.619V7.211C18.9929 6.65746 18.5436 6.21168 17.99 6.209ZM17.99 10.79H6.01C5.45719 10.7927 5.00816 11.2372 5 11.79V12.2C5.00055 12.7576 5.45242 13.2094 6.01 13.21H17.99C18.5476 13.2094 18.9995 12.7576 19 12.2V11.792C18.9929 11.2385 18.5436 10.7927 17.99 10.79ZM9.258 15.372H14.742C15.2948 15.3741 15.7443 15.8182 15.753 16.371V16.778C15.7524 17.336 15.3 17.788 14.742 17.788H9.258C8.70003 17.788 8.24755 17.336 8.247 16.778V16.372C8.25517 15.8189 8.7048 15.3741 9.258 15.372Z" fill="#42526E"/>
</svg>
