<svg width="24" height="24" viewBox="0 0 24 24" fill="none" xmlns="http://www.w3.org/2000/svg">
<path fill-rule="evenodd" clip-rule="evenodd" d="M5.012 6.209H16.991C17.5438 6.21166 17.9928 6.65624 18.001 7.209V7.616C17.9999 8.17319 17.5482 8.62445 16.991 8.625H5.012C4.4552 8.62556 4.00275 8.1758 4 7.619V7.211C4.0071 6.65668 4.45764 6.21059 5.012 6.209ZM5.012 10.79H16.991C17.5438 10.7927 17.9928 11.2372 18.001 11.79V12.2C18.0004 12.7576 17.5486 13.2094 16.991 13.21H5.012C4.74387 13.2103 4.48661 13.104 4.29682 12.9146C4.10704 12.7252 4.00027 12.4681 4 12.2V11.792C4.0071 11.2377 4.45764 10.7916 5.012 10.79ZM16.991 15.372H11.506C10.9536 15.3747 10.5047 15.8186 10.496 16.371V16.778C10.4966 17.3356 10.9484 17.7874 11.506 17.788H16.991C17.5486 17.7874 18.0004 17.3356 18.001 16.778V16.372C17.9928 15.8192 17.5438 15.3747 16.991 15.372Z" fill="#42526E"/>
</svg>
