<svg width="24" height="24" viewBox="0 0 24 24" fill="none" xmlns="http://www.w3.org/2000/svg">
<path fill-rule="evenodd" clip-rule="evenodd" d="M6.01 6.209H17.99C18.258 6.209 18.5151 6.31555 18.7045 6.50518C18.894 6.6948 19.0003 6.95196 19 7.22V7.62C19 7.8876 18.8937 8.14425 18.7045 8.33347C18.5152 8.52269 18.2586 8.629 17.991 8.629H6.009C5.74122 8.629 5.48443 8.52256 5.29518 8.33312C5.10592 8.14368 4.99974 7.88678 5 7.619V7.219C5 6.66119 5.45219 6.209 6.01 6.209ZM8.242 10.79H15.758C16.3158 10.79 16.768 11.2422 16.768 11.8V12.2C16.7683 12.4678 16.6621 12.7247 16.4728 12.9141C16.2836 13.1036 16.0268 13.21 15.759 13.21H8.241C7.97322 13.21 7.71643 13.1036 7.52718 12.9141C7.33792 12.7247 7.23174 12.4678 7.232 12.2V11.8C7.232 11.2422 7.68419 10.79 8.242 10.79ZM10.4 15.372H13.6C14.154 15.3741 14.6039 15.8201 14.611 16.374V16.781C14.6104 17.339 14.158 17.791 13.6 17.791H10.4C10.1315 17.791 9.87407 17.6842 9.68441 17.4942C9.49475 17.3041 9.38847 17.0465 9.389 16.778V16.372C9.39717 15.8189 9.8468 15.3741 10.4 15.372Z" fill="#42526E"/>
</svg>
