<svg width="24" height="24" viewBox="0 0 24 24" fill="none" xmlns="http://www.w3.org/2000/svg">
<path fill-rule="evenodd" clip-rule="evenodd" d="M14.995 6.209H6.011C5.45664 6.21115 5.00655 6.65768 5 7.212V7.619C5.0011 8.17658 5.45342 8.628 6.011 8.628H14.995C15.5526 8.628 16.0049 8.17658 16.006 7.619V7.211C15.9989 6.65707 15.549 6.21114 14.995 6.209ZM17.99 10.79H6.011C5.45687 10.7927 5.00708 11.2389 5 11.793V12.2C5.00055 12.758 5.45303 13.21 6.011 13.21H17.99C18.2579 13.21 18.5148 13.1036 18.7042 12.9142C18.8936 12.7248 19 12.4679 19 12.2V11.792C18.9935 11.2382 18.5438 10.7921 17.99 10.79ZM6.011 15.372H11.5C12.0528 15.3741 12.5023 15.8182 12.511 16.371V16.778C12.5104 17.336 12.058 17.788 11.5 17.788H6.011C5.45303 17.788 5.00055 17.336 5 16.778V16.372C5.00817 15.8189 5.45779 15.3741 6.011 15.372Z" fill="#42526E"/>
</svg>
