<svg width="24" height="24" viewBox="0 0 24 24" fill="none" xmlns="http://www.w3.org/2000/svg">
<path fill-rule="evenodd" clip-rule="evenodd" d="M17.99 6.209H6.01C5.45719 6.21166 5.00816 6.65624 5 7.209V7.616C4.99974 7.88413 5.106 8.14139 5.29541 8.33118C5.48482 8.52096 5.74187 8.62773 6.01 8.628H17.99C18.5472 8.62745 18.9989 8.17619 19 7.619V7.211C18.9929 6.65746 18.5436 6.21168 17.99 6.209ZM17.99 10.79H6.01C5.45719 10.7927 5.00816 11.2372 5 11.79V12.2C5.00055 12.7576 5.45242 13.2094 6.01 13.21H17.99C18.5476 13.2094 18.9995 12.7576 19 12.2V11.792C18.9929 11.2385 18.5436 10.7927 17.99 10.79ZM11.495 15.372H6.01V15.371C5.45219 15.371 5 15.8232 5 16.381V16.781C4.99974 17.0488 5.10592 17.3057 5.29518 17.4951C5.48443 17.6846 5.74122 17.791 6.009 17.791H11.5C12.0557 17.7888 12.505 17.3377 12.505 16.782V16.382C12.505 15.8242 12.0528 15.372 11.495 15.372Z" fill="#42526E"/>
</svg>
