<svg width="24" height="24" viewBox="0 0 24 24" fill="none" xmlns="http://www.w3.org/2000/svg">
<path fill-rule="evenodd" clip-rule="evenodd" d="M5 6.492V17.509C5.00268 18.1789 5.54215 18.7228 6.212 18.731H6.7C7.37411 18.7299 7.92 18.1831 7.92 17.509V6.492C7.92 5.81789 7.37411 5.2711 6.7 5.27H6.211C5.54155 5.27873 5.00267 5.82249 5 6.492ZM10.538 12.917V17.509C10.5407 18.1789 11.0802 18.7228 11.75 18.731H12.242C12.9161 18.7299 13.462 18.1831 13.462 17.509V12.917C13.4593 12.2448 12.9142 11.7011 12.242 11.7H11.749C11.0815 11.7087 10.5434 12.2494 10.538 12.917ZM16.076 17.509V9.428C16.0787 8.75866 16.6177 8.21518 17.287 8.207H17.78C18.4537 8.2081 18.9994 8.75428 19 9.428V17.509C19 18.1831 18.4541 18.7299 17.78 18.731H17.288C16.6182 18.7228 16.0787 18.1789 16.076 17.509Z" fill="#42526E"/>
</svg>
