<svg width="24" height="24" viewBox="0 0 24 24" fill="none" xmlns="http://www.w3.org/2000/svg">
<path fill-rule="evenodd" clip-rule="evenodd" d="M14.4543 6.41552C14.4132 6.49575 14.3718 6.57674 14.33 6.65901C15.2553 7.36293 15.7989 8.45841 15.8 9.62101H8.363C8.36938 8.45981 8.91335 7.36708 9.836 6.66201C9.77415 6.53831 9.71438 6.4179 9.65445 6.29718L9.6543 6.29687L9.65426 6.2968L9.65425 6.29678L9.65422 6.29671L9.65421 6.2967L9.65418 6.29664C9.56982 6.12669 9.48515 5.95614 9.394 5.77501C9.238 5.46501 9.286 5.19401 9.538 5.05901C9.79 4.92401 10.062 5.03701 10.224 5.34801C10.362 5.61301 10.5 5.88001 10.633 6.14601C11.0585 6.04932 11.4908 5.98514 11.926 5.95401C12.3892 5.96827 12.8497 6.03061 13.3 6.14001C13.482 6.17801 13.552 6.16501 13.622 6.00001C13.717 5.77101 13.832 5.55301 13.946 5.34101C13.9895 5.20923 14.0877 5.10265 14.2155 5.04862C14.3433 4.99458 14.4882 4.99837 14.613 5.05901C14.7319 5.1261 14.8177 5.23938 14.8501 5.37198C14.8825 5.50458 14.8585 5.64467 14.784 5.75901C14.6776 5.97914 14.5674 6.19442 14.4543 6.41552ZM10.113 7.95101C10.1135 8.17303 10.291 8.35412 10.513 8.35901V8.35501C10.7314 8.35293 10.9091 8.17838 10.915 7.96001C10.9152 7.74482 10.745 7.56808 10.53 7.56001C10.4225 7.55541 10.3178 7.59428 10.2393 7.66785C10.1608 7.74141 10.1153 7.84348 10.113 7.95101ZM13.775 8.35901C13.5528 8.35465 13.375 8.17325 13.375 7.95101C13.3786 7.73009 13.5606 7.55392 13.7815 7.55751C14.0024 7.5611 14.1786 7.74309 14.175 7.96401C14.1665 8.17983 13.991 8.35146 13.775 8.35501V8.35901ZM5.00081 9.65701V11.957L5.00581 11.958C5.00581 12.2367 5.00392 12.407 5.00238 12.546C4.99958 12.7988 4.99791 12.9484 5.01081 13.458C5.01427 13.7028 5.11732 13.9357 5.29619 14.1028C5.47507 14.27 5.71433 14.3571 5.95881 14.344C6.45954 14.3315 6.85779 13.9199 6.85381 13.419C6.85831 12.4245 6.85703 11.7879 6.85554 11.049C6.85471 10.6385 6.85381 10.1965 6.85381 9.64401C6.85912 9.36701 6.7344 9.10351 6.51681 8.93201C6.24833 8.69189 5.86005 8.64107 5.53881 8.80401C5.19937 8.94859 4.98505 9.28839 5.00081 9.65701ZM18.8585 11.968V13.345C18.8838 13.6904 18.7149 14.0213 18.4203 14.2033C18.1256 14.3853 17.7541 14.3883 17.4566 14.2111C17.159 14.0339 16.9848 13.7058 17.0045 13.36C16.9985 11.847 16.9985 11.201 17.0045 9.68801C16.991 9.35005 17.1626 9.03157 17.4523 8.85701C17.742 8.68245 18.1038 8.67952 18.3963 8.84937C18.6888 9.01921 18.8655 9.33488 18.8575 9.67301C18.8623 10.1961 18.861 10.7178 18.8597 11.241V11.2412C18.8591 11.483 18.8585 11.7252 18.8585 11.968ZM11.161 16.229H12.977C12.9839 16.2438 12.9894 16.2533 12.9932 16.26C12.9977 16.2677 13 16.2717 13 16.276C13 16.845 13 17.415 13.008 17.985C12.983 18.3383 13.1591 18.6757 13.4634 18.857C13.7676 19.0384 14.1481 19.0329 14.447 18.8428C14.7459 18.6527 14.9122 18.3105 14.877 17.958C14.877 17.7597 14.8762 17.5613 14.8754 17.3629C14.8739 16.9659 14.8723 16.5687 14.877 16.172C14.8731 16.0839 14.9053 15.998 14.966 15.934C15.5415 15.5435 15.8618 14.8731 15.804 14.18V10.989V10.714H8.358C8.358 11.2096 8.35683 11.606 8.35576 11.9648C8.35343 12.7526 8.35163 13.3587 8.364 14.434C8.35335 14.9994 8.62766 15.5322 9.094 15.852C9.23139 15.934 9.30925 16.0878 9.294 16.247L9.29377 16.2958C9.29082 16.9336 9.28787 17.5723 9.322 18.209C9.36125 18.5846 9.63703 18.8926 10.006 18.973C10.3801 19.0791 10.7787 18.9187 10.975 18.583C11.0877 18.3406 11.1484 18.0773 11.153 17.81C11.1721 17.4404 11.1682 17.0698 11.1643 16.6961C11.1626 16.541 11.161 16.3853 11.161 16.229Z" fill="#42526E"/>
</svg>
