<svg width="24" height="24" viewBox="0 0 24 24" fill="none" xmlns="http://www.w3.org/2000/svg">
<path fill-rule="evenodd" clip-rule="evenodd" d="M5.05601 10.2231C4.92631 10.9375 5.02316 11.6745 5.33301 12.3311C5.52406 12.7186 5.78668 13.0663 6.10701 13.3561C6.53603 13.7351 7.02814 14.036 7.56101 14.2451C8.31182 14.5385 9.09785 14.7321 9.89901 14.8211C10.5978 14.9058 11.3012 14.9465 12.005 14.9431C13.0661 14.9575 14.1256 14.8569 15.165 14.6431C15.8823 14.4985 16.5721 14.2414 17.209 13.8811C17.6604 13.6216 18.056 13.2753 18.373 12.8621C18.89 12.1297 19.1016 11.2249 18.963 10.3391C18.9454 9.96727 18.7978 9.61338 18.546 9.33915C18.0048 8.98468 17.3292 8.90296 16.719 9.11815C16.3822 9.16342 16.0519 9.24834 15.735 9.37115C15.0606 9.68831 14.6315 10.3679 14.635 11.1131V11.5461C14.6408 11.8189 14.4862 12.0697 14.24 12.1871C13.5211 12.434 12.7609 12.5383 12.002 12.4941C11.2628 12.5319 10.5229 12.4357 9.81801 12.2101C9.54412 12.1017 9.36445 11.8367 9.36501 11.5421V11.1101C9.36489 10.3016 8.85895 9.57941 8.09901 9.30315C7.76871 9.19376 7.42838 9.11738 7.08301 9.07515C6.78296 9.01519 6.47614 8.99635 6.17101 9.01915C5.66503 9.07679 5.24784 9.44218 5.12401 9.93615C5.09901 10.0301 5.07401 10.1261 5.05601 10.2231Z" fill="#42526E"/>
</svg>
