<svg width="24" height="24" viewBox="0 0 24 24" fill="none" xmlns="http://www.w3.org/2000/svg">
<path fill-rule="evenodd" clip-rule="evenodd" d="M6 5C5.44772 5 5 5.44771 5 6V8.712C5 9.26428 5.44772 9.712 6 9.712H18C18.5523 9.712 19 9.26429 19 8.712V6C19 5.44772 18.5523 5 18 5H6ZM5 18C5 18.5523 5.44772 19 6 19H18C18.5523 19 19 18.5523 19 18V11H5V18ZM8.792 13.053C8.792 12.7216 9.06063 12.453 9.392 12.453H14.61C14.9414 12.453 15.21 12.7216 15.21 13.053V13.139C15.21 13.4704 14.9414 13.739 14.61 13.739H9.39C9.05863 13.739 8.79 13.4704 8.79 13.139L8.792 13.053Z" fill="#42526E"/>
</svg>
