<svg width="24" height="24" viewBox="0 0 24 24" fill="none" xmlns="http://www.w3.org/2000/svg">
<path fill-rule="evenodd" clip-rule="evenodd" d="M8.00001 6.466C7.99688 6.8508 8.13983 7.22246 8.40001 7.506L12.652 12L8.40501 16.494C7.86482 17.0802 7.86482 17.9828 8.40501 18.569C8.65692 18.8439 9.01265 19.0004 9.38551 19.0004C9.75836 19.0004 10.1141 18.8439 10.366 18.569L15.593 13.037C16.1357 12.4529 16.1357 11.5491 15.593 10.965L10.366 5.431C10.1141 5.15612 9.75836 4.99962 9.38551 4.99962C9.01265 4.99962 8.65692 5.15612 8.40501 5.431C8.14333 5.71196 7.99851 6.08205 8.00001 6.466Z" fill="#42526E"/>
</svg>
