<svg width="24" height="24" viewBox="0 0 24 24" fill="none" xmlns="http://www.w3.org/2000/svg">
<path fill-rule="evenodd" clip-rule="evenodd" d="M15 17.534C15.0031 17.1492 14.8602 16.7775 14.6 16.494L10.348 12L14.6 7.506C15.1402 6.9198 15.1402 6.01719 14.6 5.431C14.3481 5.15612 13.9923 4.99962 13.6195 4.99962C13.2466 4.99962 12.8909 5.15612 12.639 5.431L7.40699 10.963C6.8643 11.5471 6.8643 12.4509 7.40699 13.035L12.634 18.569C12.8859 18.8439 13.2416 19.0004 13.6145 19.0004C13.9873 19.0004 14.3431 18.8439 14.595 18.569C14.8548 18.2873 14.9978 17.9173 14.995 17.534" fill="#42526E"/>
</svg>
