<svg width="24" height="24" viewBox="0 0 24 24" fill="none" xmlns="http://www.w3.org/2000/svg">
<path fill-rule="evenodd" clip-rule="evenodd" d="M16.534 16C16.1495 16.0033 15.7781 15.8603 15.495 15.6L11 11.348L6.506 15.6C5.91981 16.1402 5.0172 16.1402 4.431 15.6C4.15669 15.3478 4.00058 14.9922 4.00058 14.6195C4.00058 14.2468 4.15669 13.8912 4.431 13.639L9.963 8.407C10.5474 7.86418 11.4516 7.86418 12.036 8.407L17.57 13.634C17.8443 13.8862 18.0004 14.2418 18.0004 14.6145C18.0004 14.9872 17.8443 15.3428 17.57 15.595C17.2878 15.8547 16.9175 15.9977 16.534 15.995" fill="#42526E"/>
</svg>
