<svg width="24" height="24" viewBox="0 0 24 24" fill="none" xmlns="http://www.w3.org/2000/svg">
<path fill-rule="evenodd" clip-rule="evenodd" d="M11.821 7.872L8.74001 10.917L17.934 10.959C18.2181 10.9601 18.4902 11.0741 18.6902 11.2759C18.8901 11.4778 19.0016 11.7509 19 12.035V12.035C18.9987 12.319 18.8845 12.5907 18.6827 12.7905C18.4809 12.9903 18.208 13.1016 17.924 13.1L8.73201 13.059L11.772 16.135C11.9721 16.3365 12.0839 16.6093 12.0828 16.8932C12.0817 17.1772 11.9677 17.4491 11.766 17.649V17.649C11.3456 18.065 10.6676 18.0619 10.251 17.642L5.25101 12.593C4.91055 12.247 4.91503 11.6905 5.26101 11.35L10.314 6.35C10.7341 5.93409 11.4118 5.93723 11.828 6.357V6.357C12.0281 6.5588 12.1397 6.83181 12.1384 7.11595C12.1371 7.40009 12.0229 7.67206 11.821 7.872Z" fill="#42526E"/>
</svg>
