<svg width="24" height="24" viewBox="0 0 24 24" fill="none" xmlns="http://www.w3.org/2000/svg">
<path fill-rule="evenodd" clip-rule="evenodd" d="M16.088 11.8224L13.042 8.74145L13 17.9354C12.9989 18.2194 12.885 18.4913 12.6834 18.6912C12.4818 18.8912 12.2089 19.0028 11.925 19.0014C11.6409 19.0001 11.369 18.886 11.1691 18.6842C10.9692 18.4824 10.8577 18.2095 10.859 17.9254L10.901 8.73345L7.82498 11.7734C7.62332 11.9736 7.35038 12.0855 7.06624 12.0843C6.7821 12.0832 6.51005 11.9692 6.30998 11.7674C5.89396 11.347 5.89709 10.669 6.31698 10.2524L11.366 5.25245C11.712 4.91198 12.2685 4.91646 12.609 5.26245L17.609 10.3154C18.0249 10.7356 18.0218 11.4132 17.602 11.8294C17.1819 12.2454 16.5042 12.2422 16.088 11.8224Z" fill="#42526E"/>
</svg>
