<svg width="24" height="24" viewBox="0 0 24 24" fill="none" xmlns="http://www.w3.org/2000/svg">
<path fill-rule="evenodd" clip-rule="evenodd" d="M7.87199 12.179L10.917 15.26L10.959 6.066C10.9601 5.78187 11.0741 5.50983 11.2759 5.30986C11.4778 5.10988 11.7509 4.99841 12.035 5C12.319 5.00132 12.5907 5.11546 12.7905 5.31728C12.9902 5.5191 13.1016 5.79205 13.1 6.076L13.059 15.268L16.135 12.228C16.3365 12.0279 16.6093 11.9161 16.8932 11.9172C17.1772 11.9183 17.4491 12.0323 17.649 12.234C18.065 12.6545 18.0619 13.3324 17.642 13.749L12.593 18.749C12.2478 19.0903 11.6913 19.0872 11.35 18.742L6.34999 13.689C5.93408 13.2689 5.93722 12.5912 6.35699 12.175C6.55839 11.9746 6.83118 11.8624 7.11532 11.8631C7.39946 11.8639 7.67166 11.9775 7.87199 12.179Z" fill="#42526E"/>
</svg>
