<svg width="24" height="24" viewBox="0 0 24 24" fill="none" xmlns="http://www.w3.org/2000/svg">
<path fill-rule="evenodd" clip-rule="evenodd" d="M12.179 16.128L15.26 13.083L6.06599 13.041C5.78186 13.0399 5.50981 12.9259 5.30984 12.7241C5.10987 12.5222 4.99839 12.2491 4.99999 11.965C5.00131 11.681 5.11545 11.4093 5.31727 11.2095C5.51909 11.0097 5.79203 10.8984 6.07599 10.9L15.268 10.941L12.228 7.865C12.0279 7.6635 11.9161 7.39073 11.9172 7.10675C11.9183 6.82278 12.0323 6.55089 12.234 6.351C12.6544 5.93497 13.3324 5.9381 13.749 6.358L18.749 11.407C19.0903 11.7522 19.0871 12.3087 18.742 12.65L13.689 17.65C13.2689 18.0659 12.5912 18.0628 12.175 17.643C11.9745 17.4416 11.8624 17.1688 11.8631 16.8847C11.8639 16.6005 11.9775 16.3283 12.179 16.128Z" fill="#42526E"/>
</svg>
