<svg width="24" height="24" viewBox="0 0 24 24" fill="none" xmlns="http://www.w3.org/2000/svg">
<path fill-rule="evenodd" clip-rule="evenodd" d="M5.469 8C5.85353 7.99673 6.22494 8.13972 6.508 8.4L11.008 12.647L15.5 8.405C16.0862 7.86481 16.9888 7.86481 17.575 8.405C17.8493 8.65723 18.0054 9.01284 18.0054 9.3855C18.0054 9.75815 17.8493 10.1138 17.575 10.366L12.04 15.593C11.4556 16.1358 10.5514 16.1358 9.967 15.593L4.434 10.366C4.15913 10.1141 4.00262 9.75835 4.00262 9.3855C4.00262 9.01265 4.15913 8.65692 4.434 8.405C4.71497 8.14332 5.08506 7.9985 5.469 8Z" fill="#42526E"/>
</svg>
