<svg width="24" height="24" viewBox="0 0 24 24" fill="none" xmlns="http://www.w3.org/2000/svg">
<path fill-rule="evenodd" clip-rule="evenodd" d="M17.6825 12.5C17.3661 12.1852 16.8549 12.1852 16.5385 12.5L12.6805 16.347C11.2968 17.7288 9.05601 17.7309 7.66968 16.3518C6.28336 14.9726 6.27387 12.7319 7.64847 11.341L11.7785 7.23001C12.6015 6.41319 13.9294 6.41319 14.7525 7.23001C15.5597 8.03362 15.574 9.33594 14.7845 10.157L10.6235 14.3C10.3687 14.5503 9.96029 14.5503 9.70547 14.3C9.45946 14.0504 9.45946 13.6496 9.70547 13.4L13.5645 9.54701C13.8791 9.23098 13.8791 8.72005 13.5645 8.40401C13.4134 8.25046 13.2069 8.1643 12.9915 8.16501C12.7777 8.16404 12.5724 8.24867 12.4215 8.40001L8.56647 12.244C7.99485 12.8156 7.7716 13.6488 7.98083 14.4297C8.19006 15.2105 8.79998 15.8204 9.58083 16.0297C10.3617 16.2389 11.1948 16.0156 11.7665 15.444L15.8975 11.332C16.5955 10.6376 16.9879 9.6936 16.9879 8.70901C16.9879 7.72442 16.5955 6.78044 15.8975 6.08601C14.4434 4.64211 12.0966 4.64211 10.6425 6.08601L6.50847 10.2C5.03387 11.6761 4.59423 13.8954 5.39472 15.8222C6.19521 17.749 8.07803 19.0034 10.1645 19C11.5352 19.0032 12.8509 18.461 13.8215 17.493L17.6815 13.648C17.9986 13.3312 17.9991 12.8174 17.6825 12.5Z" fill="#42526E"/>
</svg>
