<svg width="24" height="24" viewBox="0 0 24 24" fill="none" xmlns="http://www.w3.org/2000/svg">
<path fill-rule="evenodd" clip-rule="evenodd" d="M17.383 6.822H9.45099C8.94153 6.82176 8.46172 7.06148 8.15599 7.469L5.19999 11.417C4.94099 11.7625 4.94099 12.2375 5.19999 12.583L8.16099 16.531C8.46672 16.9385 8.94653 17.1782 9.45599 17.178H17.388C18.279 17.1741 18.9994 16.451 19 15.56V8.44C18.9994 7.54702 18.276 6.8231 17.383 6.822ZM14.811 10.922L13.734 12L14.811 13.077C15.0145 13.267 15.0982 13.553 15.0292 13.8227C14.9602 14.0925 14.7495 14.3032 14.4797 14.3722C14.21 14.4412 13.924 14.3575 13.734 14.154L12.657 13.077L11.58 14.154C11.3876 14.3469 11.1069 14.4226 10.8436 14.3524C10.5804 14.2823 10.3745 14.077 10.3036 13.8139C10.2327 13.5508 10.3076 13.2699 10.5 13.077L11.58 12L10.5 10.923C10.2026 10.6245 10.2035 10.1414 10.502 9.844C10.8005 9.54659 11.2836 9.54749 11.581 9.846L12.657 10.923L13.734 9.846C13.924 9.64248 14.21 9.55883 14.4797 9.62783C14.7495 9.69683 14.9602 9.90748 15.0292 10.1773C15.0982 10.447 15.0145 10.733 14.811 10.923V10.922Z" fill="#42526E"/>
</svg>
