<svg width="24" height="24" viewBox="0 0 24 24" fill="none" xmlns="http://www.w3.org/2000/svg">
<path fill-rule="evenodd" clip-rule="evenodd" d="M12 19C8.13401 19 5 15.866 5 12C5 8.13401 8.13401 5 12 5C15.866 5 19 8.13401 19 12C18.9956 15.8642 15.8642 18.9956 12 19ZM10.284 16.342C12.0144 17.0286 13.9874 16.6205 15.3036 15.3039C16.6198 13.9873 17.0271 12.0142 16.34 10.284C16.2754 10.1313 16.1394 10.0204 15.9767 9.9882C15.814 9.95595 15.646 10.0064 15.528 10.123L10.128 15.523C10.008 15.6401 9.95466 15.8096 9.98604 15.9744C10.0174 16.1391 10.1293 16.2772 10.284 16.342ZM11.161 7.409C9.78592 7.65952 8.59562 8.5134 7.91765 9.73568C7.23969 10.958 7.1455 12.4198 7.661 13.719C7.72545 13.8721 7.86175 13.9832 8.02472 14.0155C8.1877 14.0478 8.35606 13.997 8.474 13.88L13.879 8.48C13.9956 8.36205 14.0461 8.19397 14.0138 8.03131C13.9816 7.86865 13.8707 7.73256 13.718 7.668C12.9067 7.34433 12.021 7.25392 11.161 7.407V7.409Z" fill="#42526E"/>
</svg>
