<svg width="24" height="24" viewBox="0 0 24 24" fill="none" xmlns="http://www.w3.org/2000/svg">
<path fill-rule="evenodd" clip-rule="evenodd" d="M18.737 8.309L13.1 5.277C12.4129 4.90864 11.5871 4.90864 10.9 5.277L5.263 8.309C5.1011 8.39615 5.0001 8.56513 5 8.749V9.349C5 9.62514 5.22386 9.849 5.5 9.849H18.5C18.7761 9.849 19 9.62514 19 9.349V8.749C18.9999 8.56513 18.8989 8.39615 18.737 8.309ZM12 11.076C12.5523 11.076 13 11.5237 13 12.076V14.576C13 15.1283 12.5523 15.576 12 15.576C11.4477 15.576 11 15.1283 11 14.576V12.076C11 11.5237 11.4477 11.076 12 11.076ZM17.564 12.076C17.564 11.5237 17.1163 11.076 16.564 11.076C16.0117 11.076 15.564 11.5237 15.564 12.076V14.576C15.564 15.1283 16.0117 15.576 16.564 15.576C17.1163 15.576 17.564 15.1283 17.564 14.576V12.076ZM7.434 11.076C7.98628 11.076 8.434 11.5237 8.434 12.076V14.576C8.434 15.1283 7.98628 15.576 7.434 15.576C6.88172 15.576 6.434 15.1283 6.434 14.576V12.076C6.434 11.5237 6.88172 11.076 7.434 11.076ZM6.046 16.908C5.46831 16.908 5 17.3763 5 17.954C5 18.5317 5.46831 19 6.046 19H17.954C18.5317 19 19 18.5317 19 17.954C19 17.3763 18.5317 16.908 17.954 16.908H6.046Z" fill="#42526E"/>
</svg>
