<svg width="24" height="24" viewBox="0 0 24 24" fill="none" xmlns="http://www.w3.org/2000/svg">
<path fill-rule="evenodd" clip-rule="evenodd" d="M18.342 9.987C17.981 9.987 18.056 9.995 18.056 9.995C17.856 9.995 17.525 9.828 17.525 9.623V8.17C17.525 7.82134 17.3864 7.48696 17.1398 7.24051C16.8931 6.99406 16.5587 6.85574 16.21 6.856H6.31C5.58586 6.85821 5 7.44586 5 8.17V15.83C5 16.5557 5.5883 17.144 6.314 17.144H16.214C16.5627 17.1443 16.8971 17.0059 17.1438 16.7595C17.3904 16.513 17.529 16.1787 17.529 15.83V14.681C17.529 14.472 17.856 14.309 18.06 14.309L18.346 14.301C18.7304 14.2737 19.0217 13.9428 19 13.558V10.73C19.0118 10.5441 18.9489 10.3612 18.8254 10.2217C18.7019 10.0823 18.528 9.99781 18.342 9.987ZM14.393 14.907H8.578C8.20838 14.9599 7.83544 14.8356 7.57142 14.5716C7.3074 14.3076 7.18312 13.9346 7.236 13.565V10.434C7.18312 10.0644 7.3074 9.69144 7.57142 9.42742C7.83544 9.1634 8.20838 9.03913 8.578 9.092H9.92C10.4857 9.0836 11.0196 9.35299 11.349 9.813C12.494 11.224 13.67 12.613 14.84 14.013C15.288 14.46 15.288 14.907 14.393 14.907Z" fill="#42526E"/>
</svg>
