<svg width="24" height="24" viewBox="0 0 24 24" fill="none" xmlns="http://www.w3.org/2000/svg">
<path fill-rule="evenodd" clip-rule="evenodd" d="M17.339 9.093C17.3351 6.8341 15.5049 5.00385 13.246 5H7.846C7.1916 5.0011 6.66155 5.53161 6.661 6.186V17.814C6.66155 18.4688 7.19221 18.9994 7.847 19H13.247C15.5059 18.9961 17.3361 17.1659 17.34 14.907C17.3373 13.8101 16.8899 12.7612 16.1 12C16.8897 11.2388 17.3368 10.1898 17.339 9.093ZM13.246 10.814H9.034V7.373H13.246C14.18 7.39552 14.9255 8.15918 14.9255 9.0935C14.9255 10.0278 14.18 10.7915 13.246 10.814ZM13.246 16.627H9.034V13.186H13.246C14.18 13.2085 14.9255 13.9722 14.9255 14.9065C14.9255 15.8408 14.18 16.6045 13.246 16.627Z" fill="#42526E"/>
</svg>
