<svg width="24" height="24" viewBox="0 0 24 24" fill="none" xmlns="http://www.w3.org/2000/svg">
<path fill-rule="evenodd" clip-rule="evenodd" d="M17.27 5.305L6.634 5C6.56586 5.00507 6.49864 5.01885 6.434 5.041C6.3931 5.04581 6.35264 5.05384 6.313 5.065C6.21354 5.10555 6.12287 5.16498 6.046 5.24H6.04C5.87824 5.39772 5.78701 5.61407 5.787 5.84V17.491C5.78753 17.7151 5.87707 17.9298 6.03591 18.0879C6.19475 18.246 6.40989 18.3345 6.634 18.334L14.26 19C14.4843 19.0008 14.6997 18.9124 14.8587 18.7543C15.0178 18.5962 15.1075 18.3813 15.108 18.157V9.2C15.1075 8.97572 15.0178 8.76085 14.8587 8.60273C14.6997 8.4446 14.4843 8.3562 14.26 8.357L8.373 8.047C8.00841 8.033 7.72006 7.73336 7.72006 7.3685C7.72006 7.00364 8.00841 6.704 8.373 6.69L15.507 6.99H16.024C16.2449 6.99 16.424 7.16909 16.424 7.39V16.69C16.424 17.1578 16.8032 17.537 17.271 17.537C17.7388 17.537 18.118 17.1578 18.118 16.69V6.152C18.1169 5.68428 17.7377 5.30555 17.27 5.305Z" fill="#42526E"/>
</svg>
