<svg width="24" height="24" viewBox="0 0 24 24" fill="none" xmlns="http://www.w3.org/2000/svg">
<path fill-rule="evenodd" clip-rule="evenodd" d="M7.075 5.822C6.52408 5.82173 5.99568 6.04067 5.6064 6.43052C5.21712 6.82036 4.99894 7.34907 5 7.9V16.433C5.00386 17.4002 5.78876 18.1825 6.756 18.183H17.244C17.71 18.1851 18.1576 18.0011 18.4873 17.6717C18.8171 17.3424 19.0016 16.895 19 16.429V7.9C19.0003 7.34994 18.782 6.8223 18.3933 6.43317C18.0045 6.04403 17.4771 5.82526 16.927 5.825L7.075 5.822ZM17.242 15.29C17.2431 15.6107 17.1163 15.9186 16.8898 16.1457C16.6633 16.3728 16.3557 16.5003 16.035 16.5H7.965C7.64429 16.5003 7.33667 16.3728 7.11017 16.1457C6.88367 15.9186 6.75694 15.6107 6.758 15.29V11.035C6.75774 10.7148 6.88482 10.4076 7.11123 10.1812C7.33765 9.95481 7.64481 9.82773 7.965 9.828H16.035C16.3552 9.82773 16.6624 9.95481 16.8888 10.1812C17.1152 10.4076 17.2423 10.7148 17.242 11.035V15.29Z" fill="#42526E"/>
</svg>
