<svg width="24" height="24" viewBox="0 0 24 24" fill="none" xmlns="http://www.w3.org/2000/svg">
<path fill-rule="evenodd" clip-rule="evenodd" d="M17.37 11.286H15.748C15.6738 10.663 15.4964 10.0567 15.223 9.492C16.3074 8.63245 16.9385 7.32373 16.936 5.94V5.714C16.9216 5.32979 16.606 5.02573 16.2215 5.02573C15.837 5.02573 15.5214 5.32979 15.507 5.714V5.94C15.509 6.84558 15.1165 7.70714 14.432 8.3C14.158 7.9856 13.8448 7.70767 13.5 7.473C13.5011 7.45835 13.5011 7.44365 13.5 7.429C13.5 6.0875 12.4125 5 11.071 5C9.7295 5 8.642 6.0875 8.642 7.429C8.64097 7.44365 8.64097 7.45835 8.642 7.473C8.2989 7.70673 7.98705 7.9833 7.714 8.296C7.03316 7.70281 6.64376 6.843 6.647 5.94V5.714C6.647 5.31967 6.32733 5 5.933 5C5.53867 5 5.219 5.31967 5.219 5.714V5.94C5.21608 7.32359 5.84687 8.63234 6.931 9.492C6.65804 10.0569 6.48063 10.6631 6.406 11.286H4.8C4.40567 11.286 4.086 11.6057 4.086 12C4.086 12.3943 4.40567 12.714 4.8 12.714H6.406C6.48049 13.3366 6.6579 13.9425 6.931 14.507C5.84624 15.3666 5.21533 16.676 5.219 18.06V18.286C5.219 18.6803 5.53867 19 5.933 19C6.32733 19 6.647 18.6803 6.647 18.286V18.06C6.64513 17.1542 7.03798 16.2926 7.723 15.7C8.56033 16.6868 9.783 17.2638 11.077 17.283C12.3712 17.2636 13.5941 16.6866 14.432 15.7C15.1155 16.2923 15.5078 17.1525 15.507 18.057V18.283C15.5214 18.6672 15.837 18.9713 16.2215 18.9713C16.606 18.9713 16.9216 18.6672 16.936 18.283V18.06C16.9393 16.6758 16.308 15.3665 15.223 14.507C15.4965 13.9427 15.674 13.3367 15.748 12.714H17.37C17.7643 12.714 18.084 12.3943 18.084 12C18.084 11.6057 17.7643 11.286 17.37 11.286Z" fill="#42526E"/>
</svg>
