<svg width="24" height="24" viewBox="0 0 24 24" fill="none" xmlns="http://www.w3.org/2000/svg">
<path fill-rule="evenodd" clip-rule="evenodd" d="M6.42001 7.419C6.42001 8.08671 5.87873 8.628 5.21101 8.628C4.5433 8.628 4.00201 8.08671 4.00201 7.419C4.00201 6.75129 4.5433 6.21 5.21101 6.21C5.87873 6.21 6.42001 6.75129 6.42001 7.419ZM9.31501 6.21H16.991C17.5444 6.21269 17.9935 6.65862 18 7.212V7.619C17.9984 8.17541 17.5474 8.6259 16.991 8.627H9.31501C8.75743 8.62645 8.30557 8.17458 8.30501 7.617V7.21C8.31318 6.65724 8.7622 6.21266 9.31501 6.21ZM9.31501 10.791H16.991C17.544 10.7937 17.9929 11.239 18 11.792V12.2C17.9995 12.757 17.548 13.2084 16.991 13.209H9.31501C8.7576 13.209 8.30557 12.7574 8.30501 12.2V11.791C8.31318 11.2382 8.7622 10.7937 9.31501 10.791ZM12.141 15.371H9.31501C8.7622 15.3737 8.31318 15.8182 8.30501 16.371V16.778C8.30612 17.3352 8.75782 17.7864 9.31501 17.787H12.141C12.6986 17.787 13.1509 17.3356 13.152 16.778V16.37C13.1433 15.8172 12.6938 15.3731 12.141 15.371ZM5.21101 13.209C5.87873 13.209 6.42001 12.6677 6.42001 12C6.42001 11.3323 5.87873 10.791 5.21101 10.791C4.5433 10.791 4.00201 11.3323 4.00201 12C4.00201 12.6677 4.5433 13.209 5.21101 13.209ZM6.42001 16.581C6.42001 17.2487 5.87873 17.79 5.21101 17.79C4.5433 17.79 4.00201 17.2487 4.00201 16.581C4.00201 15.9133 4.5433 15.372 5.21101 15.372C5.87873 15.372 6.42001 15.9133 6.42001 16.581Z" fill="#42526E"/>
</svg>
