<svg width="24" height="24" viewBox="0 0 24 24" fill="none" xmlns="http://www.w3.org/2000/svg">
<path fill-rule="evenodd" clip-rule="evenodd" d="M18.9474 13.7213C19.0771 13.007 18.9803 12.2699 18.6704 11.6133C18.4794 11.2262 18.2167 10.8788 17.8964 10.5893C17.4677 10.2098 16.9755 9.90851 16.4424 9.69934C15.6926 9.40625 14.9076 9.21261 14.1074 9.12334C13.4087 9.03872 12.7053 8.99797 12.0014 9.00134C10.9404 8.98699 9.88086 9.08758 8.84145 9.30134C8.12419 9.44596 7.43433 9.70314 6.79745 10.0633C6.34542 10.3224 5.94913 10.6684 5.63145 11.0813C5.11454 11.8138 4.90295 12.7186 5.04145 13.6043C5.05892 13.9763 5.20652 14.3302 5.45845 14.6043C5.99969 14.9588 6.6753 15.0405 7.28545 14.8253C7.62227 14.7801 7.95256 14.6952 8.26945 14.5723C8.94384 14.2552 9.37298 13.5756 9.36945 12.8303V12.4013C9.36369 12.1286 9.51825 11.8778 9.76445 11.7603C10.4834 11.5135 11.2436 11.4092 12.0024 11.4533C12.7416 11.4156 13.4815 11.5118 14.1864 11.7373C14.4603 11.8458 14.64 12.1108 14.6394 12.4053V12.8343C14.639 13.6425 15.1441 14.3647 15.9034 14.6413C16.2349 14.7511 16.5767 14.8272 16.9234 14.8683C17.2235 14.9283 17.5303 14.9471 17.8354 14.9243C18.3414 14.8667 18.7586 14.5013 18.8824 14.0073C18.9074 13.9143 18.9294 13.8183 18.9474 13.7213Z" fill="#42526E"/>
</svg>
