<svg width="24" height="24" viewBox="0 0 24 24" fill="none" xmlns="http://www.w3.org/2000/svg">
<path fill-rule="evenodd" clip-rule="evenodd" d="M17.245 18.563H6.756C6.29067 18.5651 5.8437 18.3816 5.51409 18.0532C5.18449 17.7247 4.99946 17.2783 5 16.813V8.937C5.00054 7.97423 5.77825 7.1925 6.741 7.187H8.141L9.482 5.842C9.75279 5.59084 10.1067 5.44841 10.476 5.442H13.525C13.8948 5.45034 14.2487 5.5945 14.519 5.847L15.863 7.192H17.263C18.2222 7.19967 18.9967 7.97773 19 8.937V16.822C18.9945 17.7871 18.2091 18.5658 17.244 18.563H17.245ZM12 8.937C13.933 8.937 15.5 10.504 15.5 12.437C15.5 14.37 13.933 15.937 12 15.937C10.067 15.937 8.5 14.37 8.5 12.437C8.5 10.504 10.067 8.937 12 8.937ZM12 14.188C12.7083 14.1884 13.3471 13.762 13.6184 13.1078C13.8898 12.4535 13.7402 11.7002 13.2395 11.1992C12.7388 10.6982 11.9856 10.5482 11.3312 10.8192C10.6767 11.0902 10.25 11.7287 10.25 12.437C10.25 13.4037 11.0333 14.1874 12 14.188Z" fill="#42526E"/>
</svg>
