<svg width="24" height="24" viewBox="0 0 24 24" fill="none" xmlns="http://www.w3.org/2000/svg">
<path fill-rule="evenodd" clip-rule="evenodd" d="M17.887 12.515H16.687L14.674 6.376C14.5169 5.91579 14.0831 5.60754 13.5968 5.61049C13.1105 5.61344 12.6806 5.92691 12.529 6.389L10.829 13.205C10.8155 13.2599 10.7675 13.2995 10.711 13.3023C10.6545 13.305 10.6028 13.2704 10.584 13.217L9.134 9.094C9.00708 8.65852 8.62586 8.34561 8.174 8.306C7.72004 8.25477 7.28006 8.48266 7.06 8.883L5.13 12.507C4.8567 13.0162 5.02401 13.65 5.513 13.958C5.77146 14.1232 6.08718 14.173 6.38396 14.0954C6.68073 14.0177 6.9316 13.8197 7.076 13.549L7.915 12L9.689 17.59C9.83343 18.0601 10.2653 18.3828 10.7571 18.3881C11.2489 18.3933 11.6876 18.0799 11.842 17.613L13.772 10.543L14.772 13.857C14.9201 14.3206 15.3554 14.6318 15.842 14.622H17.888C18.2801 14.6462 18.6531 14.4507 18.8565 14.1147C19.0598 13.7786 19.0598 13.3574 18.8565 13.0213C18.6531 12.6853 18.2801 12.4898 17.888 12.514L17.887 12.515Z" fill="#42526E"/>
</svg>
