<svg width="24" height="24" viewBox="0 0 24 24" fill="none" xmlns="http://www.w3.org/2000/svg">
<path fill-rule="evenodd" clip-rule="evenodd" d="M14.149 5H9.849C7.17218 5.00386 5.0033 7.17318 5 9.85V14.15C5.00331 16.8276 7.1734 18.9972 9.851 19H14.151C16.8278 18.9961 18.9967 16.8268 19 14.15V9.85C18.9967 7.1724 16.8266 5.00275 14.149 5ZM16.037 10.534L11.562 15.009C11.3414 15.2298 11.0421 15.3539 10.73 15.3539C10.4179 15.3539 10.1186 15.2298 9.898 15.009L7.963 13.074C7.5402 12.6406 7.5445 11.9478 7.97264 11.5196C8.40077 11.0915 9.09359 11.0872 9.527 11.51L10.627 12.61C10.6552 12.6384 10.6935 12.6544 10.7335 12.6544C10.7735 12.6544 10.8118 12.6384 10.84 12.61L14.473 8.97C14.7512 8.68482 15.1613 8.57129 15.5465 8.67282C15.9318 8.77434 16.2327 9.07522 16.3342 9.46047C16.4357 9.84572 16.3222 10.2558 16.037 10.534Z" fill="#42526E"/>
</svg>
