<svg width="24" height="24" viewBox="0 0 24 24" fill="none" xmlns="http://www.w3.org/2000/svg">
<path fill-rule="evenodd" clip-rule="evenodd" d="M17.238 15.954H9.61199C9.38771 15.9548 9.17231 15.8664 9.01325 15.7083C8.85419 15.5501 8.76452 15.3353 8.76399 15.111V5.843C8.76452 5.61872 8.85419 5.40385 9.01325 5.24572C9.17231 5.0876 9.38771 4.9992 9.61199 5H17.238C17.462 4.9992 17.6771 5.0875 17.836 5.24543C17.9949 5.40336 18.0845 5.61798 18.085 5.842V15.11C18.0847 15.3343 17.9953 15.5493 17.8364 15.7076C17.6776 15.8659 17.4623 15.9545 17.238 15.954ZM14.228 18.154C14.2283 18.3786 14.1391 18.5941 13.9801 18.7529C13.8212 18.9116 13.6056 19.0005 13.381 19H6.59999C6.1325 18.9983 5.75409 18.6195 5.75299 18.152V9.732C5.75299 9.26256 6.13355 8.882 6.60299 8.882C7.07243 8.882 7.45299 9.26256 7.45299 9.732V16.917C7.45299 17.1379 7.63208 17.317 7.85299 17.317H13.381C13.8469 17.3159 14.2258 17.6921 14.228 18.158V18.154ZM12.154 7.528H14.7C15.0079 7.51739 15.2971 7.67561 15.4542 7.94064C15.6113 8.20568 15.6113 8.53531 15.4542 8.80035C15.2971 9.06539 15.0079 9.22361 14.7 9.213H12.154C11.8461 9.22361 11.5569 9.06539 11.3998 8.80035C11.2427 8.53531 11.2427 8.20568 11.3998 7.94064C11.5569 7.67561 11.8461 7.51739 12.154 7.528ZM12.154 10.686H14.7C15.0079 10.6754 15.2971 10.8336 15.4542 11.0986C15.6113 11.3637 15.6113 11.6933 15.4542 11.9584C15.2971 12.2234 15.0079 12.3816 14.7 12.371H12.154C11.8461 12.3816 11.5569 12.2234 11.3998 11.9584C11.2427 11.6933 11.2427 11.3637 11.3998 11.0986C11.5569 10.8336 11.8461 10.6754 12.154 10.686Z" fill="#42526E"/>
</svg>
