<svg width="24" height="24" viewBox="0 0 24 24" fill="none" xmlns="http://www.w3.org/2000/svg">
<path fill-rule="evenodd" clip-rule="evenodd" d="M15.0259 6.53391L12.001 9.55665L8.97601 6.53152C8.5422 6.0797 7.89797 5.89786 7.29196 6.05618C6.68595 6.2145 6.21296 6.68821 6.05554 7.29448C5.89812 7.90075 6.0809 8.54476 6.53332 8.97793L9.55709 12.0031L6.53571 15.0246C5.87851 15.7037 5.8872 16.7843 6.55524 17.4527C7.22327 18.1211 8.30385 18.1303 8.98319 17.4734L12.001 14.4459L15.0236 17.4698C15.4577 17.9207 16.1015 18.102 16.7071 17.9438C17.3127 17.7856 17.7856 17.3126 17.9438 16.707C18.102 16.1014 17.9207 15.4575 17.4698 15.0234L14.452 12.0043L17.4734 8.98271C18.1306 8.30365 18.1219 7.22302 17.4539 6.55462C16.7859 5.88622 15.7053 5.877 15.0259 6.53391Z" fill="#42526E"/>
</svg>
