<svg width="24" height="24" viewBox="0 0 24 24" fill="none" xmlns="http://www.w3.org/2000/svg">
<path fill-rule="evenodd" clip-rule="evenodd" d="M17.4 10.775C17.1235 8.26843 15.0293 6.35663 12.508 6.30901C10.6069 6.32991 8.88716 7.44191 8.088 9.16701C6.05539 9.7885 4.76738 11.7854 5.03941 13.8934C5.31144 16.0014 7.0642 17.6059 9.188 17.691H15.314C16.3094 17.6744 17.2573 17.2627 17.9488 16.5464C18.6403 15.8302 19.0185 14.8684 19 13.873C18.9964 12.643 18.4009 11.49 17.4 10.775ZM14.155 11.475L13.078 12.552L14.154 13.629C14.3464 13.8212 14.4216 14.1015 14.3514 14.3642C14.2811 14.6269 14.076 14.8322 13.8134 14.9027C13.5507 14.9732 13.2704 14.8982 13.078 14.706L12 13.629L10.925 14.706C10.7326 14.8982 10.4523 14.9732 10.1896 14.9027C9.92699 14.8322 9.72191 14.6269 9.65164 14.3642C9.58138 14.1015 9.65661 13.8212 9.849 13.629L10.925 12.552L9.849 11.475C9.57034 11.175 9.57908 10.7082 9.86876 10.4188C10.1584 10.1294 10.6252 10.1211 10.925 10.4L12 11.475L13.078 10.4C13.3778 10.1211 13.8445 10.1294 14.1342 10.4188C14.4239 10.7082 14.4327 11.175 14.154 11.475H14.155Z" fill="#42526E"/>
</svg>
