<svg width="24" height="24" viewBox="0 0 24 24" fill="none" xmlns="http://www.w3.org/2000/svg">
<path fill-rule="evenodd" clip-rule="evenodd" d="M17.4 10.775C17.123 8.2679 15.0279 6.35608 12.506 6.30901C10.6052 6.33005 8.88581 7.44206 8.087 9.16701C6.05188 9.78625 4.76121 11.7843 5.03346 13.894C5.30572 16.0038 7.06135 17.6087 9.187 17.691H15.312C16.3077 17.675 17.2562 17.2634 17.9481 16.5471C18.64 15.8308 19.0185 14.8687 19 13.873C18.9961 12.6431 18.4006 11.4902 17.4 10.775ZM14.751 11.375L11.738 14.651C11.6069 14.8153 11.4119 14.9158 11.202 14.927H11.161C10.9648 14.9269 10.7767 14.8488 10.638 14.71L9.159 13.232C8.87276 12.9427 8.8739 12.4765 9.16155 12.1886C9.44921 11.9006 9.91539 11.899 10.205 12.185L11.1 13.085L13.594 10.453C13.7574 10.241 14.0225 10.1338 14.2874 10.1726C14.5522 10.2114 14.7754 10.3902 14.8711 10.6401C14.9668 10.8901 14.9201 11.1722 14.749 11.378L14.751 11.375Z" fill="#42526E"/>
</svg>
