<svg width="24" height="24" viewBox="0 0 24 24" fill="none" xmlns="http://www.w3.org/2000/svg">
<path fill-rule="evenodd" clip-rule="evenodd" d="M17.4 10.775C17.123 8.2679 15.0279 6.35608 12.506 6.30901C10.6051 6.32981 8.88563 7.4419 8.087 9.16701C6.05189 9.78625 4.76121 11.7843 5.03347 13.894C5.30572 16.0038 7.06135 17.6087 9.187 17.691H15.312C16.3078 17.675 17.2562 17.2634 17.9481 16.5471C18.64 15.8308 19.0185 14.8687 19 13.873C18.9961 12.6431 18.4006 11.4902 17.4 10.775ZM14.674 13L12.3 15.377C12.1342 15.5423 11.8659 15.5423 11.7 15.377L9.326 13C9.20418 12.8786 9.16756 12.6957 9.23326 12.5367C9.29895 12.3777 9.45399 12.274 9.626 12.274H11.15V10.26C11.15 9.79056 11.5306 9.41001 12 9.41001C12.4694 9.41001 12.85 9.79056 12.85 10.26V12.276H14.373C14.5439 12.2774 14.6974 12.3807 14.763 12.5385C14.8285 12.6962 14.7935 12.8779 14.674 13Z" fill="#42526E"/>
</svg>
