<svg width="24" height="24" viewBox="0 0 24 24" fill="none" xmlns="http://www.w3.org/2000/svg">
<path fill-rule="evenodd" clip-rule="evenodd" d="M17.4 10.775C17.123 8.2679 15.0279 6.35608 12.506 6.30901C10.6052 6.33005 8.88581 7.44206 8.087 9.16701C6.05188 9.78625 4.76121 11.7843 5.03346 13.894C5.30572 16.0038 7.06135 17.6087 9.187 17.691H15.312C16.3076 17.6744 17.2557 17.2627 17.9475 16.5466C18.6393 15.8304 19.0179 14.8686 19 13.873C18.9956 12.6432 18.4002 11.4905 17.4 10.775ZM14.283 13.217H12.761V14.74C12.761 15.1603 12.4203 15.501 12 15.501C11.5797 15.501 11.239 15.1603 11.239 14.74V13.217H9.717C9.30717 13.2022 8.9826 12.8656 8.9826 12.4555C8.9826 12.0454 9.30717 11.7089 9.717 11.694H11.239V10.171C11.239 9.75072 11.5797 9.41001 12 9.41001C12.4203 9.41001 12.761 9.75072 12.761 10.171V11.694H14.283C14.6928 11.7089 15.0174 12.0454 15.0174 12.4555C15.0174 12.8656 14.6928 13.2022 14.283 13.217Z" fill="#42526E"/>
</svg>
