<svg width="24" height="24" viewBox="0 0 24 24" fill="none" xmlns="http://www.w3.org/2000/svg">
<path fill-rule="evenodd" clip-rule="evenodd" d="M17.4 10.775C17.123 8.2679 15.0279 6.35608 12.506 6.30901C10.6052 6.33005 8.88581 7.44206 8.087 9.16701C6.05188 9.78625 4.76121 11.7843 5.03346 13.894C5.30572 16.0038 7.06135 17.6087 9.187 17.691H15.312C16.3076 17.6744 17.2557 17.2627 17.9475 16.5466C18.6393 15.8304 19.0179 14.8686 19 13.873C18.9956 12.6432 18.4002 11.4905 17.4 10.775ZM9.326 11.909L11.7 9.53401C11.7795 9.45438 11.8875 9.40963 12 9.40963C12.1125 9.40963 12.2205 9.45438 12.3 9.53401L14.674 11.909C14.7948 12.0308 14.8308 12.2132 14.7653 12.3717C14.6998 12.5302 14.5455 12.634 14.374 12.635H12.85V14.651C12.85 15.1204 12.4694 15.501 12 15.501C11.5306 15.501 11.15 15.1204 11.15 14.651V12.635H9.627C9.45528 12.6344 9.3007 12.5308 9.23493 12.3722C9.16916 12.2135 9.20507 12.0309 9.326 11.909Z" fill="#42526E"/>
</svg>
