<svg width="24" height="24" viewBox="0 0 24 24" fill="none" xmlns="http://www.w3.org/2000/svg">
<path fill-rule="evenodd" clip-rule="evenodd" d="M5.3765 6.6145C5.9031 6.08817 6.75667 6.0884 7.283 6.615L11.6 10.936C11.8738 11.2096 12.0277 11.5809 12.0277 11.968C12.0277 12.3551 11.8738 12.7264 11.6 13L7.283 17.307C6.7564 17.8336 5.9026 17.8336 5.376 17.307C4.8494 16.7804 4.8494 15.9266 5.376 15.4L8.563 12.217C8.63072 12.1496 8.6688 12.058 8.6688 11.9625C8.6688 11.867 8.63072 11.7754 8.563 11.708L5.376 8.521C4.84967 7.9944 4.8499 7.14083 5.3765 6.6145ZM13.992 15.026H17.633L17.635 15.022C18.3806 15.022 18.985 15.6264 18.985 16.372C18.985 17.1176 18.3806 17.722 17.635 17.722H13.921C13.5241 17.7217 13.1474 17.5466 12.8914 17.2433C12.6353 16.94 12.5258 16.5394 12.592 16.148C12.7262 15.4848 13.3155 15.0126 13.992 15.026Z" fill="#42526E"/>
</svg>
