<svg width="24" height="24" viewBox="0 0 24 24" fill="none" xmlns="http://www.w3.org/2000/svg">
<path fill-rule="evenodd" clip-rule="evenodd" d="M9.067 10.187L8.5 10.748L7.778 11.453C7.61233 11.576 7.51465 11.7702 7.51465 11.9765C7.51465 12.1828 7.61233 12.377 7.778 12.5L8.486 13.238L10.1 14.881C10.4507 15.2342 10.4487 15.8048 10.0955 16.1555C9.74231 16.5062 9.1717 16.5042 8.821 16.151L5.214 12.5C4.92729 12.2095 4.92952 11.7418 5.219 11.454L8.876 7.842C9.10411 7.61443 9.43631 7.52583 9.74746 7.6096C10.0586 7.69336 10.3014 7.93675 10.3845 8.2481C10.4675 8.55944 10.3781 8.89143 10.15 9.119L9.067 10.187ZM15.179 7.848L18.786 11.5C19.0727 11.7905 19.0705 12.2582 18.781 12.546L15.124 16.158C14.7714 16.5098 14.2003 16.5091 13.8485 16.1565C13.4967 15.8039 13.4974 15.2328 13.85 14.881L14.944 13.812L15.511 13.252L16.225 12.546C16.3907 12.423 16.4883 12.2288 16.4883 12.0225C16.4883 11.8162 16.3907 11.622 16.225 11.499C16.225 11.499 15.531 10.775 15.517 10.762L13.9 9.118C13.5493 8.76482 13.5513 8.1942 13.9045 7.8435C14.2577 7.4928 14.8283 7.49482 15.179 7.848Z" fill="#42526E"/>
</svg>
