<svg width="24" height="24" viewBox="0 0 24 24" fill="none" xmlns="http://www.w3.org/2000/svg">
<path fill-rule="evenodd" clip-rule="evenodd" d="M12 5C8.48599 5 5.83499 6.262 5.83499 7.936C5.83499 9.61 8.48599 10.871 12 10.871C15.514 10.871 18.165 9.609 18.165 7.936C18.165 6.263 15.514 5 12 5ZM12 12.734C9.83961 12.8246 7.69898 12.2899 5.83499 11.194V12C5.83499 13.674 8.48599 14.936 12 14.936C15.514 14.936 18.165 13.674 18.165 12V11.194C16.301 12.2899 14.1604 12.8246 12 12.734ZM5.83499 15.26C7.69898 16.3559 9.83961 16.8906 12 16.8C14.1606 16.89 16.3012 16.3546 18.165 15.258V16.064C18.165 17.738 15.514 19 12 19C8.48599 19 5.83499 17.738 5.83499 16.066V15.26Z" fill="#42526E"/>
</svg>
