<svg width="24" height="24" viewBox="0 0 24 24" fill="none" xmlns="http://www.w3.org/2000/svg">
<path fill-rule="evenodd" clip-rule="evenodd" d="M12 20C15.0174 20 17.4642 17.5554 17.467 14.538C17.469 11.589 14.315 8.2 12.8 6.387C12.6083 6.13959 12.313 5.99479 12 5.99479C11.687 5.99479 11.3917 6.13959 11.2 6.387C9.688 8.2 6.531 11.5 6.531 14.538C6.53431 17.5559 8.98206 20.0006 12 20ZM13.546 17.56C12.1999 18.378 10.4693 18.1705 9.35466 17.0576C8.24007 15.9446 8.03003 14.2143 8.846 12.867C8.96492 12.6918 9.15825 12.5816 9.36956 12.5685C9.58087 12.5554 9.78634 12.6409 9.926 12.8L13.611 16.479C13.7717 16.6176 13.8587 16.8232 13.8463 17.035C13.834 17.2469 13.7237 17.441 13.548 17.56H13.546Z" fill="#42526E"/>
</svg>
