<svg width="24" height="24" viewBox="0 0 24 24" fill="none" xmlns="http://www.w3.org/2000/svg">
<path fill-rule="evenodd" clip-rule="evenodd" d="M12 5C8.13401 5 5 8.13401 5 12C5 15.866 8.13401 19 12 19C15.866 19 19 15.866 19 12C19 10.1435 18.2625 8.36301 16.9497 7.05025C15.637 5.7375 13.8565 5 12 5ZM15.2 9.682L14.007 13.224C13.8819 13.5917 13.5911 13.8792 13.222 14L9.655 15.18C9.41081 15.2601 9.14235 15.1954 8.96138 15.013C8.78041 14.8305 8.71795 14.5615 8.8 14.318L9.993 10.777C10.1184 10.4092 10.409 10.1216 10.778 10L14.345 8.821C14.5892 8.74094 14.8576 8.80559 15.0386 8.98804C15.2196 9.17049 15.282 9.43947 15.2 9.683V9.682Z" fill="#42526E"/>
</svg>
