<svg width="24" height="24" viewBox="0 0 24 24" fill="none" xmlns="http://www.w3.org/2000/svg">
<path fill-rule="evenodd" clip-rule="evenodd" d="M4.99998 8.672V9.653C5.00053 9.94863 5.24034 10.188 5.53598 10.188H9.78898C9.89506 10.188 9.99681 10.1459 10.0718 10.0708C10.1468 9.99583 10.189 9.89409 10.189 9.788V5.536C10.1884 5.23981 9.94816 5 9.65198 5H8.66398C8.52182 5 8.38549 5.05647 8.28497 5.15699C8.18445 5.25751 8.12798 5.39384 8.12798 5.536V7.949C8.12798 8.05172 8.0447 8.135 7.94198 8.135H5.53598C5.23979 8.13555 4.99998 8.37581 4.99998 8.672ZM15.328 5H14.347C14.2048 5.00026 14.0686 5.05699 13.9683 5.1577C13.8679 5.2584 13.8117 5.39484 13.812 5.537V9.789C13.812 10.0099 13.9911 10.189 14.212 10.189H18.464C18.6063 10.189 18.7428 10.1324 18.8433 10.0317C18.9439 9.93092 19.0002 9.79433 19 9.652V8.664C19 8.52184 18.9435 8.38551 18.843 8.28499C18.7425 8.18447 18.6061 8.128 18.464 8.128H16.051C15.9483 8.128 15.865 8.04472 15.865 7.942V5.537C15.865 5.24042 15.6246 5 15.328 5ZM9.65298 19H8.67198C8.3754 19 8.13498 18.7596 8.13498 18.463V16.063C8.13498 15.9603 8.0517 15.877 7.94898 15.877H5.53598C5.39295 15.877 5.25585 15.8198 5.15519 15.7182C5.05453 15.6166 4.99864 15.479 4.99998 15.336V14.348C4.99971 14.2057 5.05607 14.0691 5.15661 13.9683C5.25716 13.8676 5.39365 13.811 5.53598 13.811H9.78798C9.89406 13.811 9.99581 13.8531 10.0708 13.9282C10.1458 14.0032 10.188 14.1049 10.188 14.211V18.462C10.1885 18.6043 10.1324 18.741 10.032 18.8419C9.93169 18.9429 9.79531 18.9997 9.65298 19ZM19 15.328V14.347C18.9997 14.2048 18.943 14.0686 18.8423 13.9683C18.7416 13.868 18.6051 13.8117 18.463 13.812H14.211C13.9901 13.812 13.811 13.9911 13.811 14.212V18.464C13.8115 18.7602 14.0518 19 14.348 19H15.336C15.632 19 15.872 18.76 15.872 18.464V16.051C15.872 15.9483 15.9553 15.865 16.058 15.865H18.464C18.7602 15.8644 19 15.6242 19 15.328Z" fill="#42526E"/>
</svg>
