<svg width="24" height="24" viewBox="0 0 24 24" fill="none" xmlns="http://www.w3.org/2000/svg">
<path fill-rule="evenodd" clip-rule="evenodd" d="M16.563 5.339L18.732 7.508C19.0888 7.86427 19.0902 8.44208 18.735 8.8L13.957 13.629L10.922 14.29C10.6174 14.3558 10.3002 14.2625 10.0799 14.0421C9.85955 13.8218 9.76618 13.5046 9.832 13.2L10.493 10.169L15.263 5.339C15.435 5.16581 15.6689 5.06841 15.913 5.06841C16.1571 5.06841 16.391 5.16581 16.563 5.339ZM16.582 13.81H16.99C17.5476 13.8106 17.9994 14.2624 18 14.82V17.92C17.9969 18.1681 17.9018 18.4062 17.733 18.588C17.727 18.5945 17.7225 18.6023 17.718 18.61C17.7135 18.6178 17.709 18.6255 17.703 18.632C17.6966 18.639 17.6882 18.6436 17.6797 18.6483C17.6724 18.6524 17.665 18.6564 17.659 18.662C17.4768 18.8307 17.2383 18.9255 16.99 18.928H6.009C5.75844 18.9256 5.51791 18.8293 5.335 18.658C5.32979 18.6537 5.32421 18.6506 5.31849 18.6475C5.31104 18.6435 5.30336 18.6394 5.296 18.632C5.28919 18.6252 5.28457 18.617 5.27999 18.6089C5.27583 18.6015 5.27171 18.5942 5.266 18.588C5.09735 18.4058 5.00253 18.1673 5 17.919V6.932C5.00612 6.87933 5.01614 6.82719 5.03 6.776C5.1056 6.29394 5.51808 5.93682 6.006 5.931H9.106C9.65926 5.93259 10.1089 6.37779 10.116 6.931V7.339C10.1154 7.89658 9.66358 8.34845 9.106 8.349H7.419V16.51H15.582V14.821C15.5841 14.2678 16.0289 13.8182 16.582 13.81Z" fill="#42526E"/>
</svg>
