<svg width="24" height="24" viewBox="0 0 24 24" fill="none" xmlns="http://www.w3.org/2000/svg">
<path fill-rule="evenodd" clip-rule="evenodd" d="M17.334 5H6.83401C6.35077 5 5.95901 5.39175 5.95901 5.875V18.125C5.95901 18.6082 6.35077 19 6.83401 19H17.334C17.8173 19 18.209 18.6082 18.209 18.125V5.875C18.209 5.39175 17.8173 5 17.334 5ZM13.834 12.875H10.334C9.85077 12.875 9.45901 12.4832 9.45901 12C9.45901 11.5168 9.85077 11.125 10.334 11.125H13.834C14.3173 11.125 14.709 11.5168 14.709 12C14.709 12.4832 14.3173 12.875 13.834 12.875V12.875ZM13.834 9.375H10.334C9.85077 9.375 9.45901 8.98325 9.45901 8.5C9.45901 8.01675 9.85077 7.625 10.334 7.625H13.834C14.3173 7.625 14.709 8.01675 14.709 8.5C14.709 8.98325 14.3173 9.375 13.834 9.375V9.375ZM13.834 16.375H10.334C9.85077 16.375 9.45901 15.9832 9.45901 15.5C9.45901 15.0168 9.85077 14.625 10.334 14.625H13.834C14.3173 14.625 14.709 15.0168 14.709 15.5C14.709 15.9832 14.3173 16.375 13.834 16.375V16.375Z" fill="#42526E"/>
</svg>
