<svg width="24" height="24" viewBox="0 0 24 24" fill="none" xmlns="http://www.w3.org/2000/svg">
<path fill-rule="evenodd" clip-rule="evenodd" d="M17.265 11.987C17.2522 14.3254 15.5957 16.3318 13.302 16.787C13.061 16.8239 12.8163 16.7501 12.636 16.586C12.4557 16.422 12.359 16.1854 12.373 15.942L12.393 8.053C12.3803 7.80826 12.4779 7.57071 12.6589 7.40554C12.84 7.24038 13.0855 7.16496 13.328 7.2C15.6179 7.64334 17.2701 9.65061 17.265 11.983V11.987ZM16.937 16.933C19.6462 14.1957 19.6273 9.7817 16.8948 7.06773C14.1622 4.35376 9.74819 4.36491 7.02942 7.09264C4.31066 9.82038 4.31405 14.2344 7.037 16.958C8.35256 18.2681 10.1347 19.0019 11.9913 18.998C13.848 18.9941 15.627 18.2527 16.937 16.937V16.933Z" fill="#42526E"/>
</svg>
