<svg width="24" height="24" viewBox="0 0 24 24" fill="none" xmlns="http://www.w3.org/2000/svg">
<path fill-rule="evenodd" clip-rule="evenodd" d="M6.909 6.273C5.85469 6.273 5 7.12769 5 8.182V9.455H19V8.182C19 7.6757 18.7989 7.19014 18.4409 6.83213C18.0829 6.47413 17.5973 6.273 17.091 6.273H6.909ZM19 10.727H5V15.818C5 16.3243 5.20113 16.8099 5.55913 17.1679C5.91714 17.5259 6.4027 17.727 6.909 17.727H17.091C17.5973 17.727 18.0829 17.5259 18.4409 17.1679C18.7989 16.8099 19 16.3243 19 15.818V10.727ZM8.094 15.9H10.28C10.8112 15.8984 11.2414 15.4682 11.243 14.937C11.2419 14.4056 10.8114 13.9751 10.28 13.974H8.094C7.56261 13.9751 7.1321 14.4056 7.131 14.937C7.13265 15.4682 7.56283 15.8984 8.094 15.9Z" fill="#42526E"/>
</svg>
