<svg width="24" height="24" viewBox="0 0 24 24" fill="none" xmlns="http://www.w3.org/2000/svg">
<path fill-rule="evenodd" clip-rule="evenodd" d="M16.307 13.329H14.142V9.715H6.26199C5.82577 9.73013 5.42289 9.48262 5.2392 9.08668C5.05552 8.69073 5.12673 8.22329 5.41999 7.9C5.62031 7.676 5.90551 7.54646 6.20599 7.543H7.26199H7.66999V6C7.66999 5.44772 8.11771 5 8.66999 5H8.85899C9.41128 5 9.85899 5.44772 9.85899 6V7.543H15.159C15.4676 7.53206 15.7675 7.64598 15.991 7.859C16.2038 8.08059 16.3178 8.37894 16.307 8.686V13.329ZM9.83799 14.294H17.863C18.4153 14.294 18.863 14.7417 18.863 15.294V15.486C18.863 16.0383 18.4153 16.486 17.863 16.486H16.308V18C16.308 18.5523 15.8603 19 15.308 19H15.116C14.5637 19 14.116 18.5523 14.116 18V16.47H8.83399C8.51732 16.4949 8.20569 16.3794 7.98175 16.1541C7.75781 15.9288 7.64418 15.6165 7.67099 15.3V10.681H9.83799V14.294Z" fill="#42526E"/>
</svg>
