<svg width="24" height="24" viewBox="0 0 24 24" fill="none" xmlns="http://www.w3.org/2000/svg">
<path fill-rule="evenodd" clip-rule="evenodd" d="M12 21C16.9706 21 21 16.9706 21 12C21 7.02944 16.9706 3 12 3C7.02944 3 3 7.02944 3 12C3 16.9706 7.02944 21 12 21ZM10.5916 12.0151L9.11693 13.4986C8.72758 13.8903 8.72948 14.5235 9.12118 14.9128C9.51287 15.3022 10.146 15.3003 10.5354 14.9086L12.0028 13.4323L13.4424 14.878C13.8321 15.2694 14.4653 15.2707 14.8567 14.881C15.248 14.4914 15.2494 13.8582 14.8597 13.4668L13.4128 12.0138L14.895 10.5227C15.2843 10.131 15.2824 9.49784 14.8907 9.10849C14.499 8.71914 13.8659 8.72105 13.4765 9.11274L12.0016 10.5966L10.5015 9.09015C10.1118 8.69879 9.47864 8.69745 9.08729 9.08715C8.69593 9.47684 8.69459 10.11 9.08429 10.5014L10.5916 12.0151Z" fill="#42526E"/>
<mask id="mask0_0_2663" style="mask-type:luminance" maskUnits="userSpaceOnUse" x="3" y="3" width="18" height="18">
<path fill-rule="evenodd" clip-rule="evenodd" d="M12 21C16.9706 21 21 16.9706 21 12C21 7.02944 16.9706 3 12 3C7.02944 3 3 7.02944 3 12C3 16.9706 7.02944 21 12 21ZM10.5916 12.0151L9.11693 13.4986C8.72758 13.8903 8.72948 14.5235 9.12118 14.9128C9.51287 15.3022 10.146 15.3003 10.5354 14.9086L12.0028 13.4323L13.4424 14.878C13.8321 15.2694 14.4653 15.2707 14.8567 14.881C15.248 14.4914 15.2494 13.8582 14.8597 13.4668L13.4128 12.0138L14.895 10.5227C15.2843 10.131 15.2824 9.49784 14.8907 9.10849C14.499 8.71914 13.8659 8.72105 13.4765 9.11274L12.0016 10.5966L10.5015 9.09015C10.1118 8.69879 9.47864 8.69745 9.08729 9.08715C8.69593 9.47684 8.69459 10.11 9.08429 10.5014L10.5916 12.0151Z" fill="white"/>
</mask>
<g mask="url(#mask0_0_2663)">
</g>
</svg>
