<svg width="24" height="24" viewBox="0 0 24 24" fill="none" xmlns="http://www.w3.org/2000/svg">
<path fill-rule="evenodd" clip-rule="evenodd" d="M17.25 19C18.2165 19 19 18.2165 19 17.25C19 16.2835 18.2165 15.5 17.25 15.5C16.2835 15.5 15.5 16.2835 15.5 17.25C15.4997 17.7142 15.684 18.1595 16.0123 18.4877C16.3405 18.816 16.7858 19.0003 17.25 19ZM17.25 13.75C18.2165 13.75 19 12.9665 19 12C19 11.0335 18.2165 10.25 17.25 10.25C16.2835 10.25 15.5 11.0335 15.5 12C15.4997 12.4642 15.684 12.9095 16.0123 13.2377C16.3405 13.566 16.7858 13.7503 17.25 13.75ZM17.25 8.5C18.2165 8.5 19 7.7165 19 6.75C19 5.7835 18.2165 5 17.25 5C16.2835 5 15.5 5.7835 15.5 6.75C15.4997 7.21421 15.684 7.65948 16.0123 7.98773C16.3405 8.31598 16.7858 8.50027 17.25 8.5ZM12 19C12.9665 19 13.75 18.2165 13.75 17.25C13.75 16.2835 12.9665 15.5 12 15.5C11.0335 15.5 10.25 16.2835 10.25 17.25C10.2497 17.7142 10.434 18.1595 10.7623 18.4877C11.0905 18.816 11.5358 19.0003 12 19ZM12 13.75C12.9665 13.75 13.75 12.9665 13.75 12C13.75 11.0335 12.9665 10.25 12 10.25C11.0335 10.25 10.25 11.0335 10.25 12C10.2497 12.4642 10.434 12.9095 10.7623 13.2377C11.0905 13.566 11.5358 13.7503 12 13.75ZM12 8.5C12.9665 8.5 13.75 7.7165 13.75 6.75C13.75 5.7835 12.9665 5 12 5C11.0335 5 10.25 5.7835 10.25 6.75C10.2497 7.21421 10.434 7.65948 10.7623 7.98773C11.0905 8.31598 11.5358 8.50027 12 8.5ZM6.75 19C7.7165 19 8.5 18.2165 8.5 17.25C8.5 16.2835 7.7165 15.5 6.75 15.5C5.7835 15.5 5 16.2835 5 17.25C4.99973 17.7142 5.18402 18.1595 5.51227 18.4877C5.84052 18.816 6.28579 19.0003 6.75 19ZM6.75 13.75C7.7165 13.75 8.5 12.9665 8.5 12C8.5 11.0335 7.7165 10.25 6.75 10.25C5.7835 10.25 5 11.0335 5 12C4.99973 12.4642 5.18402 12.9095 5.51227 13.2377C5.84052 13.566 6.28579 13.7503 6.75 13.75ZM6.75 8.5C7.7165 8.5 8.5 7.7165 8.5 6.75C8.5 5.7835 7.7165 5 6.75 5C5.7835 5 5 5.7835 5 6.75C4.99973 7.21421 5.18402 7.65948 5.51227 7.98773C5.84052 8.31598 6.28579 8.50027 6.75 8.5Z" fill="#42526E"/>
</svg>
