<svg width="24" height="24" viewBox="0 0 24 24" fill="none" xmlns="http://www.w3.org/2000/svg">
<path fill-rule="evenodd" clip-rule="evenodd" d="M8.5 8.357C8.73409 8.357 8.95859 8.26394 9.12402 8.09831C9.28946 7.93269 9.38227 7.70809 9.382 7.474V5.882C9.382 5.39488 8.98711 5 8.5 5C8.01288 5 7.618 5.39488 7.618 5.882V7.474C7.61773 7.70809 7.71054 7.93269 7.87598 8.09831C8.04141 8.26394 8.26591 8.357 8.5 8.357ZM15.5 8.357C15.7341 8.357 15.9586 8.26394 16.124 8.09831C16.2895 7.93269 16.3823 7.70809 16.382 7.474V5.882C16.382 5.39488 15.9871 5 15.5 5C15.0129 5 14.618 5.39488 14.618 5.882V7.474C14.6177 7.70809 14.7105 7.93269 14.876 8.09831C15.0414 8.26394 15.2659 8.357 15.5 8.357ZM17.668 7.635V6.18C18.4118 6.21617 18.9972 6.8283 19 7.573V17.373C19 18.1462 18.3732 18.773 17.6 18.773H6.4C5.6268 18.773 5 18.1462 5 17.373V7.573C5.00287 6.82794 5.58878 6.21565 6.333 6.18V7.759C6.33286 8.37288 6.59298 8.95805 7.04879 9.36925C7.5046 9.78046 8.11337 9.97914 8.724 9.916C9.85801 9.75884 10.6941 8.77655 10.668 7.632V6.532C10.668 6.33373 10.8287 6.173 11.027 6.173H12.973C13.1714 6.173 13.3324 6.33357 13.333 6.532V7.759C13.3329 8.37288 13.593 8.95805 14.0488 9.36925C14.5046 9.78046 15.1134 9.97914 15.724 9.916C16.8568 9.75897 17.6925 8.77842 17.668 7.635ZM15.648 16.515C16.1179 16.5134 16.4984 16.1329 16.5 15.663L16.503 12.34C16.5014 11.8701 16.1209 11.4896 15.651 11.488H8.151C7.6788 11.488 7.296 11.8708 7.296 12.343V15.663C7.29765 16.1329 7.67814 16.5134 8.148 16.515H15.648Z" fill="#42526E"/>
</svg>
