<svg width="24" height="24" viewBox="0 0 24 24" fill="none" xmlns="http://www.w3.org/2000/svg">
<path fill-rule="evenodd" clip-rule="evenodd" d="M13.9223 5.77371H17.4065C17.7343 5.77371 18 6.02727 18 6.34005V7.43366C18 7.74644 17.7343 8 17.4065 8H5.59353C5.26573 8 5 7.74644 5 7.43366V6.34005C4.99974 6.18977 5.06219 6.04558 5.17355 5.93932C5.28492 5.83305 5.43603 5.77347 5.59353 5.77371H9.06403V5.61376C9.06403 5.09299 9.51039 5 10.0601 5H12.9224C13.4721 5 13.9223 5.09299 13.9223 5.61376V5.77371ZM6.61707 10H16.3787C16.557 10.0001 16.7267 10.0739 16.8447 10.2027C16.9626 10.3315 17.0174 10.5029 16.9951 10.6733L15.995 17.9689C15.9175 18.5573 15.3984 18.9988 14.7826 19H8.21322C7.59934 18.9963 7.08314 18.5555 7.0059 17.9689L6.00473 10.6733C5.9829 10.5037 6.0373 10.3331 6.15425 10.2045C6.2712 10.0759 6.43958 10.0015 6.61707 10Z" fill="#42526E"/>
</svg>
