<svg width="24" height="24" viewBox="0 0 24 24" fill="none" xmlns="http://www.w3.org/2000/svg">
<path fill-rule="evenodd" clip-rule="evenodd" d="M14.56 10.914H13.046V8.862H16.023C16.6113 8.84996 17.0791 8.36434 17.069 7.776C17.0791 7.18766 16.6113 6.70204 16.023 6.69H13.046V6.09C13.0578 5.70841 12.861 5.35064 12.5323 5.15636C12.2037 4.96208 11.7953 4.96208 11.4667 5.15636C11.1381 5.35064 10.9412 5.70841 10.953 6.09V6.69H9.47501C7.66795 6.652 6.1707 8.08306 6.12701 9.89C6.1707 11.6969 7.66795 13.128 9.47501 13.09H10.953V15.142H7.97801C7.39635 15.167 6.93763 15.6458 6.93763 16.228C6.93763 16.8102 7.39635 17.289 7.97801 17.314H10.953V17.914C10.9412 18.2956 11.1381 18.6534 11.4667 18.8476C11.7953 19.0419 12.2037 19.0419 12.5323 18.8476C12.861 18.6534 13.0578 18.2956 13.046 17.914V17.314H14.56C16.3577 17.343 17.8396 15.9116 17.873 14.114C17.8396 12.3164 16.3577 10.885 14.56 10.914ZM15.782 14.114C15.7148 14.7276 15.1759 15.1792 14.56 15.138H13.046V13.086H14.56C15.1766 13.0449 15.7158 13.4976 15.782 14.112V14.114ZM9.47501 8.862H10.953V10.914H9.47501C8.84923 10.9626 8.29572 10.5108 8.21801 9.888C8.29572 9.26516 8.84923 8.81337 9.47501 8.862Z" fill="#42526E"/>
</svg>
