<svg width="24" height="24" viewBox="0 0 24 24" fill="none" xmlns="http://www.w3.org/2000/svg">
<path fill-rule="evenodd" clip-rule="evenodd" d="M8.676 14.668C9.07 14.822 9.446 14.992 9.837 15.118C10.5526 15.3706 11.3187 15.4464 12.07 15.339C12.2851 15.3025 12.4928 15.2312 12.685 15.128C12.9579 14.9958 13.148 14.7376 13.1934 14.4378C13.2388 14.138 13.1335 13.8351 12.912 13.628C12.6789 13.3948 12.3972 13.2159 12.087 13.104C11.571 12.898 11.046 12.714 10.532 12.504C10.0013 12.3006 9.51356 11.9994 9.094 11.616C8.37834 10.961 8.08687 9.96207 8.338 9.025C8.56708 8.01226 9.31254 7.19499 10.3 6.874C10.575 6.765 10.865 6.695 11.167 6.601V5H12.847V6.5C13.7143 6.51545 14.5691 6.70948 15.358 7.07L14.846 8.992C14.567 8.881 14.304 8.763 14.033 8.672C13.337 8.42434 12.5912 8.34986 11.86 8.455C11.6497 8.49002 11.4487 8.56724 11.269 8.682C11.0437 8.81153 10.8986 9.04577 10.8831 9.30523C10.8676 9.56469 10.9837 9.81454 11.192 9.97C11.4767 10.1851 11.7862 10.365 12.114 10.506C12.714 10.774 13.333 10.988 13.929 11.259C14.5153 11.505 15.0186 11.9142 15.379 12.438C16.1492 13.7118 15.9053 15.3532 14.798 16.348C14.2567 16.7986 13.6056 17.0974 12.911 17.214C12.802 17.234 12.776 17.275 12.777 17.378C12.777 17.861 12.777 18.343 12.777 18.825V19H11.083V17.421C10.528 17.321 9.994 17.256 9.476 17.126C9.061 17.026 8.665 16.838 8.26 16.691C8.22721 16.6872 8.19839 16.6675 8.183 16.6383C8.1676 16.6091 8.1676 16.5742 8.183 16.545C8.344 15.93 8.5 15.314 8.659 14.699C8.66313 14.6879 8.66886 14.6775 8.676 14.668Z" fill="#42526E"/>
</svg>
