<svg width="24" height="24" viewBox="0 0 24 24" fill="none" xmlns="http://www.w3.org/2000/svg">
<path fill-rule="evenodd" clip-rule="evenodd" d="M5 12.3138V11.6858C5 11.6608 5.009 11.6348 5.012 11.6098C5.05 11.2988 5.071 10.9838 5.129 10.6758C5.3658 9.38484 5.97195 8.19025 6.874 7.23682C8.63708 5.33828 11.3046 4.56886 13.808 5.23682C16.5225 5.96395 18.5389 8.24387 18.929 11.0268C19.053 11.8721 19.0161 12.7333 18.82 13.5648C18.4227 15.3362 17.3453 16.8805 15.82 17.8648C14.8999 18.4748 13.8446 18.8507 12.746 18.9598C12.602 18.9748 12.458 18.9868 12.314 19.0008H11.684C11.654 19.0008 11.624 18.9898 11.594 18.9878C10.9017 18.9525 10.219 18.8105 9.57 18.5668C8.04494 18.0063 6.76467 16.9288 5.952 15.5218C5.45128 14.6757 5.14044 13.7309 5.041 12.7528C5.026 12.6068 5.014 12.4608 5 12.3138ZM13.708 17.1288C13.472 15.8885 13.1407 14.6682 12.717 13.4788C11.1593 14.0112 9.83458 15.0676 8.969 16.4678C10.3291 17.4904 12.12 17.7402 13.708 17.1288ZM11.8 11.3128C10.0936 11.8164 8.31704 12.041 6.539 11.9778C6.52633 12.6557 6.65082 13.3292 6.905 13.9578C7.11134 14.472 7.39939 14.9495 7.758 15.3718C8.79124 13.7971 10.3187 12.6105 12.1 11.9988L11.8 11.3128ZM11.284 9.92982C11.278 9.91482 11.277 9.90782 11.274 9.90182C10.7678 8.92706 10.1648 8.00574 9.474 7.15182C9.444 7.11582 9.423 7.11682 9.385 7.13682C8.22133 7.72515 7.32325 8.73183 6.871 9.95482C6.804 10.1288 6.755 10.3088 6.697 10.4868C7.33075 10.5186 7.96601 10.5009 8.597 10.4338C9.50748 10.3577 10.4078 10.1888 11.284 9.92982ZM12.9 9.44882C13.8618 9.05769 14.7182 8.44589 15.4 7.66282C14.6879 7.08433 13.8308 6.71217 12.922 6.58682C12.329 6.50383 11.7259 6.52924 11.142 6.66182C11.811 7.53582 12.3994 8.46863 12.9 9.44882ZM15.077 16.4988C16.1647 15.7472 16.9129 14.5977 17.16 13.2988C16.1765 13.0566 15.1566 12.999 14.152 13.1288C14.5355 14.2302 14.8445 15.356 15.077 16.4988ZM13.614 10.6048C13.722 10.8578 13.828 11.1048 13.931 11.3508C13.947 11.3888 13.972 11.3808 14 11.3778C14.307 11.3428 14.614 11.2968 14.923 11.2778C15.6177 11.2336 16.3152 11.2743 17 11.3988C17.15 11.4238 17.3 11.4528 17.448 11.4798C17.3981 10.4432 17.0254 9.44811 16.382 8.63382C15.6154 9.48626 14.6703 10.1592 13.614 10.6048Z" fill="#42526E"/>
</svg>
