<svg width="24" height="24" viewBox="0 0 24 24" fill="none" xmlns="http://www.w3.org/2000/svg">
<path fill-rule="evenodd" clip-rule="evenodd" d="M12 5C8.13401 5 5 8.13401 5 12C5 15.866 8.13401 19 12 19C15.866 19 19 15.866 19 12C19 10.1435 18.2625 8.36301 16.9497 7.05025C15.637 5.7375 13.8565 5 12 5ZM16.162 13.1V13.1C15.5855 14.9093 13.9067 16.1395 12.0078 16.144C10.1088 16.1486 8.42418 14.9265 7.839 13.12C7.70308 12.6065 7.99237 12.0763 8.49775 11.9127C9.00314 11.7491 9.54823 12.0092 9.739 12.505C10.0562 13.4853 10.9704 14.1484 12.0007 14.1454C13.0311 14.1425 13.9415 13.4741 14.253 12.492C14.4206 11.9657 14.9832 11.6749 15.5095 11.8425C16.0358 12.0101 16.3266 12.5727 16.159 13.099L16.162 13.1Z" fill="#42526E"/>
</svg>
