<svg width="24" height="24" viewBox="0 0 24 24" fill="none" xmlns="http://www.w3.org/2000/svg">
<path fill-rule="evenodd" clip-rule="evenodd" d="M12 5C8.13504 5 5.00147 8.13239 5 11.9973C4.99853 15.8623 8.12972 18.9971 11.9947 19C15.8596 19.0029 18.9956 15.8729 19 12.008C19.0021 10.1501 18.2656 8.36757 16.9526 7.05308C15.6396 5.73859 13.8579 5 12 5ZM14.892 8.666C15.3846 8.68495 15.817 8.99971 15.9864 9.46271C16.1557 9.92572 16.0285 10.4452 15.6644 10.7775C15.3002 11.1099 14.7714 11.1892 14.3257 10.9784C13.8801 10.7676 13.606 10.3083 13.632 9.816C13.6676 9.15294 14.2285 8.64102 14.892 8.666ZM9.153 8.666C9.64514 8.66479 10.0894 8.96059 10.2781 9.41512C10.4668 9.86965 10.3627 10.3931 10.0144 10.7408C9.66612 11.0886 9.14247 11.1918 8.68825 11.0024C8.23404 10.8129 7.93897 10.3681 7.941 9.876C7.94265 9.20748 8.48447 8.6661 9.153 8.665V8.666ZM14.022 16.022C13.0159 16.639 11.7834 16.7638 10.674 16.361C9.484 15.9404 8.58958 14.9435 8.3 13.715C8.2657 13.5394 8.31158 13.3576 8.42513 13.2193C8.53868 13.081 8.70804 13.0006 8.887 13H15.092C15.2775 13.001 15.4523 13.0867 15.5668 13.2326C15.6813 13.3784 15.723 13.5686 15.68 13.749C15.4618 14.7015 14.8625 15.5227 14.022 16.021V16.022Z" fill="#42526E"/>
</svg>
