<svg width="24" height="24" viewBox="0 0 24 24" fill="none" xmlns="http://www.w3.org/2000/svg">
<path fill-rule="evenodd" clip-rule="evenodd" d="M18.488 9.522L15.188 6.222C14.4955 5.56079 13.4055 5.56079 12.713 6.222L9.87901 9.055L5.51101 13.423C4.82861 14.1069 4.82861 15.2141 5.51101 15.898L7.71101 18.103C7.82083 18.212 7.9693 18.2731 8.12401 18.273H11.971C12.1257 18.2731 12.2742 18.212 12.384 18.103L18.484 12.003C18.8139 11.6747 18.9996 11.2287 19.0004 10.7633C19.0011 10.2979 18.8168 9.85136 18.488 9.522ZM11.517 16.6H8.65501L6.92301 14.87C6.73243 14.6756 6.73243 14.3644 6.92301 14.17L10.292 10.8L13.806 14.312L11.517 16.6Z" fill="#42526E"/>
</svg>
