<svg width="24" height="24" viewBox="0 0 24 24" fill="none" xmlns="http://www.w3.org/2000/svg">
<path fill-rule="evenodd" clip-rule="evenodd" d="M16.358 6.077C16.3449 6.66357 15.8627 7.13062 15.276 7.125C14.643 7.13362 14.0172 7.26081 13.431 7.5C12.4978 7.87214 11.7015 8.52216 11.15 9.362H14.35C14.6257 9.36218 14.8836 9.49827 15.0393 9.72577C15.195 9.95327 15.2286 10.2429 15.129 10.5L15.12 10.524C14.94 10.982 14.662 11.029 13.831 11.05C13.831 11.05 10.47 11.05 10.487 11.035L10.47 11.05C10.3584 11.6533 10.3686 12.2727 10.5 12.872H14.329C14.6969 12.8719 15.0241 13.1059 15.143 13.454C15.2327 13.7167 15.1902 14.0065 15.0287 14.2323C14.8672 14.4581 14.6066 14.5921 14.329 14.592H11.25C11.7141 15.2804 12.3414 15.8432 13.076 16.23C14.1414 16.7985 15.3714 16.9784 16.555 16.739C17.0739 16.6369 17.5902 16.9262 17.774 17.422C17.8874 17.7173 17.866 18.0475 17.7155 18.3257C17.5649 18.6039 17.3003 18.8024 16.991 18.869C16.7382 18.9154 16.4832 18.9488 16.227 18.969L15.907 18.998H15.248C15.101 18.984 14.954 18.972 14.807 18.957C14.0015 18.8803 13.214 18.6718 12.476 18.34C10.8199 17.6182 9.49124 16.3066 8.748 14.66C8.73102 14.6196 8.69184 14.5929 8.648 14.592C8.348 14.592 7.41 14.592 6.994 14.585C6.72752 14.5815 6.47882 14.4507 6.32494 14.2331C6.17105 14.0155 6.13056 13.7374 6.216 13.485L6.222 13.469C6.3305 13.1405 6.63135 12.9138 6.977 12.9C7.321 12.887 8.192 12.872 8.203 12.872C8.183 12.563 8.151 12.263 8.148 11.963C8.145 11.663 8.169 11.363 8.182 11.053H7C6.73011 11.0515 6.47713 10.9213 6.31904 10.7025C6.16095 10.4838 6.11673 10.2027 6.2 9.946C6.31237 9.59598 6.63838 9.35895 7.006 9.36H8.557C8.60084 9.36003 8.64036 9.33356 8.657 9.293C9.34615 7.64886 10.6422 6.33343 12.276 5.62C13.0028 5.28772 13.7803 5.07983 14.576 5.005C14.641 4.999 14.962 4.999 15.317 5.005C15.8988 5.01756 16.3625 5.49513 16.358 6.077Z" fill="#42526E"/>
</svg>
