<svg width="24" height="24" viewBox="0 0 24 24" fill="none" xmlns="http://www.w3.org/2000/svg">
<path fill-rule="evenodd" clip-rule="evenodd" d="M10.049 16.6L9.015 16.625L16.659 9V10.018C16.6465 10.4436 16.8665 10.8423 17.2332 11.0588C17.5998 11.2753 18.0552 11.2753 18.4218 11.0588C18.7885 10.8423 19.0085 10.4436 18.996 10.018L18.987 6.168C18.9876 5.85632 18.8633 5.5574 18.642 5.33795C18.4206 5.1185 18.1207 4.99679 17.809 5L13.922 5.059C13.2756 5.06701 12.758 5.59755 12.766 6.244C12.774 6.89045 13.3046 7.40801 13.951 7.4L14.985 7.375L7.341 15V13.982C7.34072 13.3356 6.81645 12.8117 6.17 12.812C5.52355 12.8123 4.99972 13.3366 5 13.983L5.009 17.833C5.0087 18.1452 5.13362 18.4445 5.35579 18.6638C5.57796 18.8832 5.87882 19.0043 6.191 19L10.078 18.941C10.7244 18.933 11.242 18.4024 11.234 17.756C11.226 17.1096 10.6954 16.592 10.049 16.6Z" fill="#42526E"/>
</svg>
