<svg width="24" height="24" viewBox="0 0 24 24" fill="none" xmlns="http://www.w3.org/2000/svg">
<path fill-rule="evenodd" clip-rule="evenodd" d="M10.189 6.517V5.536C10.1885 5.23981 9.94819 5 9.652 5H5.4C5.17909 5 5 5.17909 5 5.4V9.653C5 9.79516 5.05647 9.93149 5.15699 10.032C5.25751 10.1325 5.39385 10.189 5.536 10.189H6.524C6.66633 10.1893 6.80292 10.1329 6.90366 10.0324C7.00439 9.93182 7.061 9.79533 7.061 9.653V7.24C7.061 7.13727 7.14428 7.054 7.247 7.054H9.652C9.94835 7.05345 10.1885 6.81335 10.189 6.517ZM17.483 10.189H18.464C18.6063 10.189 18.7428 10.1324 18.8434 10.0317C18.9439 9.93092 19.0003 9.79433 19 9.652V5.4C19 5.17909 18.8209 5 18.6 5H14.347C14.2047 5 14.0682 5.05661 13.9676 5.15734C13.8671 5.25808 13.8107 5.39467 13.811 5.537V6.525C13.811 6.82102 14.051 7.061 14.347 7.061H16.76C16.8627 7.061 16.946 7.14427 16.946 7.247V9.652C16.946 9.94858 17.1864 10.189 17.483 10.189ZM5.536 13.811H6.517C6.81358 13.811 7.054 14.0514 7.054 14.348V16.748C7.054 16.8507 7.13728 16.934 7.24 16.934H9.653C9.79516 16.934 9.93149 16.9905 10.032 17.091C10.1325 17.1915 10.189 17.3278 10.189 17.47V18.458C10.1906 18.6012 10.1348 18.7391 10.0341 18.8409C9.93346 18.9427 9.7962 19 9.653 19H5.4C5.17909 19 5 18.8209 5 18.6V14.348C4.99974 14.2057 5.05609 14.0691 5.15664 13.9683C5.25719 13.8676 5.39367 13.811 5.536 13.811ZM13.811 17.483V18.464C13.8116 18.7602 14.0518 19 14.348 19H18.6C18.8209 19 19 18.8209 19 18.6V14.347C19 14.204 18.9429 14.0669 18.8412 13.9662C18.7396 13.8655 18.602 13.8097 18.459 13.811H17.471C17.3287 13.8107 17.1921 13.8671 17.0913 13.9676C16.9906 14.0682 16.934 14.2047 16.934 14.347V16.76C16.934 16.8627 16.8507 16.946 16.748 16.946H14.348C14.0517 16.9466 13.8116 17.1867 13.811 17.483Z" fill="#42526E"/>
</svg>
