<svg width="24" height="24" viewBox="0 0 24 24" fill="none" xmlns="http://www.w3.org/2000/svg">
<path fill-rule="evenodd" clip-rule="evenodd" d="M5 6.287C4.99947 5.94557 5.13517 5.61803 5.377 5.377C5.61803 5.13517 5.94556 4.99947 6.287 5H17.713C18.0545 5 18.382 5.13573 18.6234 5.37731C18.8648 5.61888 19.0003 5.94649 19 6.288V9.512C19 10.2228 18.4238 10.799 17.713 10.799C17.0022 10.799 16.426 10.2228 16.426 9.512V7.573H7.573V9.512C7.58605 9.98018 7.34374 10.4185 6.94033 10.6564C6.53691 10.8944 6.03609 10.8944 5.63267 10.6564C5.22925 10.4185 4.98694 9.98018 5 9.512V6.287ZM10.831 15.005V11.032C10.8495 10.4 11.3672 9.89719 11.9995 9.89719C12.6318 9.89719 13.1495 10.4 13.168 11.032V14.974L13.882 14.225C14.1735 13.9263 14.6023 13.8059 15.0067 13.909C15.4111 14.0121 15.7298 14.3232 15.8427 14.725C15.9556 15.1268 15.8455 15.5583 15.554 15.857L12.847 18.647C12.6293 18.8707 12.3311 18.9979 12.019 19.0002C11.7069 19.0024 11.4069 18.8795 11.186 18.659L8.458 15.942C8.16254 15.6473 8.04677 15.2173 8.1543 14.814C8.26182 14.4108 8.57631 14.0955 8.9793 13.987C9.38228 13.8785 9.81254 13.9933 10.108 14.288L10.831 15.005Z" fill="#42526E"/>
</svg>
