<svg width="24" height="24" viewBox="0 0 24 24" fill="none" xmlns="http://www.w3.org/2000/svg">
<path fill-rule="evenodd" clip-rule="evenodd" d="M14.15 13.916L9.68099 18.357C9.28073 18.7574 8.73712 18.9813 8.17099 18.979L5.72699 18.969C5.33169 18.9674 5.01163 18.6473 5.00999 18.252L4.99999 15.808C4.99823 15.2426 5.22211 14.6998 5.62199 14.3L10.091 9.857L9.07699 8.842C8.94197 8.70763 8.86607 8.52499 8.86607 8.3345C8.86607 8.14401 8.94197 7.96137 9.07699 7.827L9.24299 7.66C9.61995 7.28426 10.1439 7.09461 10.674 7.142L11.959 7.259C12.3819 7.29698 12.7998 7.14533 13.1 6.845L14.037 5.911C15.0453 4.8742 16.6594 4.7285 17.837 5.568C18.5083 6.06524 18.9298 6.83014 18.9917 7.66324C19.0535 8.49635 18.7495 9.31509 18.159 9.906L17.159 10.906C16.8578 11.2068 16.7061 11.6261 16.745 12.05L16.861 13.335C16.9099 13.865 16.72 14.3893 16.343 14.765L16.177 14.932C16.0426 15.067 15.86 15.1429 15.6695 15.1429C15.479 15.1429 15.2964 15.067 15.162 14.932L14.15 13.916ZM10.4 15.9L13.3 13.016L11.045 10.757L6.93099 14.843L10.4 15.9Z" fill="#42526E"/>
</svg>
