<svg width="24" height="24" viewBox="0 0 24 24" fill="none" xmlns="http://www.w3.org/2000/svg">
<path fill-rule="evenodd" clip-rule="evenodd" d="M18.636 7.279C18.6403 6.82349 18.4012 6.40029 18.0089 6.16882C17.6166 5.93735 17.1305 5.93277 16.7339 6.15682C16.3373 6.38086 16.0903 6.79949 16.086 7.255C16.064 8.11633 16.064 8.97767 16.086 9.839C16.1085 10.5291 16.6764 11.0759 17.3668 11.0724C18.0573 11.0689 18.6195 10.5163 18.635 9.826C18.6437 9.54333 18.6408 9.26021 18.6379 8.97725V8.97715V8.97704C18.6365 8.83563 18.635 8.69426 18.635 8.553C18.635 8.40801 18.6365 8.26244 18.6381 8.11681V8.11678C18.641 7.83653 18.6439 7.55603 18.636 7.279ZM7.91101 7.213C7.94101 8.099 7.93901 8.986 7.91101 9.872C7.90315 10.2074 7.76224 10.526 7.51933 10.7575C7.27642 10.9889 6.95144 11.1143 6.61601 11.106C6.28113 11.1028 5.96124 10.9667 5.72678 10.7275C5.49233 10.4884 5.36255 10.1659 5.36601 9.831C5.35864 9.53832 5.36114 9.24026 5.3636 8.94763C5.36481 8.80333 5.36601 8.66036 5.36601 8.52C5.36601 8.3783 5.36434 8.23659 5.36268 8.09493L5.36267 8.09482L5.36267 8.0947C5.35934 7.81156 5.35601 7.52856 5.36601 7.246C5.36489 6.56206 5.9161 6.0055 6.60001 6C6.93592 5.98235 7.26471 6.10126 7.51161 6.32971C7.75852 6.55816 7.90257 6.87673 7.91101 7.213ZM13.517 17.188C14.0182 17 14.4947 16.7519 14.936 16.449C15.2194 16.2273 15.5815 16.1318 15.9374 16.1849C16.2933 16.2381 16.6117 16.4352 16.818 16.73C17.0169 17.0236 17.0849 17.3867 17.0056 17.7324C16.9264 18.0782 16.707 18.3754 16.4 18.553C15.1155 19.4732 13.58 19.9782 12 20C10.3995 19.9748 8.84566 19.457 7.55001 18.517C7.15402 18.2644 6.9288 17.8147 6.96372 17.3463C6.99864 16.878 7.28806 16.4666 7.71712 16.2756C8.14619 16.0845 8.64553 16.1446 9.01701 16.432C10.2925 17.429 11.9857 17.7135 13.517 17.188ZM10.817 14.918C10.515 14.939 10.212 14.939 9.91001 14.918C9.45325 14.9134 9.03366 14.6654 8.8093 14.2675C8.58494 13.8696 8.58989 13.3822 8.8223 12.989C9.0547 12.5957 9.47925 12.3564 9.93601 12.361C10.302 12.354 10.408 12.353 10.702 12.361H10.725V7.318C10.7077 6.8555 10.9426 6.41999 11.3385 6.18038C11.7345 5.94077 12.2293 5.93475 12.631 6.16465C13.0327 6.39455 13.2781 6.82422 13.272 7.287C13.281 8.997 13.286 10.707 13.272 12.417C13.1456 13.6861 12.1856 14.7136 10.928 14.926C10.9058 14.9283 10.8851 14.9254 10.8644 14.9224C10.8489 14.9202 10.8333 14.918 10.817 14.918Z" fill="#42526E"/>
</svg>
