<svg width="24" height="24" viewBox="0 0 24 24" fill="none" xmlns="http://www.w3.org/2000/svg">
<path fill-rule="evenodd" clip-rule="evenodd" d="M17.216 15.5H15.465V17.25C15.4653 17.714 15.2811 18.1592 14.9531 18.4874C14.6251 18.8156 14.18 19 13.716 19H6.716C5.74951 19 4.966 18.2165 4.966 17.25V10.25C4.96574 9.78579 5.15003 9.34052 5.47827 9.01227C5.80652 8.68402 6.25179 8.49973 6.716 8.5H8.465V6.75C8.465 6.2857 8.64952 5.84043 8.97792 5.51221C9.30633 5.18399 9.7517 4.99973 10.216 5H17.216C18.1825 5 18.966 5.7835 18.966 6.75V13.75C18.966 14.7165 18.1825 15.5 17.216 15.5ZM17.216 6.75H10.216V8.5H13.716C14.18 8.5 14.6251 8.68441 14.9531 9.01262C15.2811 9.34084 15.4653 9.78596 15.465 10.25V13.75H17.216V6.75Z" fill="#42526E"/>
</svg>
