<svg width="24" height="24" viewBox="0 0 24 24" fill="none" xmlns="http://www.w3.org/2000/svg">
<path fill-rule="evenodd" clip-rule="evenodd" d="M13.1439 12.022V17.18C13.1443 17.4853 12.9709 17.7643 12.6969 17.899L10.5969 18.939C10.4151 19.029 10.1997 19.0186 10.0274 18.9115C9.85519 18.8044 9.75057 18.6158 9.75086 18.413V12.018C9.7511 11.3899 9.51803 10.784 9.09686 10.318L5.14786 5.953C4.99623 5.78587 4.95747 5.54502 5.04903 5.33875C5.14058 5.13249 5.34519 4.99966 5.57086 5H17.3509C17.5767 5.00024 17.7813 5.1336 17.8726 5.34021C17.9638 5.54682 17.9248 5.78783 17.7729 5.955L13.8039 10.316C13.3791 10.7827 13.1438 11.391 13.1439 12.022Z" fill="#42526E"/>
</svg>
