<svg width="24" height="24" viewBox="0 0 24 24" fill="none" xmlns="http://www.w3.org/2000/svg">
<path fill-rule="evenodd" clip-rule="evenodd" d="M10.381 18.762C8.03419 18.0401 6.4941 15.7964 6.66399 13.347C6.68535 12.0167 7.24838 10.7527 8.22299 9.84699C8.37381 9.70691 8.58078 9.64419 8.78399 9.67699C9.14799 9.73599 9.02599 10.377 8.96699 10.742C8.87128 11.2066 8.96692 11.6901 9.23229 12.0833C9.49766 12.4764 9.91033 12.746 10.377 12.831C12.377 12.831 9.00499 8.83899 12.505 5.09899C12.5966 5.007 12.7362 4.9826 12.8536 5.03805C12.971 5.09349 13.0408 5.21679 13.028 5.34599C12.948 7.34599 15.514 9.39799 16.34 10.546C17.6821 12.418 17.6754 14.9388 16.3234 16.8037C14.9713 18.6685 12.5775 19.4586 10.381 18.765V18.762Z" fill="#42526E"/>
</svg>
