<svg width="24" height="24" viewBox="0 0 24 24" fill="none" xmlns="http://www.w3.org/2000/svg">
<path fill-rule="evenodd" clip-rule="evenodd" d="M17.257 8.493L13.227 8.484L11.892 7.148C11.6225 6.89547 11.2693 6.75126 10.9 6.743H6.741C5.77825 6.74849 5.00053 7.53023 5 8.493V17.243C5.0044 18.21 5.78898 18.9919 6.756 18.993H17.242C17.7078 18.9962 18.1556 18.8131 18.4858 18.4845C18.8159 18.1558 19.0011 17.7088 19 17.243V10.243C19.0006 9.279 18.221 8.4963 17.257 8.493ZM14.283 14.374H12.76V15.9C12.7701 16.1786 12.6272 16.4405 12.3874 16.5829C12.1477 16.7252 11.8493 16.7252 11.6096 16.5829C11.3698 16.4405 11.2269 16.1786 11.237 15.9V14.374H9.713C9.30317 14.3591 8.9786 14.0226 8.9786 13.6125C8.9786 13.2024 9.30317 12.8658 9.713 12.851H11.237V11.327C11.2519 10.9172 11.5884 10.5926 11.9985 10.5926C12.4086 10.5926 12.7451 10.9172 12.76 11.327V12.851H14.283C14.5616 12.8409 14.8235 12.9838 14.9659 13.2236C15.1082 13.4633 15.1082 13.7617 14.9659 14.0014C14.8235 14.2412 14.5616 14.3841 14.283 14.374Z" fill="#42526E"/>
</svg>
