<svg width="24" height="24" viewBox="0 0 24 24" fill="none" xmlns="http://www.w3.org/2000/svg">
<path fill-rule="evenodd" clip-rule="evenodd" d="M17.259 7.625L13.229 7.616L11.893 6.28C11.6232 6.02725 11.2696 5.88302 10.9 5.875H6.743C5.77947 5.8794 5.00054 6.66146 5 7.625V16.375C5.00385 17.3422 5.78875 18.1245 6.756 18.125H17.244C17.7093 18.1271 18.1563 17.9436 18.4859 17.6152C18.8155 17.2867 19.0005 16.8403 19 16.375V9.375C19 8.41201 18.222 7.62995 17.259 7.625ZM14.154 11.667L13.077 12.744L14.154 13.821C14.452 14.1184 14.4524 14.601 14.155 14.899C13.8576 15.197 13.375 15.1974 13.077 14.9L12 13.821L10.923 14.9C10.625 15.1974 10.1424 15.197 9.845 14.899C9.54759 14.601 9.54804 14.1184 9.846 13.821L10.923 12.744L9.846 11.667C9.5657 11.3668 9.57371 10.8985 9.86412 10.6081C10.1545 10.3177 10.6228 10.3097 10.923 10.59L12 11.667L13.077 10.59C13.267 10.3865 13.553 10.3028 13.8227 10.3718C14.0925 10.4408 14.3032 10.6515 14.3722 10.9213C14.4412 11.191 14.3575 11.477 14.154 11.667Z" fill="#42526E"/>
</svg>
