<svg width="24" height="24" viewBox="0 0 24 24" fill="none" xmlns="http://www.w3.org/2000/svg">
<path fill-rule="evenodd" clip-rule="evenodd" d="M17.259 7.626L13.228 7.617L11.893 6.281C11.6234 6.02788 11.2697 5.88329 10.9 5.875H6.743C5.7793 5.87995 5.00054 6.66229 5 7.626V16.376C5.00385 17.3432 5.78875 18.1255 6.756 18.126H17.244C17.7093 18.1281 18.1563 17.9446 18.4859 17.6162C18.8155 17.2877 19.0005 16.8413 19 16.376V9.376C19 8.41301 18.222 7.63095 17.259 7.626ZM14.7 13.272L12.328 15.648C12.1621 15.8133 11.8939 15.8133 11.728 15.648L9.351 13.272C9.22917 13.1506 9.19256 12.9677 9.25825 12.8087C9.32395 12.6497 9.47899 12.546 9.651 12.546H11.177V10.53C11.1618 10.2165 11.3204 9.92005 11.5896 9.75874C11.8589 9.59743 12.1951 9.59743 12.4644 9.75874C12.7336 9.92005 12.8922 10.2165 12.877 10.53V12.546H14.4C14.572 12.546 14.7271 12.6497 14.7927 12.8087C14.8584 12.9677 14.8218 13.1506 14.7 13.272Z" fill="#42526E"/>
</svg>
