<svg width="24" height="24" viewBox="0 0 24 24" fill="none" xmlns="http://www.w3.org/2000/svg">
<path fill-rule="evenodd" clip-rule="evenodd" d="M17.259 7.625L13.229 7.616L11.893 6.28C11.6232 6.02725 11.2696 5.88302 10.9 5.875H6.743C5.77947 5.8794 5.00054 6.66146 5 7.625V16.375C5.00385 17.3422 5.78875 18.1245 6.756 18.125H17.244C17.7093 18.1271 18.1563 17.9436 18.4859 17.6152C18.8155 17.2867 19.0005 16.8403 19 16.375V9.375C19 8.41201 18.222 7.62995 17.259 7.625ZM16.853 15.078C16.8541 15.375 16.7369 15.6603 16.5273 15.8708C16.3178 16.0813 16.033 16.1997 15.736 16.2H8.264C7.64733 16.1994 7.14755 15.6997 7.147 15.083V12.139C7.14755 11.5223 7.64733 11.0226 8.264 11.022H15.736C16.3527 11.0226 16.8524 11.5223 16.853 12.139V15.078Z" fill="#42526E"/>
</svg>
