<svg width="24" height="24" viewBox="0 0 24 24" fill="none" xmlns="http://www.w3.org/2000/svg">
<path fill-rule="evenodd" clip-rule="evenodd" d="M17.258 7.625L13.228 7.616L11.893 6.28C11.6232 6.02725 11.2696 5.88302 10.9 5.875H6.743C5.77924 5.87886 4.99999 6.66123 5 7.625V16.375C5.00385 17.3422 5.78875 18.1245 6.756 18.125H17.244C17.7093 18.1271 18.1563 17.9436 18.4859 17.6152C18.8155 17.2867 19.0005 16.8403 19 16.375V9.375C19 8.41162 18.2214 7.6294 17.258 7.625ZM14.824 11.569L11.811 14.844C11.6797 15.0086 11.4842 15.109 11.274 15.12H11.233C11.0364 15.1191 10.8482 15.0399 10.71 14.9L9.229 13.424C8.93988 13.1349 8.93988 12.6661 9.229 12.377C9.51812 12.0879 9.98688 12.0879 10.276 12.377L11.176 13.277L13.676 10.648C13.8412 10.4415 14.1041 10.3388 14.3655 10.3787C14.627 10.4185 14.8473 10.5948 14.9435 10.8412C15.0398 11.0875 14.9972 11.3665 14.832 11.573L14.824 11.569Z" fill="#42526E"/>
</svg>
