<svg width="24" height="24" viewBox="0 0 24 24" fill="none" xmlns="http://www.w3.org/2000/svg">
<path fill-rule="evenodd" clip-rule="evenodd" d="M17.258 7.625L13.228 7.616L11.893 6.28C11.6232 6.02725 11.2696 5.88302 10.9 5.875H6.742C5.77886 5.87995 5.00054 6.66184 5 7.625V16.375C5.00495 17.3422 5.78982 18.1239 6.757 18.125H17.243C17.7087 18.1279 18.1562 17.9447 18.4861 17.6161C18.8161 17.2875 19.0011 16.8407 19 16.375V9.375C19.0006 8.41139 18.2216 7.62886 17.258 7.625ZM9.351 12.179L11.726 9.8C11.8921 9.63527 12.1599 9.63527 12.326 9.8L14.7 12.179C14.8218 12.3004 14.8584 12.4833 14.7927 12.6423C14.7271 12.8013 14.572 12.905 14.4 12.905H12.877V14.922C12.855 15.3754 12.481 15.7318 12.027 15.7318C11.573 15.7318 11.199 15.3754 11.177 14.922V12.905H9.651C9.47899 12.905 9.32395 12.8013 9.25825 12.6423C9.19256 12.4833 9.22917 12.3004 9.351 12.179Z" fill="#42526E"/>
</svg>
