<svg width="24" height="24" viewBox="0 0 24 24" fill="none" xmlns="http://www.w3.org/2000/svg">
<path fill-rule="evenodd" clip-rule="evenodd" d="M17.235 14.244L16.964 14.1C16.8167 14.0239 16.7166 13.8797 16.697 13.715L16.605 12.933C16.5722 12.6539 16.3862 12.4165 16.123 12.318L14.92 11.87C14.7877 11.8201 14.6827 11.7166 14.631 11.585L14.1 10.231C14.0811 10.1841 14.068 10.1351 14.061 10.085C14.0128 9.73821 14.2535 9.41753 14.6 9.367L15.528 9.239C15.7327 9.21033 15.9166 9.099 16.037 8.931L16.465 8.331C15.3787 6.97671 13.7361 6.18908 12 6.19H11.908L12.108 7.278C12.1325 7.4085 12.1042 7.54341 12.0291 7.65297C11.9541 7.76252 11.8386 7.83773 11.708 7.862C11.6524 7.871 11.5956 7.871 11.54 7.862C11.2212 7.79515 10.9005 7.96732 10.78 8.27L10.524 8.981C10.4342 9.23056 10.1652 9.3666 9.911 9.291L9.447 9.153C9.31505 9.11034 9.17172 9.12037 9.047 9.181C8.85406 9.27499 8.70963 9.44589 8.64911 9.65179C8.5886 9.8577 8.6176 10.0796 8.729 10.263L9.24 11.103C9.37673 11.3261 9.61934 11.4624 9.881 11.463H10.821C10.8996 11.4627 10.9771 11.4812 11.047 11.517L12 12C12.148 12.075 12.2491 12.2185 12.27 12.383L12.298 12.602C12.3228 12.8001 12.4323 12.9777 12.598 13.089L13.132 13.446C13.4241 13.641 13.5029 14.0358 13.308 14.328C13.2869 14.3602 13.2628 14.3903 13.236 14.418L12.471 15.208C12.3823 15.2993 12.3186 15.4119 12.286 15.535L11.719 17.635C14.0815 17.752 16.2728 16.4048 17.235 14.244ZM9.359 17.083L9.421 16.577C9.44914 16.344 9.39078 16.1088 9.257 15.916L8.325 14.574C8.16406 14.3426 8.19319 14.0288 8.394 13.831C8.46368 13.7614 8.50283 13.667 8.50283 13.5685C8.50283 13.47 8.46368 13.3756 8.394 13.306C8.37076 13.2824 8.34454 13.2619 8.316 13.245L6.273 12.063C6.29585 14.1778 7.48233 16.1078 9.359 17.083ZM12 19C8.13401 19 5 15.866 5 12C5 8.13401 8.13401 5 12 5C15.866 5 19 8.13401 19 12C19 13.8565 18.2625 15.637 16.9497 16.9497C15.637 18.2625 13.8565 19 12 19Z" fill="#42526E"/>
</svg>
