<svg width="24" height="24" viewBox="0 0 24 24" fill="none" xmlns="http://www.w3.org/2000/svg">
<path fill-rule="evenodd" clip-rule="evenodd" d="M19 9.422V8.514C19 8.34771 18.9339 8.18823 18.8163 8.07064C18.6988 7.95306 18.5393 7.887 18.373 7.887H17.488C17.3003 7.88676 17.1225 7.80243 17.0036 7.65718C16.8847 7.51194 16.8372 7.32106 16.874 7.137L17.151 5.751C17.1882 5.56662 17.1406 5.37528 17.0215 5.22975C16.9023 5.08422 16.7241 4.99989 16.536 5H15.582C15.2845 4.99962 15.0279 5.20862 14.968 5.5L14.592 7.383C14.5317 7.67454 14.2747 7.88347 13.977 7.883H11.919C11.7312 7.88269 11.5535 7.79839 11.4344 7.6532C11.3154 7.50802 11.2675 7.31718 11.304 7.133L11.582 5.751C11.6192 5.56662 11.5716 5.37528 11.4525 5.22975C11.3333 5.08422 11.1551 4.99989 10.967 5H10.013C9.71528 4.99953 9.45828 5.20847 9.39798 5.5L9.02298 7.383C8.96268 7.67454 8.70569 7.88347 8.40798 7.883H6.64898C6.3027 7.883 6.02198 8.16372 6.02198 8.51V9.418C6.02198 9.5842 6.08807 9.74358 6.20569 9.861C6.3233 9.97843 6.48278 10.0443 6.64898 10.044H7.72498C7.91274 10.0443 8.09051 10.1286 8.20956 10.2738C8.32861 10.419 8.37646 10.6098 8.33998 10.794L7.80898 13.45C7.74911 13.7414 7.49245 13.9504 7.19498 13.95H5.62698C5.46 13.95 5.29991 14.0166 5.18221 14.1351C5.06451 14.2535 4.99892 14.414 4.99998 14.581V15.488C4.99998 15.8343 5.2807 16.115 5.62698 16.115H6.51198C6.69969 16.1152 6.87742 16.1996 6.99632 16.3448C7.11523 16.4901 7.16281 16.6809 7.12598 16.865L6.84898 18.251C6.81212 18.4352 6.85983 18.6263 6.97896 18.7716C7.09809 18.9169 7.2761 19.0011 7.46398 19.001H8.41798C8.71545 19.0014 8.97211 18.7924 9.03198 18.501L9.40798 16.623C9.46828 16.3315 9.72528 16.1225 10.023 16.123H12.081C12.2687 16.1233 12.4465 16.2076 12.5656 16.3528C12.6846 16.498 12.7325 16.6888 12.696 16.873L12.418 18.259C12.3811 18.4432 12.4288 18.6343 12.548 18.7796C12.6671 18.9249 12.8451 19.0091 13.033 19.009H13.987C14.2847 19.0095 14.5417 18.8005 14.602 18.509L14.977 16.631C15.0373 16.3395 15.2943 16.1305 15.592 16.131H17.211C17.3773 16.131 17.5368 16.0649 17.6543 15.9474C17.7719 15.8298 17.838 15.6703 17.838 15.504V14.581C17.8382 14.4146 17.7723 14.255 17.6546 14.1374C17.537 14.0197 17.3774 13.9537 17.211 13.954H16.275C16.0872 13.9537 15.9095 13.8694 15.7904 13.7242C15.6714 13.579 15.6235 13.3882 15.66 13.204L16.191 10.552C16.2509 10.2606 16.5075 10.0516 16.805 10.052H18.373C18.5398 10.052 18.6997 9.98553 18.8174 9.8673C18.9351 9.74906 19.0008 9.58881 19 9.422ZM12.764 13.954H10.706C10.5181 13.9541 10.3401 13.8699 10.221 13.7246C10.1018 13.5793 10.0541 13.3882 10.091 13.204L10.622 10.552C10.6819 10.2606 10.9385 10.0516 11.236 10.052H13.294C13.4819 10.0519 13.6599 10.1361 13.779 10.2814C13.8981 10.4267 13.9458 10.6178 13.909 10.802L13.378 13.45C13.3198 13.743 13.0627 13.954 12.764 13.954Z" fill="#42526E"/>
</svg>
