<svg width="24" height="24" viewBox="0 0 24 24" fill="none" xmlns="http://www.w3.org/2000/svg">
<path fill-rule="evenodd" clip-rule="evenodd" d="M11.812 5.987H12.2C12.7523 5.987 13.2 6.43471 13.2 6.987V17.015C13.2 17.5673 12.7523 18.015 12.2 18.015H11.813C11.2607 18.015 10.813 17.5673 10.813 17.015V13.432H10.8H7.388V17.013C7.388 17.5653 6.94028 18.013 6.388 18.013H6C5.44772 18.013 5 17.5653 5 17.013V6.987C5 6.43471 5.44772 5.987 6 5.987H6.387C6.93928 5.987 7.387 6.43471 7.387 6.987V11.02H10.799H10.812V6.987C10.812 6.43471 11.2597 5.987 11.812 5.987ZM15.938 9.87H18C18.5519 9.87 18.9994 10.3171 19 10.869V16.848C19 17.4003 18.5523 17.848 18 17.848H17.613C17.0607 17.848 16.613 17.4003 16.613 16.848V12.256H15.938C15.3857 12.256 14.938 11.8083 14.938 11.256V10.87C14.938 10.3177 15.3857 9.87 15.938 9.87Z" fill="#42526E"/>
</svg>
