<svg width="24" height="24" viewBox="0 0 24 24" fill="none" xmlns="http://www.w3.org/2000/svg">
<path fill-rule="evenodd" clip-rule="evenodd" d="M13.4 15.281V17.746C13.4 18.1326 13.7134 18.446 14.1 18.446H18.3C18.6866 18.446 19 18.1326 19 17.746V11.558C19 11.261 18.882 10.9761 18.672 10.766L12.791 5.88601C12.5813 5.67607 12.2967 5.55811 12 5.55811C11.7033 5.55811 11.4187 5.67607 11.209 5.88601L5.328 10.766C5.11796 10.9761 4.99998 11.261 5 11.558V17.746C5 18.1326 5.3134 18.446 5.7 18.446H9.9C10.0857 18.446 10.2637 18.3723 10.395 18.241C10.5263 18.1097 10.6 17.9317 10.6 17.746V15.281C10.6 14.5078 11.2268 13.881 12 13.881C12.7732 13.881 13.4 14.5078 13.4 15.281Z" fill="#42526E"/>
</svg>
