<svg width="24" height="24" viewBox="0 0 24 24" fill="none" xmlns="http://www.w3.org/2000/svg">
<path fill-rule="evenodd" clip-rule="evenodd" d="M17.25 17.688H6.75C5.78373 17.6874 5.00055 16.9043 5 15.938V8.062C5.00055 7.09573 5.78373 6.31255 6.75 6.312H17.25C18.2163 6.31255 18.9994 7.09573 19 8.062V15.938C18.9994 16.9043 18.2163 17.6874 17.25 17.688ZM7.924 8.288H9.743C10.2262 8.288 10.618 8.67975 10.618 9.163V12C10.618 12.4832 10.2262 12.875 9.743 12.875H7.924C7.44075 12.875 7.049 12.4832 7.049 12V9.167C7.049 8.68375 7.44075 8.292 7.924 8.292V8.288ZM7.81 14.279H15.96C16.3709 14.279 16.704 14.6121 16.704 15.023C16.704 15.4339 16.3709 15.767 15.96 15.767H7.81C7.3991 15.767 7.066 15.4339 7.066 15.023C7.066 14.6121 7.3991 14.279 7.81 14.279ZM15.969 9.756H13.188C12.7923 9.74141 12.4791 9.41643 12.4791 9.0205C12.4791 8.62457 12.7923 8.29959 13.188 8.285H15.969C16.2382 8.27507 16.4914 8.41304 16.629 8.6447C16.7665 8.87635 16.7665 9.16465 16.629 9.3963C16.4914 9.62796 16.2382 9.76593 15.969 9.756ZM15.969 12.736H13.188C12.7815 12.736 12.452 12.4065 12.452 12C12.452 11.5935 12.7815 11.264 13.188 11.264H15.969C16.3755 11.264 16.705 11.5935 16.705 12C16.705 12.4065 16.3755 12.736 15.969 12.736Z" fill="#42526E"/>
</svg>
