<svg width="24" height="24" viewBox="0 0 24 24" fill="none" xmlns="http://www.w3.org/2000/svg">
<path fill-rule="evenodd" clip-rule="evenodd" d="M17.542 6.141H6.458C5.65261 6.14155 5 6.79461 5 7.6V16.4C5 17.2054 5.65261 17.8584 6.458 17.859H17.542C18.3474 17.8584 19 17.2054 19 16.4V7.6C19 6.79461 18.3474 6.14155 17.542 6.141ZM16.33 15.385H7.73C7.51046 15.3847 7.31329 15.2506 7.2324 15.0465C7.15151 14.8424 7.20326 14.6096 7.363 14.459L10.517 10.28C10.7232 10.0868 11.0438 10.0868 11.25 10.28L13.044 12.615C13.2554 12.8115 13.5847 12.8049 13.788 12.6L14.155 12.233C14.3634 12.0253 14.7006 12.0253 14.909 12.233L16.709 14.468C16.8648 14.6207 16.9122 14.8528 16.8289 15.0544C16.7456 15.256 16.5482 15.3868 16.33 15.385Z" fill="#42526E"/>
</svg>
