<svg width="24" height="24" viewBox="0 0 24 24" fill="none" xmlns="http://www.w3.org/2000/svg">
<path fill-rule="evenodd" clip-rule="evenodd" d="M17.245 17.791H6.756C5.79028 17.7943 5.00441 17.0147 5 16.049V13C5.00004 12.9063 5.01489 12.8131 5.044 12.724L6.657 7.219C6.8724 6.62101 7.43548 6.21881 8.071 6.209H15.929C16.5652 6.21826 17.129 6.6211 17.344 7.22L18.956 12.728C18.9848 12.8158 18.9996 12.9076 19 13V16.045C18.9956 17.0107 18.2097 17.7903 17.244 17.787L17.245 17.791ZM15.438 7.959H8.62C8.40417 7.95917 8.21488 8.10308 8.157 8.311L7.195 11.752C7.17126 11.8414 7.19005 11.9367 7.24594 12.0103C7.30182 12.084 7.38855 12.1278 7.481 12.129H9.524C9.62978 12.131 9.73439 12.1517 9.833 12.19C9.86279 12.2031 9.89183 12.2177 9.92 12.234C9.9831 12.2662 10.0419 12.3061 10.095 12.353C10.1221 12.3747 10.1472 12.3988 10.17 12.425C10.2182 12.4799 10.2592 12.5407 10.292 12.606C10.308 12.632 10.322 12.658 10.336 12.686C10.336 12.695 10.347 12.704 10.35 12.713C10.5981 13.4114 11.2589 13.8779 12 13.8779C12.7411 13.8779 13.4019 13.4114 13.65 12.713C13.65 12.704 13.66 12.695 13.665 12.686C13.6778 12.6585 13.6921 12.6318 13.708 12.606C13.7408 12.5405 13.7822 12.4796 13.831 12.425C13.8518 12.399 13.8749 12.3749 13.9 12.353C13.9528 12.306 14.0117 12.2663 14.075 12.235L14.163 12.191C14.2611 12.1522 14.3655 12.1315 14.471 12.13H16.514C16.6069 12.1292 16.6941 12.0854 16.7503 12.0114C16.8064 11.9375 16.8251 11.8417 16.801 11.752L15.824 8.252C15.7738 8.08003 15.6171 7.96108 15.438 7.959Z" fill="#42526E"/>
</svg>
