<svg width="24" height="24" viewBox="0 0 24 24" fill="none" xmlns="http://www.w3.org/2000/svg">
<path fill-rule="evenodd" clip-rule="evenodd" d="M13.271 6.70922L18.8 15.9562C18.9937 16.2832 19.0461 16.6749 18.9452 17.0414C18.8443 17.4078 18.5988 17.7175 18.265 17.8992C18.0399 18.0245 17.7866 18.0903 17.529 18.0902H6.469C5.67112 18.103 5.01369 17.4671 5 16.6692C5.00077 16.4178 5.0699 16.1714 5.2 15.9562L10.729 6.70922C11.1519 6.02776 12.0361 5.79956 12.736 6.19122C12.9563 6.31448 13.1407 6.49301 13.271 6.70922ZM12 16.8002C12.6036 16.8002 13.093 16.3109 13.093 15.7072C13.093 15.1036 12.6036 14.6142 12 14.6142C11.3964 14.6142 10.907 15.1036 10.907 15.7072C10.907 16.3109 11.3964 16.8002 12 16.8002ZM12 8.94522C11.9465 8.94557 11.8931 8.9489 11.84 8.95522C11.1356 9.04362 10.6358 9.68569 10.723 10.3902L11.181 12.9052C11.2312 13.3194 11.5828 13.6309 12 13.6309C12.4172 13.6309 12.7688 13.3194 12.819 12.9052L13.277 10.3902C13.2833 10.3371 13.2867 10.2837 13.287 10.2302C13.2859 9.52021 12.71 8.94522 12 8.94522Z" fill="#42526E"/>
</svg>
