<svg width="24" height="24" viewBox="0 0 24 24" fill="none" xmlns="http://www.w3.org/2000/svg">
<path fill-rule="evenodd" clip-rule="evenodd" d="M14.029 7.188C14.029 8.3964 13.0494 9.376 11.841 9.376C10.6326 9.376 9.653 8.3964 9.653 7.188C9.653 5.9796 10.6326 5 11.841 5C13.0494 5 14.029 5.9796 14.029 7.188ZM13.7 16.594C13.7006 16.9565 13.9945 17.25 14.357 17.25C14.7189 17.2506 15.012 17.5441 15.012 17.906V18.344C15.012 18.518 14.9429 18.6848 14.8199 18.8079C14.6968 18.9309 14.53 19 14.356 19H9.656C9.29564 19 9.00275 18.7093 9 18.349V17.911C9 17.5487 9.2937 17.255 9.656 17.255C10.0183 17.255 10.312 16.9613 10.312 16.599V13.344C10.312 12.9817 10.0183 12.688 9.656 12.688C9.2937 12.688 9 12.3943 9 12.032V11.594C9 11.2317 9.2937 10.938 9.656 10.938H13.044C13.4063 10.938 13.7 11.2317 13.7 11.594V16.594Z" fill="#42526E"/>
</svg>
