<svg width="24" height="24" viewBox="0 0 24 24" fill="none" xmlns="http://www.w3.org/2000/svg">
<path fill-rule="evenodd" clip-rule="evenodd" d="M18.7869 7.91567C18.8864 8.31063 18.9414 8.71548 18.9509 9.12267C18.9649 9.70785 18.976 10.2934 18.9856 10.8055L18.9856 10.8062C18.9918 11.133 18.9974 11.4299 19.0029 11.6777C18.9991 12.0492 18.9964 12.3817 18.9938 12.6888V12.6889L18.9938 12.6893C18.9891 13.2729 18.985 13.7643 18.9759 14.2557C18.9754 14.7102 18.9443 15.1643 18.8829 15.6147C18.7098 17.1962 17.5398 18.4872 15.9829 18.8147C15.5251 18.9119 15.0588 18.9635 14.5909 18.9687C13.3126 19.01 12.0342 19.0009 10.7565 18.9919L10.7562 18.9918L10.7559 18.9918C10.5495 18.9904 10.3432 18.9889 10.1369 18.9877C9.68087 18.9857 9.22387 18.9637 8.76987 18.9297C8.10875 18.8955 7.46485 18.7068 6.88987 18.3787C6.12385 17.932 5.553 17.2145 5.28987 16.3677C5.15707 15.9459 5.07779 15.5092 5.05387 15.0677C4.99763 14.1748 4.99904 13.2796 5.00044 12.3861C5.00065 12.2469 5.00087 12.1078 5.00087 11.9687C5.00087 11.2253 5.00721 10.4827 5.01987 9.74067C5.01935 9.28606 5.05042 8.83197 5.11287 8.38167C5.21421 7.57698 5.56535 6.82433 6.11687 6.22967C6.65714 5.67515 7.35576 5.30139 8.11687 5.15967C8.46352 5.09219 8.81494 5.05207 9.16787 5.03967C9.97365 4.99821 10.7779 4.99927 11.582 5.00033C11.709 5.0005 11.8359 5.00067 11.9629 5.00067C12.7509 5.00067 13.5389 5.00067 14.3309 5.01867C14.732 5.02559 15.1325 5.05295 15.5309 5.10067C16.3134 5.18124 17.0522 5.5007 17.6469 6.01567C18.2142 6.51587 18.6125 7.17969 18.7869 7.91567ZM8.40387 11.9973C8.40259 13.9809 10.0093 15.59 11.9929 15.5917C12.9461 15.5933 13.8608 15.2156 14.5353 14.5419C15.2097 13.8682 15.5884 12.9539 15.5879 12.0007C15.5884 10.0171 13.9811 8.40859 11.9975 8.40767C10.014 8.40675 8.40516 10.0138 8.40387 11.9973ZM16.0819 9.19167C15.5912 9.19329 15.148 8.89891 14.9592 8.44603C14.7704 7.99314 14.8733 7.47111 15.2198 7.12373C15.5663 6.77635 16.0881 6.67216 16.5415 6.85984C16.9948 7.04751 17.2903 7.49001 17.2899 7.98067C17.285 8.64562 16.7468 9.18331 16.0819 9.18767V9.19167ZM10.2541 11.2736C10.5476 10.5691 11.2368 10.111 12 10.113C13.0396 10.1169 13.8805 10.9604 13.881 12C13.8806 12.7632 13.4203 13.4509 12.7149 13.7422C12.0095 14.0335 11.1981 13.871 10.6593 13.3305C10.1205 12.79 9.96055 11.978 10.2541 11.2736Z" fill="#42526E"/>
</svg>
