<svg width="24" height="24" viewBox="0 0 24 24" fill="none" xmlns="http://www.w3.org/2000/svg">
<path fill-rule="evenodd" clip-rule="evenodd" d="M16.589 6C16.5835 5.4461 16.1329 4.99997 15.579 5H11.079C10.5251 4.99997 10.0745 5.4461 10.069 6V6.463C10.069 7.02081 10.5212 7.473 11.079 7.473H12.145L9.574 16.526H8.421C7.86707 16.526 7.41648 16.9721 7.411 17.526V17.989C7.41073 18.257 7.51702 18.5142 7.70646 18.7038C7.8959 18.8935 8.15295 19 8.421 19H12.993C13.5496 18.9983 14 18.5466 14 17.99V17.527C13.9945 16.9731 13.5439 16.527 12.99 16.527H11.861L14.432 7.474H15.579C16.1368 7.474 16.589 7.02181 16.589 6.464V6Z" fill="#42526E"/>
</svg>
