<svg width="24" height="24" viewBox="0 0 24 24" fill="none" xmlns="http://www.w3.org/2000/svg">
<path fill-rule="evenodd" clip-rule="evenodd" d="M16.844 5.556L14.14 5.015C13.8892 4.96477 13.6299 5.0432 13.449 5.224L8.837 9.843C7.53202 9.76496 6.25667 10.2529 5.337 11.182C3.57263 12.9672 3.56814 15.8382 5.32691 17.629C7.08568 19.4197 9.95628 19.4669 11.773 17.735L11.828 17.681C12.7558 16.6455 13.2264 15.2793 13.133 13.892C13.133 13.282 13.133 12.842 13.133 12.525L14.407 12.582C14.6217 12.5919 14.8306 12.5105 14.982 12.358L15.709 11.631C15.852 11.4869 15.9321 11.292 15.932 11.089V9.875H17.145C17.3481 9.87477 17.5427 9.79382 17.686 9.65L17.779 9.557C17.96 9.37578 18.0384 9.1161 17.988 8.865L17.447 6.157C17.3863 5.853 17.1482 5.61565 16.844 5.556ZM9.974 15.989C9.16927 16.7928 7.86539 16.7923 7.0613 15.9879C6.2572 15.1834 6.2572 13.8796 7.0613 13.0751C7.86539 12.2707 9.16927 12.2702 9.974 13.074C10.3618 13.4599 10.5799 13.9844 10.5799 14.5315C10.5799 15.0786 10.3618 15.6031 9.974 15.989Z" fill="#42526E"/>
</svg>
