<svg width="24" height="24" viewBox="0 0 24 24" fill="none" xmlns="http://www.w3.org/2000/svg">
<path fill-rule="evenodd" clip-rule="evenodd" d="M18.677 16.386L14.8 10.147C14.6929 9.96934 14.6247 9.77097 14.6 9.565V9.55C14.5882 9.49019 14.5799 9.42976 14.575 9.369V6.208C14.575 5.54201 14.036 5.00165 13.37 5H10.624C10.3029 4.99973 9.99495 5.1273 9.76811 5.35452C9.54126 5.58174 9.4142 5.88993 9.415 6.211L9.421 9.366C9.42184 9.64202 9.3449 9.91269 9.199 10.147L5.323 16.386C5.11401 16.6471 5.0001 16.9716 5 17.306V17.526C5 18.3401 5.65993 19 6.474 19H17.526C18.3401 19 19 18.3401 19 17.526V17.306C18.9999 16.9716 18.886 16.6471 18.677 16.386ZM8.867 13.474L10.451 10.924C10.7429 10.4578 10.8984 9.91909 10.9 9.369V7.211C10.9 6.80397 11.23 6.474 11.637 6.474H12.373C12.78 6.474 13.11 6.80397 13.11 7.211V9.369C13.1101 9.9186 13.2638 10.4572 13.554 10.924L16.612 15.844L8.867 13.474Z" fill="#42526E"/>
</svg>
