<svg width="24" height="24" viewBox="0 0 24 24" fill="none" xmlns="http://www.w3.org/2000/svg">
<path fill-rule="evenodd" clip-rule="evenodd" d="M17.3513 7.28615C17.5363 7.47015 17.6405 7.72012 17.641 7.981V14.281H6.369V7.981C6.36953 7.72012 6.47374 7.47015 6.65868 7.28615C6.84362 7.10215 7.09412 6.99921 7.355 7H16.655C16.9159 6.99921 17.1664 7.10215 17.3513 7.28615ZM13.727 15.773H18.422C18.575 15.7727 18.7219 15.8333 18.8303 15.9413C18.9387 16.0493 18.9997 16.196 19 16.349C18.9992 16.6548 18.877 16.9478 18.6602 17.1634C18.4434 17.3791 18.1498 17.4998 17.844 17.499H6.156C5.85021 17.4998 5.55662 17.3791 5.33983 17.1634C5.12303 16.9478 5.00079 16.6548 5 16.349C5.00026 16.196 5.06131 16.0493 5.16971 15.9413C5.2781 15.8333 5.42497 15.7727 5.578 15.773H10.273C10.5689 15.8036 10.8261 15.9896 10.948 16.261C11.0372 16.4382 11.2186 16.55 11.417 16.55H12.583C12.7814 16.55 12.9628 16.4382 13.052 16.261C13.1739 15.9896 13.4311 15.8036 13.727 15.773Z" fill="#42526E"/>
</svg>
