<svg width="24" height="24" viewBox="0 0 24 24" fill="none" xmlns="http://www.w3.org/2000/svg">
<path fill-rule="evenodd" clip-rule="evenodd" d="M5.38498 7.851V7.863L11.285 10.554H11.291C11.646 10.7193 12.0559 10.7193 12.411 10.554H12.417L18.317 7.863V7.851C18.5398 7.77737 18.6931 7.57257 18.701 7.338C18.6934 7.10152 18.5375 6.89554 18.312 6.824L12.42 4.124H12.409C12.0547 3.95867 11.6453 3.95867 11.291 4.124H11.28L5.38998 6.824C5.16446 6.89554 5.00857 7.10152 5.00098 7.338C5.00883 7.57257 5.16213 7.77737 5.38498 7.851ZM18.31 10.485L17.157 9.956C15.35 10.783 12.88 11.909 12.85 11.919C12.2078 12.1743 11.4922 12.1743 10.85 11.919C10.822 11.91 8.35598 10.785 6.54998 9.957L5.38998 10.485C5.16033 10.5493 5.00117 10.7581 5.00001 10.9966C4.99885 11.2351 5.15597 11.4454 5.38498 11.512V11.523L11.285 14.215H11.291C11.646 14.3803 12.0559 14.3803 12.411 14.215H12.417L18.317 11.523V11.512C18.5463 11.4466 18.7044 11.237 18.7044 10.9985C18.7044 10.76 18.5463 10.5504 18.317 10.485H18.31ZM17.157 13.619L18.31 14.148H18.317C18.5459 14.2141 18.7036 14.4237 18.7036 14.662C18.7036 14.9003 18.5459 15.1099 18.317 15.176V15.187L12.417 17.878H12.411C12.0559 18.0433 11.646 18.0433 11.291 17.878H11.285L5.38498 15.187V15.176C5.15634 15.1088 4.99973 14.8984 5.00089 14.6601C5.00205 14.4218 5.1607 14.213 5.38998 14.148L6.54998 13.62C8.35598 14.448 10.822 15.573 10.85 15.582C11.492 15.8386 12.208 15.8386 12.85 15.582C12.88 15.573 15.35 14.447 17.157 13.619Z" fill="#42526E"/>
</svg>
