<svg width="24" height="24" viewBox="0 0 24 24" fill="none" xmlns="http://www.w3.org/2000/svg">
<path fill-rule="evenodd" clip-rule="evenodd" d="M19 10.103C19 10.3775 18.7775 10.6 18.503 10.6H13.897C13.6225 10.6 13.4 10.3775 13.4 10.103V5.497C13.4 5.22251 13.6225 5 13.897 5H18.503C18.7775 5 19 5.22251 19 5.497V10.103ZM19 18.503C19 18.7775 18.7775 19 18.503 19H5.497C5.22251 19 5 18.7775 5 18.503V13.897C5 13.6225 5.22251 13.4 5.497 13.4H18.503C18.7775 13.4 19 13.6225 19 13.897V18.503ZM10.103 10.6C10.3775 10.6 10.6 10.3775 10.6 10.103V5.497C10.6 5.22251 10.3775 5 10.103 5H5.497C5.22251 5 5 5.22251 5 5.497V10.103C5 10.3775 5.22251 10.6 5.497 10.6H10.103Z" fill="#42526E"/>
</svg>
