<svg width="24" height="24" viewBox="0 0 24 24" fill="none" xmlns="http://www.w3.org/2000/svg">
<path fill-rule="evenodd" clip-rule="evenodd" d="M18.505 5.011H5.5V5.006C5.22386 5.006 5 5.22985 5 5.506V10.1C5 10.3761 5.22386 10.6 5.5 10.6H18.505C18.7811 10.6 19.005 10.3761 19.005 10.1V5.511C19.005 5.23485 18.7811 5.011 18.505 5.011ZM10.1 13.406H5.5C5.22618 13.406 5.00329 13.6262 5 13.9V18.496C5 18.7721 5.22386 18.996 5.5 18.996H10.1C10.3761 18.996 10.6 18.7721 10.6 18.496V13.906C10.6 13.6299 10.3761 13.406 10.1 13.406ZM18 13.286H13C12.6253 13.2569 12.266 13.4403 12.0698 13.7608C11.8735 14.0813 11.8735 14.4847 12.0698 14.8052C12.266 15.1257 12.6253 15.3091 13 15.28H18C18.3747 15.3091 18.734 15.1257 18.9302 14.8052C19.1265 14.4847 19.1265 14.0813 18.9302 13.7608C18.734 13.4403 18.3747 13.2569 18 13.286ZM13 16.974H18C18.3747 16.9449 18.734 17.1283 18.9302 17.4488C19.1265 17.7693 19.1265 18.1727 18.9302 18.4932C18.734 18.8137 18.3747 18.9971 18 18.968H13C12.6253 18.9971 12.266 18.8137 12.0698 18.4932C11.8735 18.1727 11.8735 17.7693 12.0698 17.4488C12.266 17.1283 12.6253 16.9449 13 16.974Z" fill="#42526E"/>
</svg>
