<svg width="24" height="24" viewBox="0 0 24 24" fill="none" xmlns="http://www.w3.org/2000/svg">
<path fill-rule="evenodd" clip-rule="evenodd" d="M13 7H18C18.5523 7 19 6.55228 19 6C19 5.44772 18.5523 5 18 5H13C12.4477 5 12 5.44772 12 6C12 6.55228 12.4477 7 13 7ZM5.497 5.003C5.22251 5.003 5 5.22551 5 5.5V10.106C5 10.3805 5.22251 10.603 5.497 10.603H10.103C10.3775 10.603 10.6 10.3805 10.6 10.106V5.5C10.6 5.22551 10.3775 5.003 10.103 5.003H5.497ZM5.497 13.304C5.22251 13.304 5 13.5265 5 13.801V18.407C5 18.6815 5.22251 18.904 5.497 18.904H10.103C10.3775 18.904 10.6 18.6815 10.6 18.407V13.801C10.6 13.5265 10.3775 13.304 10.103 13.304H5.497ZM18 13.3H13C12.4477 13.3 12 13.7477 12 14.3C12 14.8523 12.4477 15.3 13 15.3H18C18.5523 15.3 19 14.8523 19 14.3C19 13.7477 18.5523 13.3 18 13.3ZM13 8.5H18C18.5523 8.5 19 8.94772 19 9.5C19 10.0523 18.5523 10.5 18 10.5H13C12.4477 10.5 12 10.0523 12 9.5C12 8.94772 12.4477 8.5 13 8.5ZM13 17H18C18.5523 17 19 17.4477 19 18C19 18.5523 18.5523 19 18 19H13C12.4477 19 12 18.5523 12 18C12 17.4477 12.4477 17 13 17Z" fill="#42526E"/>
</svg>
