<svg width="24" height="24" viewBox="0 0 24 24" fill="none" xmlns="http://www.w3.org/2000/svg">
<path fill-rule="evenodd" clip-rule="evenodd" d="M5.497 19C5.22251 19 5 18.7775 5 18.503V5.497C5 5.22251 5.22251 5 5.497 5H10.103C10.3775 5 10.6 5.22251 10.6 5.497V18.503C10.6 18.7775 10.3775 19 10.103 19H5.497ZM13.897 19C13.6225 19 13.4 18.7775 13.4 18.503V13.897C13.4 13.6225 13.6225 13.4 13.897 13.4H18.503C18.7775 13.4 19 13.6225 19 13.897V18.503C19 18.7775 18.7775 19 18.503 19H13.897ZM13.4 10.103C13.4 10.3775 13.6225 10.6 13.897 10.6H18.503C18.7775 10.6 19 10.3775 19 10.103V5.497C19 5.22251 18.7775 5 18.503 5H13.897C13.6225 5 13.4 5.22251 13.4 5.497V10.103Z" fill="#42526E"/>
</svg>
