<svg width="24" height="24" viewBox="0 0 24 24" fill="none" xmlns="http://www.w3.org/2000/svg">
<path fill-rule="evenodd" clip-rule="evenodd" d="M17.2513 17.832H6.75132C5.76637 17.8139 4.98248 17.001 5.00032 16.016V14.143C4.98192 13.1575 5.76581 12.3436 6.75132 12.325H17.2513C18.236 12.3447 19.0187 13.1583 19.0003 14.143V16.016C19.0193 17.001 18.2363 17.8149 17.2513 17.834V17.832ZM17.2513 10.508H6.75132C5.76605 10.4888 4.98247 9.67529 5.00032 8.69V6.816C4.98304 5.83126 5.7666 5.01861 6.75132 5H17.2513C18.2352 5.0197 19.0176 5.83203 19.0003 6.816V8.69C19.0187 9.67475 18.236 10.4883 17.2513 10.508ZM17.2513 6.818H6.75132V8.69H17.2513V6.816V6.818Z" fill="#42526E"/>
</svg>
