<svg width="24" height="24" viewBox="0 0 24 24" fill="none" xmlns="http://www.w3.org/2000/svg">
<path fill-rule="evenodd" clip-rule="evenodd" d="M10.103 12.091C10.3775 12.091 10.6 11.8685 10.6 11.594V5.497C10.6 5.22251 10.3775 5 10.103 5H5.497C5.22251 5 5 5.22251 5 5.497V11.594C5 11.8685 5.22251 12.091 5.497 12.091H10.103ZM10.103 19C10.3775 19 10.6 18.7775 10.6 18.503V15.388C10.6 15.1135 10.3775 14.891 10.103 14.891H5.497C5.22251 14.891 5 15.1135 5 15.388V18.503C5 18.7775 5.22251 19 5.497 19H10.103ZM13.4 5.497C13.4 5.22251 13.6225 5 13.897 5H18.503C18.7775 5 19 5.22251 19 5.497V8.612C19 8.88649 18.7775 9.109 18.503 9.109H13.897C13.6225 9.109 13.4 8.88649 13.4 8.612V5.497ZM13.897 11.909C13.6225 11.909 13.4 12.1315 13.4 12.406V18.503C13.4 18.7775 13.6225 19 13.897 19H18.503C18.7775 19 19 18.7775 19 18.503V12.406C19 12.1315 18.7775 11.909 18.503 11.909H13.897Z" fill="#42526E"/>
</svg>
