<svg width="24" height="24" viewBox="0 0 24 24" fill="none" xmlns="http://www.w3.org/2000/svg">
<path fill-rule="evenodd" clip-rule="evenodd" d="M5.497 5C5.22251 5 5 5.22251 5 5.497V10.103C5 10.3775 5.22251 10.6 5.497 10.6H18.503C18.7775 10.6 19 10.3775 19 10.103V5.497C19 5.22251 18.7775 5 18.503 5H5.497ZM5.497 13.4C5.22251 13.4 5 13.6225 5 13.897V18.503C5 18.7775 5.22251 19 5.497 19H18.503C18.7775 19 19 18.7775 19 18.503V13.897C19 13.6225 18.7775 13.4 18.503 13.4H5.497Z" fill="#42526E"/>
</svg>
