<svg width="24" height="24" viewBox="0 0 24 24" fill="none" xmlns="http://www.w3.org/2000/svg">
<path fill-rule="evenodd" clip-rule="evenodd" d="M10.102 5C10.3765 5 10.599 5.22251 10.599 5.497V10.103C10.599 10.3775 10.3765 10.6 10.102 10.6H5.49599C5.22151 10.6 4.99899 10.3775 4.99899 10.103V5.497C4.99899 5.22251 5.22151 5 5.49599 5H10.102ZM18.502 5C18.7765 5 18.999 5.22251 18.999 5.497V18.503C18.999 18.7775 18.7765 19 18.502 19H13.896C13.6215 19 13.399 18.7775 13.399 18.503V5.497C13.399 5.22251 13.6215 5 13.896 5H18.502ZM10.599 13.897C10.599 13.6225 10.3765 13.4 10.102 13.4H5.49599C5.22151 13.4 4.99899 13.6225 4.99899 13.897V18.503C4.99899 18.7775 5.22151 19 5.49599 19H10.102C10.3765 19 10.599 18.7775 10.599 18.503V13.897Z" fill="#42526E"/>
</svg>
