<svg width="24" height="24" viewBox="0 0 24 24" fill="none" xmlns="http://www.w3.org/2000/svg">
<path fill-rule="evenodd" clip-rule="evenodd" d="M12 9.17C13.563 9.17 14.83 10.437 14.83 12C14.83 13.563 13.563 14.83 12 14.83C10.437 14.83 9.17 13.563 9.17 12C9.17 10.437 10.437 9.17 12 9.17ZM12 5C12.4832 5 12.875 5.39175 12.875 5.875V6.75C12.875 7.23325 12.4832 7.625 12 7.625C11.5168 7.625 11.125 7.23325 11.125 6.75V5.875C11.125 5.39175 11.5168 5 12 5ZM12 16.375C12.4832 16.375 12.875 16.7668 12.875 17.25V18.125C12.875 18.6082 12.4832 19 12 19C11.5168 19 11.125 18.6082 11.125 18.125V17.25C11.125 16.7668 11.5168 16.375 12 16.375ZM5.875 11.125H6.75C7.23325 11.125 7.625 11.5168 7.625 12C7.625 12.4832 7.23325 12.875 6.75 12.875H5.875C5.39175 12.875 5 12.4832 5 12C5 11.5168 5.39175 11.125 5.875 11.125ZM17.25 11.125H18.125C18.6082 11.125 19 11.5168 19 12C19 12.4832 18.6082 12.875 18.125 12.875H17.25C16.7668 12.875 16.375 12.4832 16.375 12C16.375 11.5168 16.7668 11.125 17.25 11.125ZM7.05 7.048C7.21395 6.88379 7.43646 6.79152 7.6685 6.79152C7.90054 6.79152 8.12305 6.88379 8.287 7.048L8.906 7.669C9.15417 7.88375 9.26131 8.21932 9.18349 8.53814C9.10567 8.85697 8.85599 9.10545 8.53678 9.18171C8.21758 9.25798 7.88254 9.14921 7.669 8.9L7.05 8.29C6.7091 7.94618 6.7091 7.39182 7.05 7.048ZM15.094 15.098C15.2579 14.9338 15.4805 14.8415 15.7125 14.8415C15.9445 14.8415 16.1671 14.9338 16.331 15.098L16.95 15.71C17.2814 16.0536 17.2771 16.5991 16.9404 16.9374C16.6037 17.2758 16.0582 17.2827 15.713 16.953L15.094 16.331C14.93 16.1677 14.8379 15.9459 14.8379 15.7145C14.8379 15.4831 14.93 15.2613 15.094 15.098ZM7.05 15.71L7.669 15.098C7.88403 14.8533 8.21716 14.7484 8.5336 14.8256C8.85004 14.9028 9.09742 15.1493 9.17563 15.4655C9.25385 15.7817 9.14996 16.1152 8.906 16.331L8.287 16.953C8.06652 17.1816 7.73966 17.2732 7.4325 17.1923C7.12535 17.1115 6.88591 16.8709 6.80655 16.5633C6.72719 16.2558 6.82031 15.9294 7.05 15.71ZM15.094 7.669L15.713 7.048C16.056 6.70641 16.6109 6.70753 16.9525 7.0505C17.2941 7.39347 17.293 7.94841 16.95 8.29L16.331 8.902C16.116 9.14666 15.7828 9.25163 15.4664 9.17443C15.15 9.09724 14.9026 8.85067 14.8244 8.53448C14.7462 8.21829 14.85 7.88482 15.094 7.669Z" fill="#42526E"/>
</svg>
