<svg width="24" height="24" viewBox="0 0 24 24" fill="none" xmlns="http://www.w3.org/2000/svg">
<path fill-rule="evenodd" clip-rule="evenodd" d="M16.075 18.413C17.1204 18.4319 18.0371 17.7182 18.275 16.7L18.965 11.796C19.0977 11.2362 18.8556 10.6545 18.365 10.354C18.1944 10.2449 17.9955 10.1885 17.793 10.192H13.85L15.007 7.974C15.1188 7.75225 15.1771 7.50736 15.177 7.259C15.1378 6.84388 14.974 6.45032 14.707 6.13C14.0505 5.1399 13.5202 5.71643 13.0924 6.18151C13.0842 6.19039 13.0761 6.19922 13.068 6.208L10.157 9.945C9.81704 10.3116 9.6281 10.793 9.628 11.293V13.716C9.628 15.629 10.048 17.909 12.548 18.261L16.075 18.413ZM7.9 17.422H6.5C5.67239 17.4182 5.00274 16.7476 5 15.92L5.323 12.548C5.32683 11.7212 5.99617 11.0518 6.823 11.048H8.223C8.40116 11.0486 8.54545 11.1928 8.546 11.371L8.223 17.099C8.22191 17.2769 8.07793 17.4209 7.9 17.422Z" fill="#42526E"/>
</svg>
