<svg width="24" height="24" viewBox="0 0 24 24" fill="none" xmlns="http://www.w3.org/2000/svg">
<path fill-rule="evenodd" clip-rule="evenodd" d="M14.5925 4.99994C15.7614 4.99994 16.8825 5.46436 17.709 6.291C18.5356 7.1175 19.0001 8.23855 19.0001 9.4075C19.0001 10.5764 18.5356 11.6975 17.709 12.524L16.79 13.444C16.3968 13.8367 15.7597 13.8362 15.367 13.443C14.9743 13.0498 14.9748 12.4127 15.368 12.02L16.288 11.1C17.1422 10.1509 17.1037 8.69916 16.2004 7.79667C15.2971 6.89419 13.8453 6.85697 12.897 7.712L11.977 8.632C11.5843 9.0244 10.9479 9.02417 10.5555 8.6315C10.1631 8.23883 10.1633 7.6024 10.556 7.21L11.476 6.291C12.3025 5.46436 13.4236 4.99994 14.5925 4.99994ZM12.711 9.868L9.868 12.711C9.47561 13.1034 9.47561 13.7396 9.868 14.132C10.2604 14.5244 10.8966 14.5244 11.289 14.132L14.132 11.289C14.5244 10.8966 14.5244 10.2604 14.132 9.868C13.7396 9.4756 13.1034 9.4756 12.711 9.868ZM12.023 15.368L11.103 16.288C10.1547 17.143 8.70289 17.1058 7.7996 16.2033C6.89631 15.3008 6.85782 13.8491 7.712 12.9L8.632 11.98C9.02523 11.5873 9.02568 10.9502 8.633 10.557C8.24033 10.1638 7.60323 10.1633 7.21 10.556L6.291 11.476C4.56981 13.1972 4.56981 15.9878 6.291 17.709C8.0122 19.4302 10.8028 19.4302 12.524 17.709L13.444 16.79C13.8367 16.3976 13.8369 15.7612 13.4445 15.3685C13.0521 14.9758 12.4157 14.9756 12.023 15.368Z" fill="#42526E"/>
</svg>
