<svg width="24" height="24" viewBox="0 0 24 24" fill="none" xmlns="http://www.w3.org/2000/svg">
<path fill-rule="evenodd" clip-rule="evenodd" d="M8.044 6.74301C8.044 7.58966 7.35765 8.27601 6.511 8.27601C5.66434 8.27601 4.978 7.58966 4.978 6.74301C4.978 5.89635 5.66434 5.21001 6.511 5.21001C7.35765 5.21001 8.044 5.89635 8.044 6.74301ZM12.856 9.83401V11.084C12.8811 11.0506 12.905 11.0183 12.9282 10.987C12.9855 10.9096 13.0387 10.8378 13.095 10.768C13.7373 9.94988 14.7528 9.51622 15.788 9.61801C16.3323 9.6365 16.8635 9.78975 17.334 10.064C18.0832 10.521 18.6129 11.2646 18.8 12.122C18.9169 12.5893 18.975 13.0693 18.973 13.551V18.7V18.79H16V18.7V13.9C16.0063 13.5454 15.9477 13.1926 15.827 12.859C15.648 12.3346 15.1562 11.9813 14.602 11.979C14.1481 11.9611 13.7064 12.1284 13.3783 12.4426C13.0502 12.7567 12.8638 13.1907 12.862 13.645C12.8673 14.0785 12.8656 14.512 12.8638 14.9449V14.945C12.8629 15.1611 12.862 15.3772 12.862 15.593V18.698V18.792H9.883V9.83401H12.856ZM5.026 9.83201H8V18.79H5.026V9.83201Z" fill="#42526E"/>
</svg>
