<svg width="24" height="24" viewBox="0 0 24 24" fill="none" xmlns="http://www.w3.org/2000/svg">
<path fill-rule="evenodd" clip-rule="evenodd" d="M13.039 12.129V11.871L16.916 7.219C17.252 6.81561 17.3244 6.25422 17.1016 5.77881C16.8788 5.30341 16.401 4.99982 15.876 5H8.12399C7.59896 4.99982 7.12123 5.30341 6.89842 5.77881C6.67561 6.25422 6.74794 6.81561 7.08399 7.219L10.961 11.871V12.129L7.08399 16.781C6.74794 17.1844 6.67561 17.7458 6.89842 18.2212C7.12123 18.6966 7.59896 19.0002 8.12399 19H15.876C16.401 19.0002 16.8788 18.6966 17.1016 18.2212C17.3244 17.7458 17.252 17.1844 16.916 16.781L13.039 12.129Z" fill="#42526E"/>
</svg>
