<svg width="24" height="24" viewBox="0 0 24 24" fill="none" xmlns="http://www.w3.org/2000/svg">
<path fill-rule="evenodd" clip-rule="evenodd" d="M10.209 9.363V10H10.237L6.93601 13.3V11.634C6.94971 10.9549 7.38513 10.3562 8.02701 10.134V9.363C8.02976 6.95452 9.98153 5.00276 12.39 5C13.1733 5.00376 13.9408 5.22086 14.61 5.628L12.968 7.269C12.7802 7.21395 12.5857 7.18468 12.39 7.182C11.1862 7.18365 10.2107 8.15915 10.209 9.363ZM17.472 5.261C17.8228 4.91337 18.3882 4.91337 18.739 5.261C19.0866 5.6118 19.0866 6.1772 18.739 6.528L16.677 8.59C16.7262 8.84475 16.7517 9.10353 16.753 9.363V10.137C17.3952 10.3587 17.8309 10.9577 17.844 11.637V17.364C17.8234 17.8233 17.6194 18.2551 17.2776 18.5627C16.9358 18.8703 16.4849 19.0278 16.026 19H8.75401C8.09889 19.0176 7.48466 18.6825 7.14501 18.122L6.52801 18.739C6.17026 19.0342 5.64673 19.0092 5.31875 18.6813C4.99077 18.3533 4.96577 17.8297 5.26101 17.472L17.472 5.261Z" fill="#42526E"/>
</svg>
