<svg width="24" height="24" viewBox="0 0 24 24" fill="none" xmlns="http://www.w3.org/2000/svg">
<path fill-rule="evenodd" clip-rule="evenodd" d="M16.363 10.134V9.363C16.363 6.95338 14.4096 5 12 5C9.59037 5 7.63699 6.95338 7.63699 9.363V10.134C6.99512 10.3562 6.5597 10.9549 6.54599 11.634V17.361C6.5658 17.8208 6.76952 18.2535 7.11137 18.5616C7.45323 18.8698 7.90456 19.0278 8.36399 19H15.636C16.0949 19.0278 16.5458 18.8703 16.8876 18.5627C17.2293 18.2551 17.4334 17.8233 17.454 17.364V11.637C17.4415 10.9568 17.0059 10.3566 16.363 10.134ZM12 7.182C13.2042 7.1831 14.1803 8.15876 14.182 9.363V10H9.81799V9.363C9.81964 8.15876 10.7958 7.1831 12 7.182Z" fill="#42526E"/>
</svg>
