<svg width="178" height="160" viewBox="0 0 178 160" fill="none" xmlns="http://www.w3.org/2000/svg">
<path fill-rule="evenodd" clip-rule="evenodd" d="M89.5163 160C133.699 160 169.516 124.183 169.516 80C169.516 35.8172 133.699 0 89.5163 0C45.3335 0 9.5163 35.8172 9.5163 80C9.5163 124.183 45.3335 160 89.5163 160Z" fill="#EF9F27" fill-opacity="0.2"/>
<path d="M108.432 51.0561H104.463C104.396 50.7035 104.315 50.3583 104.226 50.0145L111.306 46.4753C112.035 46.111 112.329 45.2243 111.966 44.4955C111.6 43.7667 110.718 43.4746 109.986 43.8361L103.232 47.2115C100.656 41.6527 95.037 37.7786 88.5163 37.7786C80.5764 37.7786 73.9628 43.5145 72.5701 51.0561H68.6002C66.5672 51.0561 64.912 52.7098 64.912 54.7442C64.912 55.4671 65.1775 56.1649 65.657 56.7049L70.8131 62.5056V63.5959C70.8131 65.6303 72.4683 67.284 74.5012 67.284H102.531C104.566 67.284 106.22 65.6303 106.22 63.5959V62.5056L111.374 56.7049C111.855 56.1649 112.121 55.4671 112.121 54.7442C112.121 52.7098 110.467 51.0561 108.432 51.0561ZM102.972 51.0561H102.143L102.878 50.6872C102.906 50.8112 102.946 50.9307 102.972 51.0561ZM88.5163 39.2539C94.4602 39.2539 99.5809 42.7945 101.915 47.871L100.6 48.5274C98.5113 43.932 93.8937 40.7292 88.5163 40.7292C82.1992 40.7292 76.9222 45.1447 75.5782 51.0561H74.0616C75.4321 44.3303 81.3922 39.2539 88.5163 39.2539ZM95.2672 51.0561C94.1268 48.4552 91.5333 46.6303 88.5163 46.6303C85.4994 46.6303 82.9073 48.4552 81.7655 51.0561H80.181C81.3996 47.6246 84.6703 45.155 88.5163 45.155C92.1529 45.155 95.2849 47.362 96.6421 50.5058L95.5445 51.0561H95.2672ZM88.5163 49.5808C87.2137 49.5808 86.0526 50.1576 85.2412 51.0561H83.4355C84.4593 49.302 86.3418 48.1055 88.5163 48.1055C90.6894 48.1055 92.5733 49.302 93.5957 51.0561H91.7885C90.98 50.1576 89.819 49.5808 88.5163 49.5808ZM88.5163 43.6797C83.8471 43.6797 79.8978 46.7955 78.6246 51.0561H77.1021C78.4181 45.9752 83.0283 42.2044 88.5163 42.2044C93.305 42.2044 97.4314 45.0783 99.2784 49.1884L97.961 49.8463C96.3559 46.2216 92.7282 43.6797 88.5163 43.6797ZM103.269 61.383V63.5959C103.269 64.003 102.937 64.3335 102.531 64.3335H74.5012C74.0941 64.3335 73.7636 64.003 73.7636 63.5959V61.383L67.8625 54.7442C67.8625 54.3371 68.193 54.0066 68.6002 54.0066H72.2883H73.7636H75.2389H76.7142H78.1894H79.6647H81.14H82.6152H84.0905H92.9421H94.4174H95.8927H97.3679H98.8432H100.318H101.794H103.269H104.744H108.432C108.838 54.0066 109.17 54.3371 109.17 54.7442L103.269 61.383Z" fill="#EF9F27"/>
<path d="M76.6802 37.3537C76.6846 37.3626 76.6876 37.3714 76.692 37.3803H76.6949C76.8174 37.6163 77.0623 37.7786 77.3485 37.7786C77.7571 37.7786 78.0891 37.4452 78.0891 37.0366C78.0891 36.9731 78.0788 36.9112 78.0625 36.8521C78.0655 36.8418 78.0655 36.833 78.0625 36.8226C77.5093 35.5214 78.0345 34.0934 78.6807 32.5562C79.3785 30.895 80.1264 29.0509 79.3032 27.1758C79.1985 26.9059 78.9374 26.7141 78.6305 26.7141C78.2307 26.7141 77.9076 27.0386 77.9076 27.437C77.9076 27.5255 77.9253 27.6081 77.9548 27.6863C77.9548 27.6892 77.9548 27.6922 77.9563 27.6951C77.9578 27.6996 77.9593 27.704 77.9607 27.7084C77.9637 27.7143 77.9652 27.7202 77.9681 27.7261C78.5641 29.0671 77.9873 30.4421 77.3367 31.9941C76.6492 33.6302 75.888 35.4433 76.6536 37.2918C76.6625 37.3139 76.6699 37.3331 76.6802 37.3537Z" fill="#EF9F27"/>
<path d="M94.6446 37.1383C94.6505 37.1472 94.6534 37.156 94.6564 37.1649H94.6593C94.7832 37.4009 95.0281 37.5647 95.3129 37.5647C95.7215 37.5647 96.0564 37.2313 96.0564 36.8226C96.0564 36.7592 96.0446 36.6972 96.0299 36.6382C96.0328 36.6279 96.0328 36.619 96.0269 36.6087C95.4766 35.3075 96.0003 33.8795 96.6465 32.3422C97.3443 30.6811 98.0923 28.837 97.2691 26.9619C97.1629 26.6905 96.9032 26.5002 96.5949 26.5002C96.1966 26.5002 95.872 26.8247 95.872 27.223C95.872 27.3116 95.8927 27.3942 95.9207 27.4724C95.9207 27.4753 95.9207 27.4783 95.9207 27.4812C95.9236 27.4856 95.9236 27.4901 95.9266 27.4945C95.9295 27.5004 95.9325 27.5063 95.9325 27.5122C96.5285 28.8532 95.9531 30.2282 95.3011 31.7801C94.6151 33.4162 93.8553 35.2308 94.621 37.0793C94.6283 37.0985 94.6357 37.1192 94.6446 37.1383Z" fill="#EF9F27"/>
<path d="M87.069 30.715C87.0735 30.7239 87.0764 30.7327 87.0808 30.7416H87.0838C87.2077 30.9776 87.4526 31.1414 87.7373 31.1414C88.146 31.1414 88.4779 30.808 88.4779 30.3993C88.4779 30.3359 88.4676 30.2739 88.4514 30.2149C88.4543 30.2046 88.4543 30.1957 88.4514 30.1854C87.8981 28.8842 88.4233 27.4562 89.0695 25.9189C89.7673 24.2578 90.5153 22.4137 89.6921 20.5386C89.5859 20.2672 89.3262 20.0754 89.0179 20.0754C88.6196 20.0754 88.295 20.3999 88.295 20.7983C88.295 20.8868 88.3127 20.9694 88.3422 21.0476C88.3422 21.0505 88.3422 21.0535 88.3437 21.0564C88.3452 21.0609 88.3466 21.0653 88.3481 21.0697C88.3496 21.0756 88.3525 21.0815 88.354 21.0874C88.95 22.4284 88.3732 23.8034 87.7226 25.3554C87.0351 26.9914 86.2739 28.806 87.041 30.6545C87.0513 30.6752 87.0587 30.6944 87.069 30.715Z" fill="#EF9F27"/>
<path d="M31.4899 88.786H19.107C11.9169 88.786 9.45363 93.3797 9.45363 100.237C9.45363 108.758 16.8434 118.612 30.8907 118.612C34.6855 118.612 36.2833 120.343 36.2833 122.606C36.2833 125.802 33.82 127 29.2264 127C16.1777 127 0 118.212 0 99.7043C0 88.2534 7.12351 80.7971 16.7103 80.7971H31.4899C33.8866 80.7971 35.8173 82.062 35.8173 84.7916C35.8173 87.5211 33.8866 88.786 31.4899 88.786ZM84.6865 103.699C84.6865 118.612 74.434 127 63.0497 127C51.6654 127 41.4129 118.612 41.4129 103.699C41.4129 88.786 51.6654 80.3976 63.0497 80.3976C74.434 80.3976 84.6865 88.786 84.6865 103.699ZM75.2329 103.699C75.2329 94.9109 70.3064 87.9871 63.0497 87.9871C55.793 87.9871 50.8665 94.9109 50.8665 103.699C50.8665 112.487 55.793 119.41 63.0497 119.41C70.3064 119.41 75.2329 112.487 75.2329 103.699ZM133.955 103.699C133.955 118.612 123.703 127 112.318 127C100.934 127 90.6816 118.612 90.6816 103.699C90.6816 88.786 100.934 80.3976 112.318 80.3976C123.703 80.3976 133.955 88.786 133.955 103.699ZM124.502 103.699C124.502 94.9109 119.575 87.9871 112.318 87.9871C105.062 87.9871 100.135 94.9109 100.135 103.699C100.135 112.487 105.062 119.41 112.318 119.41C119.575 119.41 124.502 112.487 124.502 103.699ZM142.147 122.207V85.191C142.147 82.5946 143.479 80.5973 146.342 80.5973C149.204 80.5973 150.536 82.5946 150.536 85.191V94.3783C152.466 94.6446 154.397 94.8444 156.328 95.1107C160.189 93.5794 164.65 90.051 165.848 84.6584C166.447 81.9288 167.779 80.5973 170.242 80.5973C172.572 80.5973 174.236 82.3283 174.236 84.9247C174.236 89.4518 168.777 96.6419 163.984 98.3728C172.239 102.7 177.033 112.953 177.033 121.541C177.033 124.603 175.834 126.8 172.838 126.8C169.909 126.8 168.844 124.736 168.644 121.674C167.845 109.624 161.454 102.168 150.536 101.568V122.207C150.536 124.803 149.204 126.8 146.342 126.8C143.479 126.8 142.147 124.803 142.147 122.207Z" fill="#EF9F27"/>
</svg>
