<svg width="24" height="24" viewBox="0 0 24 24" fill="none" xmlns="http://www.w3.org/2000/svg">
<path fill-rule="evenodd" clip-rule="evenodd" d="M16.5 13.209C15.0217 13.211 13.6161 13.8502 12.643 14.963V12.514C14.1175 12.3038 15.3921 11.377 16.0465 10.0391C16.701 8.70116 16.6502 7.12597 15.911 5.83299C15.811 5.66008 15.6363 5.54347 15.4383 5.51742C15.2402 5.49137 15.0413 5.55883 14.9 5.69999L13.933 6.66699L12.455 5.18899C12.3345 5.06795 12.1708 4.99991 12 4.99991C11.8292 4.99991 11.6655 5.06795 11.545 5.18899L10.07 6.66399L9.09999 5.69999C8.95866 5.55883 8.75976 5.49137 8.56172 5.51742C8.36368 5.54347 8.189 5.66008 8.08899 5.83299C7.34977 7.12597 7.29901 8.70116 7.95344 10.0391C8.60787 11.377 9.88251 12.3038 11.357 12.514V14.963C10.3839 13.8502 8.97824 13.211 7.49999 13.209C7.32928 13.2087 7.16547 13.2763 7.04467 13.397C6.92387 13.5176 6.85599 13.6813 6.85599 13.852C6.85599 16.6963 9.16172 19.002 12.006 19.002C14.8503 19.002 17.156 16.6963 17.156 13.852C17.156 13.6792 17.0865 13.5136 16.9631 13.3927C16.8397 13.2717 16.6728 13.2055 16.5 13.209Z" fill="#42526E"/>
</svg>
