<svg width="90" height="90" viewBox="0 0 90 90" fill="none" xmlns="http://www.w3.org/2000/svg">
<path d="M89.899 88.1673L76.9257 56.7715C76.8269 56.5308 76.6588 56.3249 76.4428 56.1798C76.2267 56.0346 75.9725 55.9569 75.7122 55.9564H14.288C14.0277 55.9569 13.7735 56.0346 13.5574 56.1798C13.3414 56.3249 13.1733 56.5308 13.0746 56.7715L0.101023 88.1673C0.0177988 88.3686 -0.0147719 88.5871 0.00616654 88.8039C0.0271049 89.0207 0.100913 89.229 0.221121 89.4106C0.340478 89.5915 0.502834 89.7401 0.693666 89.8429C0.884499 89.9458 1.09786 89.9997 1.31466 90H88.6856C88.9023 89.9997 89.1157 89.9457 89.3065 89.8428C89.4973 89.74 89.6597 89.5915 89.7791 89.4106C89.8992 89.2289 89.9729 89.0206 89.9938 88.8039C90.0147 88.5871 89.9822 88.3686 89.899 88.1673Z" fill="#A8EEFC"/>
<path d="M84.5006 90H88.6856C88.9023 89.9997 89.1157 89.9457 89.3065 89.8428C89.4973 89.74 89.6597 89.5915 89.7791 89.4106C89.8992 89.2289 89.9729 89.0206 89.9938 88.8039C90.0147 88.5871 89.9822 88.3686 89.899 88.1673L76.9257 56.7715C76.8269 56.5308 76.659 56.3249 76.4429 56.1798C76.2269 56.0346 75.9725 55.9569 75.7122 55.9564H70.4332L84.5006 90Z" fill="#7EE5F2"/>
<path d="M21.6428 67.7972L26.1195 55.9271H14.2048C13.9446 55.9276 13.6903 56.0053 13.4743 56.1504C13.2582 56.2955 13.0902 56.5015 12.9914 56.7422L8.4231 67.7972H21.6428ZM75.629 55.9271H34.2585L46.325 66.4457H80.8523L76.8427 56.7424C76.7438 56.5017 76.5757 56.2957 76.3596 56.1506C76.1436 56.0054 75.8893 55.9277 75.629 55.9271Z" fill="#4CE166"/>
<path d="M84.8417 76.1006L80.8523 66.4457H46.325L34.2585 55.9271H25.1339L20.7661 66.443H8.98297L4.99214 76.1006H16.7877L11.0566 89.9706H21.7791L30.9842 67.4399L57.5298 89.9706H73.2019L57.3371 76.1006H84.8417Z" fill="#FFDB56"/>
<path d="M44.9169 0C29.2617 0 16.5254 12.828 16.5254 28.5957C16.5254 34.0316 17.994 39.7988 20.8909 45.737C23.1831 50.4364 26.3727 55.2575 30.3704 60.0667C37.1528 68.2256 43.8313 73.4637 44.1125 73.6829C44.3423 73.8623 44.6254 73.9597 44.9169 73.9597C45.2085 73.9597 45.4916 73.8623 45.7214 73.6829C46.0024 73.4637 52.6809 68.2256 59.4635 60.0667C63.4614 55.2575 66.6509 50.4364 68.943 45.737C71.8399 39.7986 73.3085 34.0316 73.3085 28.5957C73.3085 12.828 60.5722 0 44.9169 0ZM44.9169 17.7184C50.8814 17.7184 55.7166 22.5884 55.7166 28.5957C55.7166 34.6031 50.8814 39.4731 44.9169 39.4731C38.9525 39.4731 34.1173 34.6031 34.1173 28.5957C34.1173 22.5884 38.9525 17.7184 44.9169 17.7184Z" fill="#FF4A4A"/>
<path d="M44.9169 0C43.9827 0 43.059 0.0471094 42.1477 0.13623C56.508 1.54283 67.7699 13.7689 67.7699 28.5957C67.7699 34.0316 66.3013 39.7988 63.4044 45.737C61.1122 50.4364 57.9226 55.2575 53.925 60.0667C49.2733 65.6624 44.6713 69.8834 42.1477 72.0545C43.3038 73.0491 44.0242 73.614 44.1123 73.6828C44.3421 73.8621 44.6252 73.9595 44.9168 73.9595C45.2083 73.9595 45.4914 73.8621 45.7212 73.6828C46.0022 73.4636 52.6807 68.2254 59.4633 60.0666C63.4612 55.2574 66.6507 50.4362 68.9428 45.7369C71.8397 39.7985 73.3083 34.0314 73.3083 28.5956C73.3085 12.828 60.5722 0 44.9169 0Z" fill="#E7343F"/>
<path d="M21.7791 89.9706H57.5298L30.9842 67.4399L21.7791 89.9706Z" fill="#4CE166"/>
<path d="M74.6964 66.4457L78.686 76.1006H84.8417L80.8523 66.4457H74.6964Z" fill="#FFBB24"/>
<path d="M74.6964 66.4457H80.8523L76.8427 56.7424C76.7438 56.5017 76.5757 56.2957 76.3596 56.1506C76.1436 56.0055 75.8895 55.9277 75.6292 55.9273H70.35L74.6964 66.4457Z" fill="#44C868"/>
</svg>
