<svg width="24" height="24" viewBox="0 0 24 24" fill="none" xmlns="http://www.w3.org/2000/svg">
<path fill-rule="evenodd" clip-rule="evenodd" d="M19 12.423C19 12.318 19 12.215 18.995 12.11C18.9971 11.874 18.987 11.638 18.965 11.403C18.7985 8.90106 17.25 6.70105 14.951 5.7C12.5718 4.5192 9.72103 4.84535 7.67 6.533C6.03603 7.74413 5.05375 9.64261 5.009 11.676C4.83568 14.7218 6.68304 17.5198 9.552 18.557C9.76063 18.6317 9.9729 18.6958 10.188 18.749C10.288 18.775 10.378 18.8 10.471 18.828L10.645 18.882L11.586 19C11.686 19 11.798 19 11.904 19C12.1501 19.0016 12.3961 18.9905 12.641 18.967C13.0424 18.9202 13.4404 18.8487 13.833 18.753C14.1084 18.6915 14.3466 18.5199 14.492 18.278C14.7024 17.9143 14.6688 17.4589 14.4073 17.1301C14.1458 16.8012 13.7097 16.6659 13.308 16.789C10.7331 17.4904 8.06364 16.0339 7.26 13.489C6.81223 12.0382 7.0539 10.4623 7.9158 9.21231C8.7777 7.96235 10.1648 7.17623 11.68 7.079C13.2638 6.97448 14.8014 7.63686 15.8134 8.8596C16.8254 10.0823 17.1887 11.7167 16.79 13.253C16.7563 13.4094 16.6845 13.555 16.581 13.677C16.3668 13.8704 16.055 13.9102 15.799 13.777C15.5523 13.639 15.358 13.4236 15.246 13.164C14.789 12.224 15.125 10.818 15.178 9.8C15.2041 9.28101 14.805 8.83893 14.286 8.812C13.9561 8.79616 13.6428 8.95738 13.464 9.235C12.7079 8.77259 11.8009 8.62436 10.937 8.822C9.89718 9.05918 9.03294 9.77826 8.61064 10.7576C8.18835 11.737 8.2587 12.8591 8.8 13.778C9.37286 14.7808 10.4313 15.408 11.586 15.429C12.3571 15.4464 13.1121 15.2069 13.732 14.748C14.4101 15.543 15.4385 15.9499 16.477 15.834C17.5264 15.6864 18.3981 14.95 18.719 13.94C18.764 13.817 18.797 13.69 18.83 13.562L18.881 13.362L19 12.423ZM13.01 12.15C12.9773 12.7769 12.5064 13.2934 11.8851 13.3837C11.2639 13.4741 10.6654 13.113 10.4555 12.5214C10.2456 11.9298 10.4829 11.2723 11.0221 10.9509C11.5614 10.6296 12.2525 10.7339 12.673 11.2C12.9079 11.4588 13.0293 11.801 13.01 12.15Z" fill="#42526E"/>
</svg>
