<svg width="24" height="24" viewBox="0 0 24 24" fill="none" xmlns="http://www.w3.org/2000/svg">
<path fill-rule="evenodd" clip-rule="evenodd" d="M17.99 5.77H6.01C5.45718 5.77267 5.00816 6.21724 5 6.77V7.18C5.0011 7.73719 5.45281 8.18845 6.01 8.189H17.99C18.5472 8.18845 18.9989 7.73719 19 7.18V6.772C18.9929 6.21846 18.5436 5.77269 17.99 5.77ZM17.99 10.7H6.01C5.45718 10.7027 5.00816 11.1472 5 11.7V12.107C5.00055 12.6646 5.45242 13.1165 6.01 13.117H17.99C18.5452 13.1165 18.9962 12.6682 19 12.113V11.705C18.9951 11.1501 18.545 10.7022 17.99 10.7ZM6.01 15.637H17.987C18.542 15.6375 18.9934 16.0841 19 16.639V17.046C18.9978 17.6036 18.5446 18.0541 17.987 18.053H6.01C5.45242 18.0525 5.00055 17.6006 5 17.043V16.637C5.00816 16.0842 5.45718 15.6397 6.01 15.637Z" fill="#42526E"/>
</svg>
