<svg width="24" height="24" viewBox="0 0 24 24" fill="none" xmlns="http://www.w3.org/2000/svg">
<path fill-rule="evenodd" clip-rule="evenodd" d="M8.36 6.01V17.987C8.35949 18.5416 7.91354 18.9929 7.359 19H6.951C6.68269 18.9997 6.42549 18.8928 6.23605 18.7028C6.04661 18.5128 5.94047 18.2553 5.941 17.987V6.01C5.94155 5.45242 6.39342 5.00055 6.951 5H7.36C7.91276 5.00816 8.35733 5.45718 8.36 6.01ZM13.294 17.99V6.01C13.2913 5.45718 12.8468 5.00816 12.294 5H11.884C11.3268 5.0011 10.8755 5.45281 10.875 6.01V17.99C10.8755 18.5472 11.3268 18.9989 11.884 19H12.292C12.8455 18.9929 13.2913 18.5436 13.294 17.99ZM18.227 17.99V6.01C18.2243 5.45718 17.7798 5.00816 17.227 5H16.82C16.2628 5.0011 15.8115 5.45281 15.811 6.01V17.99C15.8115 18.546 16.261 18.9973 16.817 19H17.225C17.7785 18.9929 18.2243 18.5436 18.227 17.99Z" fill="#42526E"/>
</svg>
