<svg width="24" height="24" viewBox="0 0 24 24" fill="none" xmlns="http://www.w3.org/2000/svg">
<path fill-rule="evenodd" clip-rule="evenodd" d="M19 7.941C19 7.22303 18.418 6.641 17.7 6.641H6.3C5.58203 6.641 5 7.22303 5 7.941V16.059C5 16.777 5.58203 17.359 6.3 17.359H17.7C18.418 17.359 19 16.777 19 16.059V7.941ZM11.636 13.084L7.7 9.337C7.56547 9.20437 7.52786 9.00195 7.60576 8.82985C7.68367 8.65775 7.86058 8.55244 8.049 8.566H15.954C16.143 8.55169 16.3207 8.65735 16.3984 8.83023C16.4761 9.00311 16.4372 9.20615 16.301 9.338L12.332 13.085C12.135 13.2657 11.8324 13.2652 11.636 13.084Z" fill="#42526E"/>
</svg>
