<svg width="24" height="24" viewBox="0 0 24 24" fill="none" xmlns="http://www.w3.org/2000/svg">
<path fill-rule="evenodd" clip-rule="evenodd" d="M13.938 6.938H10.062C7.26633 6.938 5 9.20434 5 12C5 14.7957 7.26633 17.062 10.062 17.062H19V12C19 9.20434 16.7337 6.938 13.938 6.938ZM8.808 12.9C8.31094 12.9 7.908 12.4971 7.908 12C7.908 11.5029 8.31094 11.1 8.808 11.1C9.30506 11.1 9.708 11.5029 9.708 12C9.708 12.2387 9.61318 12.4676 9.4444 12.6364C9.27561 12.8052 9.04669 12.9 8.808 12.9ZM12 12.9C11.5029 12.9 11.1 12.4971 11.1 12C11.1 11.5029 11.5029 11.1 12 11.1C12.4971 11.1 12.9 11.5029 12.9 12C12.9 12.4971 12.4971 12.9 12 12.9ZM15.192 12.9C14.6949 12.9 14.292 12.4971 14.292 12C14.292 11.5029 14.6949 11.1 15.192 11.1C15.6891 11.1 16.092 11.5029 16.092 12C16.092 12.4971 15.6891 12.9 15.192 12.9Z" fill="#42526E"/>
</svg>
