<svg width="24" height="24" viewBox="0 0 24 24" fill="none" xmlns="http://www.w3.org/2000/svg">
<path fill-rule="evenodd" clip-rule="evenodd" d="M15.5 12C15.4945 13.9307 13.9307 15.4945 12 15.5C10.0693 15.4945 8.50549 13.9307 8.5 12V8.5C8.5 6.567 10.067 5 12 5C13.933 5 15.5 6.567 15.5 8.5V12ZM17.25 12C17.2506 11.5171 17.6421 11.126 18.125 11.126C18.6079 11.126 18.9994 11.5171 19 12C19 15.866 15.866 19 12 19C8.13401 19 5 15.866 5 12C5 11.5168 5.39175 11.125 5.875 11.125C6.35825 11.125 6.75 11.5168 6.75 12C6.75 14.8995 9.1005 17.25 12 17.25C14.8995 17.25 17.25 14.8995 17.25 12Z" fill="#42526E"/>
</svg>
