<svg width="24" height="24" viewBox="0 0 24 24" fill="none" xmlns="http://www.w3.org/2000/svg">
<path fill-rule="evenodd" clip-rule="evenodd" d="M12 5C8.13401 5 5 8.13401 5 12C5 15.866 8.13401 19 12 19C15.866 19 19 15.866 19 12C19 10.1435 18.2625 8.36301 16.9497 7.05025C15.637 5.7375 13.8565 5 12 5ZM14.757 13.023H9.242C8.70612 13.006 8.28051 12.5667 8.28051 12.0305C8.28051 11.4943 8.70612 11.055 9.242 11.038H14.757C15.1191 11.0265 15.4587 11.2131 15.6432 11.5249C15.8276 11.8367 15.8276 12.2243 15.6432 12.5361C15.4587 12.8479 15.1191 13.0345 14.757 13.023Z" fill="#42526E"/>
</svg>
