<svg width="24" height="24" viewBox="0 0 24 24" fill="none" xmlns="http://www.w3.org/2000/svg">
<path fill-rule="evenodd" clip-rule="evenodd" d="M9.591 5H14.681C15.5597 5 16.272 5.71231 16.272 6.591V17.409C16.272 18.2877 15.5597 19 14.681 19H9.591C8.71231 19 8 18.2877 8 17.409V6.591C8 5.71231 8.71231 5 9.591 5ZM12.168 17.9C12.6534 17.9 13.0909 17.6076 13.2767 17.1592C13.4624 16.7108 13.3597 16.1947 13.0165 15.8515C12.6733 15.5083 12.1572 15.4056 11.7088 15.5913C11.2604 15.7771 10.968 16.2146 10.968 16.7C10.968 17.3627 11.5053 17.9 12.168 17.9Z" fill="#42526E"/>
</svg>
