<svg width="24" height="24" viewBox="0 0 24 24" fill="none" xmlns="http://www.w3.org/2000/svg">
<path fill-rule="evenodd" clip-rule="evenodd" d="M5.805 5.1H18.2C18.6405 5.10327 18.9967 5.45953 19 5.9V14.593C18.9967 15.0335 18.6405 15.3897 18.2 15.393H5.8C5.35931 15.3903 5.00273 15.0337 5 14.593V5.9C5.00329 5.45759 5.36258 5.10054 5.805 5.1ZM15.589 13.789C15.8595 12.9253 16.5362 12.249 17.4 11.979L17.391 8.518C16.527 8.24826 15.8502 7.57188 15.58 6.708H8.421C8.15014 7.57183 7.47313 8.24809 6.609 8.518V11.979C7.47313 12.2489 8.15014 12.9252 8.421 13.789H15.589ZM12 8.1C10.9176 8.20919 10.121 9.16352 10.207 10.248C10.1187 11.334 10.9159 12.2908 12 12.4C13.0841 12.2908 13.8813 11.334 13.793 10.248C13.879 9.16352 13.0824 8.20919 12 8.1ZM5.26624 18.6348C5.09553 18.464 4.99974 18.2324 5 17.991V17.291H18.999V17.991C18.9993 18.2324 18.9035 18.464 18.7328 18.6348C18.562 18.8055 18.3304 18.9013 18.089 18.901H5.91C5.66857 18.9013 5.43696 18.8055 5.26624 18.6348Z" fill="#42526E"/>
</svg>
