<svg width="24" height="24" viewBox="0 0 24 24" fill="none" xmlns="http://www.w3.org/2000/svg">
<path fill-rule="evenodd" clip-rule="evenodd" d="M10.25 17.25C10.25 18.2165 11.0335 19 12 19C12.9665 19 13.75 18.2165 13.75 17.25C13.75 16.2835 12.9665 15.5 12 15.5C11.5358 15.4997 11.0905 15.684 10.7623 16.0123C10.434 16.3405 10.2497 16.7858 10.25 17.25ZM10.25 12C10.25 12.9665 11.0335 13.75 12 13.75C12.9665 13.75 13.75 12.9665 13.75 12C13.75 11.0335 12.9665 10.25 12 10.25C11.5358 10.2497 11.0905 10.434 10.7623 10.7623C10.434 11.0905 10.2497 11.5358 10.25 12ZM10.25 6.75C10.25 7.7165 11.0335 8.5 12 8.5C12.9665 8.5 13.75 7.7165 13.75 6.75C13.75 5.7835 12.9665 5 12 5C11.5358 4.99973 11.0905 5.18402 10.7623 5.51227C10.434 5.84052 10.2497 6.28579 10.25 6.75Z" fill="#42526E"/>
</svg>
