<svg width="24" height="24" viewBox="0 0 24 24" fill="none" xmlns="http://www.w3.org/2000/svg">
<path fill-rule="evenodd" clip-rule="evenodd" d="M17.216 13.75C18.1825 13.75 18.966 12.9665 18.966 12C18.966 11.0335 18.1825 10.25 17.216 10.25C16.2495 10.25 15.466 11.0335 15.466 12C15.4657 12.4642 15.65 12.9095 15.9783 13.2377C16.3065 13.566 16.7518 13.7503 17.216 13.75ZM11.966 13.75C12.9325 13.75 13.716 12.9665 13.716 12C13.716 11.0335 12.9325 10.25 11.966 10.25C10.9995 10.25 10.216 11.0335 10.216 12C10.2157 12.4642 10.4 12.9095 10.7283 13.2377C11.0565 13.566 11.5018 13.7503 11.966 13.75ZM6.716 13.75C7.6825 13.75 8.466 12.9665 8.466 12C8.466 11.0335 7.6825 10.25 6.716 10.25C5.74951 10.25 4.966 11.0335 4.966 12C4.96574 12.4642 5.15003 12.9095 5.47827 13.2377C5.80652 13.566 6.25179 13.7503 6.716 13.75Z" fill="#42526E"/>
</svg>
