<svg width="24" height="24" viewBox="0 0 24 24" fill="none" xmlns="http://www.w3.org/2000/svg">
<path fill-rule="evenodd" clip-rule="evenodd" d="M12.455 5C13.6365 5 14.7697 5.46936 15.6052 6.30484C16.4406 7.14031 16.91 8.27346 16.91 9.455V14.545C16.91 17.0054 14.9154 19 12.455 19C9.99457 19 8 17.0054 8 14.545V9.455C8.00055 6.9948 9.9948 5.00055 12.455 5ZM12.455 6.671C11.9938 6.671 11.62 7.04484 11.62 7.506V9.177C11.6356 9.62719 12.005 9.98409 12.4555 9.98409C12.906 9.98409 13.2754 9.62719 13.291 9.177V7.506C13.291 7.28437 13.2029 7.07183 13.0461 6.91521C12.8893 6.75859 12.6766 6.67073 12.455 6.671Z" fill="#42526E"/>
</svg>
