<svg width="24" height="24" viewBox="0 0 24 24" fill="none" xmlns="http://www.w3.org/2000/svg">
<path fill-rule="evenodd" clip-rule="evenodd" d="M18.221 5.783V13.676C18.2117 14.05 18.1739 14.4227 18.108 14.791C17.9804 15.371 17.6969 15.9053 17.288 16.336C16.7221 16.8962 15.9631 17.2183 15.167 17.236C14.6244 17.2492 14.098 17.0501 13.7 16.681C13.2793 16.1786 13.0799 15.5272 13.1473 14.8753C13.2148 14.2234 13.5433 13.6267 14.058 13.221C14.5265 12.8115 15.0963 12.5353 15.708 12.421C15.8972 12.3813 16.0364 12.2199 16.048 12.027V8.434C16.0541 8.36741 16.0265 8.30219 15.9744 8.2602C15.9224 8.21821 15.8528 8.205 15.789 8.225L11.053 9.073C10.861 9.11302 10.7198 9.27714 10.709 9.473C10.709 16.145 10.699 16.154 10.699 16.173C10.6627 16.9143 10.3314 17.6103 9.779 18.106C9.21216 18.6628 8.45436 18.9825 7.66 19C7.11992 19.0105 6.59671 18.8116 6.2 18.445C5.77919 17.9428 5.57931 17.2918 5.64579 16.64C5.71227 15.9882 6.03947 15.3909 6.553 14.984C7.02293 14.5766 7.59213 14.3007 8.203 14.184C8.384 14.153 8.603 13.965 8.603 13.79V7.341C8.59209 6.94051 8.88414 6.5959 9.281 6.541L17.345 5.005C17.3783 5.00327 17.4117 5.00327 17.445 5.005C17.8609 5.03572 18.1914 5.36698 18.221 5.783Z" fill="#42526E"/>
</svg>
