<svg width="24" height="24" viewBox="0 0 24 24" fill="none" xmlns="http://www.w3.org/2000/svg">
<path fill-rule="evenodd" clip-rule="evenodd" d="M17.264 12.516L18.805 14.306C18.9944 14.4949 19.0513 14.7794 18.949 15.0266C18.8468 15.2739 18.6056 15.4351 18.338 15.435H5.66802C5.40077 15.4345 5.16002 15.2734 5.05768 15.0265C4.95534 14.7796 5.01149 14.4954 5.20002 14.306L6.71302 12.516C6.96101 12.268 7.10023 11.9317 7.10002 11.581V9.86399C7.23229 7.20198 9.4795 5.1406 12.143 5.23799C14.7379 5.36122 16.8005 7.46132 16.877 10.058V11.581C16.8768 11.9317 17.016 12.268 17.264 12.516ZM12 18.764C10.7733 18.8349 9.68339 17.9874 9.45002 16.781H14.551C14.3172 17.9875 13.2269 18.835 12 18.764Z" fill="#42526E"/>
</svg>
