<svg width="24" height="24" viewBox="0 0 24 24" fill="none" xmlns="http://www.w3.org/2000/svg">
<path fill-rule="evenodd" clip-rule="evenodd" d="M17.216 12.55C16.5259 12.5506 15.9666 13.1099 15.966 13.8V14.941C15.9649 15.8012 15.2682 16.4984 14.408 16.5H9.058C8.19784 16.4984 7.5011 15.8012 7.5 14.941V9.59102C7.5011 8.73102 8.198 8.03412 9.058 8.03302H10.181C10.8714 8.03302 11.431 7.47338 11.431 6.78302C11.431 6.09266 10.8714 5.53302 10.181 5.53302H9.058C6.81774 5.53522 5.0022 7.35076 5 9.59102V14.941C5.0022 17.1814 6.81758 18.9973 9.058 19H14.408C16.6484 18.9973 18.4638 17.1814 18.466 14.941V13.8C18.4649 13.1101 17.9059 12.5511 17.216 12.55Z" fill="#42526E"/>
<path fill-rule="evenodd" clip-rule="evenodd" d="M16.364 10.271C17.4303 10.2714 18.3917 9.62943 18.8001 8.64446C19.2084 7.65948 18.9831 6.52553 18.2293 5.77143C17.4755 5.01733 16.3416 4.79162 15.3565 5.19957C14.3714 5.60751 13.729 6.56876 13.729 7.63501C13.7287 8.33403 14.0062 9.00451 14.5004 9.49888C14.9946 9.99326 15.665 10.271 16.364 10.271Z" fill="#42526E"/>
</svg>
