<svg width="24" height="24" viewBox="0 0 24 24" fill="none" xmlns="http://www.w3.org/2000/svg">
<path fill-rule="evenodd" clip-rule="evenodd" d="M16.876 11.582C16.876 11.9326 17.0152 12.2689 17.263 12.517L18.805 14.306C18.9935 14.4954 19.0497 14.7796 18.9473 15.0265C18.845 15.2734 18.6042 15.4345 18.337 15.435H9.785L6.472 18.749C6.13422 19.0765 5.59612 19.0722 5.26359 18.7394C4.93106 18.4066 4.92723 17.8685 5.255 17.531L11.707 11.077L15.732 7.05099L17.532 5.25099C17.8698 4.9235 18.4079 4.92777 18.7404 5.26058C19.0729 5.59339 19.0768 6.13149 18.749 6.46899L16.611 8.60699C16.7813 9.07205 16.8709 9.56277 16.876 10.058V11.582ZM14.414 5.93399C13.7285 5.51124 12.9465 5.27031 12.142 5.23399C9.47528 5.13439 7.22469 7.19862 7.094 9.86399V11.582C7.09399 11.9326 6.9548 12.2689 6.707 12.517L5.194 14.306C4.95178 14.5474 4.93441 14.9339 5.154 15.196L14.414 5.93399ZM12.0001 18.764C13.2272 18.8351 14.3178 17.9877 14.5521 16.781H9.45206C9.68574 17.9863 10.7742 18.8335 12.0001 18.764Z" fill="#42526E"/>
</svg>
