<svg width="24" height="24" viewBox="0 0 24 24" fill="none" xmlns="http://www.w3.org/2000/svg">
<path fill-rule="evenodd" clip-rule="evenodd" d="M17.322 13.766L14.273 12L17.582 10.085C17.8686 9.95533 18.0864 9.70963 18.1807 9.40952C18.275 9.1094 18.2369 8.78331 18.076 8.513C17.9294 8.21987 17.6568 8.0099 17.336 7.943C17.0376 7.8954 16.732 7.95567 16.474 8.113C16.228 8.251 13.127 10.04 13.127 10.04L13.122 6.205C13.1406 5.87031 13.0201 5.54282 12.789 5.3C12.577 5.09346 12.2885 4.98473 11.993 5C11.6783 4.99422 11.376 5.12243 11.1614 5.35267C10.9468 5.58291 10.8401 5.89349 10.868 6.207V10.045C9.77265 9.415 8.67999 8.78433 7.58999 8.153C7.29899 7.95903 6.94183 7.8912 6.59999 7.965C6.31343 8.04751 6.07313 8.24372 5.93499 8.508C5.77734 8.75751 5.72856 9.06063 5.79999 9.347C5.90929 9.68268 6.14993 9.95976 6.46699 10.115L9.73199 12L6.44599 13.9C6.15553 14.0193 5.93042 14.2578 5.82803 14.5546C5.72564 14.8515 5.75586 15.178 5.91099 15.451C6.04266 15.7281 6.28409 15.9376 6.57699 16.029C6.91416 16.1119 7.27059 16.0518 7.56199 15.863C8.10699 15.554 8.64899 15.242 9.19299 14.929L10.867 13.97V17.7C10.8386 18.0665 10.9631 18.4285 11.211 18.7C11.4226 18.9026 11.7072 19.0108 12 19H12.03C12.36 18.995 13.13 18.859 13.125 17.717V13.963L16.212 15.741C16.5745 15.9967 17.025 16.0948 17.461 16.013C17.7342 15.932 17.9619 15.7416 18.09 15.487C18.331 15.043 18.394 14.384 17.322 13.766Z" fill="#42526E"/>
</svg>
