<svg width="24" height="24" viewBox="0 0 24 24" fill="none" xmlns="http://www.w3.org/2000/svg">
<path fill-rule="evenodd" clip-rule="evenodd" d="M5.38599 17.348V17.184C5.39516 17.1591 5.40284 17.1338 5.40899 17.108C5.59999 16.22 7.12899 9.206 7.69999 6.589C7.71383 6.41015 7.80141 6.24511 7.94176 6.1334C8.08211 6.02169 8.26259 5.97336 8.43999 6H13.565C14.0667 5.99668 14.5644 6.08969 15.031 6.274C16.1243 6.69592 16.8563 7.73444 16.886 8.906C16.9197 9.95702 16.6151 10.9911 16.017 11.856C15.1889 13.1138 13.7975 13.8867 12.292 13.925C11.6686 13.9583 11.0427 13.954 10.4171 13.9497C10.1586 13.9479 9.90018 13.9461 9.64199 13.947C9.54199 13.947 9.50099 13.966 9.47899 14.073C9.32004 14.8355 9.15699 15.5965 8.99388 16.3578L8.99371 16.3586C8.92906 16.6603 8.8644 16.9621 8.79999 17.264C8.78889 17.452 8.69922 17.6266 8.55291 17.7451C8.4066 17.8637 8.21717 17.9152 8.03099 17.887H6.13099C6.02993 17.8877 5.92917 17.8759 5.83099 17.852C5.60227 17.7771 5.43202 17.5842 5.38599 17.348ZM9.99999 11.67H9.99999C10.0641 11.67 11.763 11.67 11.874 11.646C12.775 11.4654 13.4676 10.742 13.609 9.834C13.6796 9.48801 13.5902 9.12864 13.3659 8.85596C13.1415 8.58328 12.8061 8.4264 12.453 8.429C12.135 8.41609 11.817 8.41833 11.4991 8.42057H11.4991C11.275 8.42215 11.051 8.42372 10.827 8.42C10.741 8.42 10.727 8.46 10.707 8.531C10.6463 8.80582 10.4495 9.6776 10.2734 10.4573L10.2733 10.4577L10.2732 10.4584C10.1591 10.9635 10.0538 11.4298 9.99999 11.67ZM8.45999 19.325C8.39641 19.6327 8.59284 19.934 8.89999 20H11C11.2574 19.9142 11.4403 19.685 11.467 19.415C11.5764 18.8791 11.691 18.3445 11.8057 17.8101C11.8902 17.4162 11.9747 17.0223 12.057 16.628C12.076 16.535 12.112 16.515 12.199 16.515C12.2721 16.5157 12.3453 16.5164 12.4185 16.5171C13.0055 16.5227 13.5932 16.5283 14.181 16.515C14.5229 16.5113 14.8639 16.4779 15.2 16.415C16.2936 16.2138 17.2571 15.5734 17.866 14.643C18.2623 14.0471 18.5105 13.3652 18.59 12.654C18.6891 12.0276 18.5743 11.3861 18.264 10.833C18.114 10.5685 17.9123 10.3369 17.671 10.152C17.6637 10.2435 17.6584 10.3344 17.6532 10.4247C17.6419 10.6195 17.6307 10.8114 17.6 11C17.4188 12.3552 16.6745 13.5712 15.55 14.349C14.8221 14.8576 13.9633 15.146 13.076 15.18C12.5155 15.2081 11.3897 15.1869 11.0903 15.1813C11.0484 15.1805 11.0226 15.18 11.017 15.18C11.008 15.219 10.645 16.919 10.473 17.734C10.4171 18.0559 10.2284 18.3393 9.95299 18.515C9.5321 18.722 9.05418 18.7825 8.59499 18.687C8.58373 18.7391 8.57252 18.7903 8.56145 18.841C8.52532 19.0062 8.4906 19.165 8.45999 19.325Z" fill="#42526E"/>
</svg>
