<svg width="24" height="24" viewBox="0 0 24 24" fill="none" xmlns="http://www.w3.org/2000/svg">
<path fill-rule="evenodd" clip-rule="evenodd" d="M14.6988 5.29289C14.3083 4.90237 13.6751 4.90237 13.2846 5.29289L11.8591 6.71842C11.4685 7.10894 11.4685 7.74211 11.8591 8.13263L15.8662 12.1398C16.2568 12.5303 16.8899 12.5303 17.2804 12.1398L18.706 10.7143C19.0965 10.3238 19.0965 9.69059 18.706 9.30007L14.6988 5.29289ZM14.6349 12.7925L11.2049 9.3625C10.9537 9.11158 10.5889 9.01163 10.2449 9.0995L7.11189 9.9195C6.66691 10.0332 6.35798 10.4373 6.36489 10.8965C6.38431 13.3596 5.93534 15.804 5.04189 18.0995C4.95109 18.3427 5.01062 18.6166 5.19421 18.8002C5.37779 18.9838 5.65165 19.0433 5.89489 18.9525C8.19056 18.0601 10.6349 17.6121 13.0979 17.6325C13.5571 17.6394 13.9612 17.3305 14.0749 16.8855L14.8979 13.7525C14.9858 13.4085 14.8858 13.0437 14.6349 12.7925ZM11.5279 14.8425C11.048 15.3224 10.3262 15.466 9.69921 15.2063C9.07217 14.9466 8.66334 14.3347 8.66334 13.656C8.66334 12.9773 9.07217 12.3654 9.69921 12.1057C10.3262 11.846 11.048 11.9896 11.5279 12.4695C12.182 13.1253 12.182 14.1868 11.5279 14.8425Z" fill="#42526E"/>
</svg>
