<svg width="24" height="24" viewBox="0 0 24 24" fill="none" xmlns="http://www.w3.org/2000/svg">
<path fill-rule="evenodd" clip-rule="evenodd" d="M10.851 8.763C10.9227 7.95433 10.6427 7.15394 10.0825 6.56635C9.52229 5.97876 8.73616 5.66091 7.92499 5.694C7.11399 5.6612 6.32814 5.97919 5.76815 6.56674C5.20817 7.15429 4.92829 7.95451 4.99999 8.763C4.9262 9.5718 5.20546 10.373 5.76597 10.9608C6.32649 11.5485 7.1136 11.8654 7.92499 11.83C8.73655 11.8657 9.52394 11.5489 10.0847 10.9612C10.6454 10.3734 10.9248 9.57198 10.851 8.763ZM7.15909 7.98316C6.96038 8.19164 6.86121 8.47566 6.88695 8.7625C6.86151 9.04918 6.96082 9.33292 7.1595 9.54117C7.35829 9.74953 7.63726 9.86208 7.92499 9.85C8.21255 9.86179 8.49125 9.74911 8.68982 9.54078C8.88838 9.33245 8.98756 9.04866 8.96199 8.762C8.98756 8.47534 8.88838 8.19155 8.68982 7.98322C8.49125 7.77489 8.21255 7.66221 7.92499 7.674C7.63707 7.66188 7.35792 7.77456 7.15909 7.98316ZM15.528 5.694C15.1655 5.69464 14.8266 5.87381 14.622 6.173L7.58699 16.589C7.33426 16.9119 7.28213 17.3486 7.45174 17.7219C7.62135 18.0953 7.98454 18.3433 8.394 18.3654C8.80347 18.3874 9.19122 18.1799 9.39999 17.827L16.435 7.411C16.663 7.07447 16.6868 6.63963 16.497 6.2802C16.3071 5.92077 15.9345 5.69535 15.528 5.694ZM13.9159 13.042C14.4761 12.4547 15.262 12.1369 16.073 12.17C16.8841 12.1366 17.6704 12.4542 18.2308 13.0416C18.7912 13.629 19.0714 14.4293 19 15.238C19.0742 16.0473 18.7948 16.8492 18.2338 17.4372C17.6728 18.0253 16.8849 18.342 16.073 18.306C15.2612 18.3417 14.4737 18.0248 13.9129 17.4368C13.3521 16.8488 13.0729 16.0471 13.147 15.238C13.0756 14.4295 13.3557 13.6294 13.9159 13.042ZM15.3082 16.0168C15.5067 16.2251 15.7854 16.3378 16.073 16.326C16.3607 16.3381 16.6397 16.2255 16.8385 16.0172C17.0373 15.8088 17.1366 15.5248 17.111 15.238C17.1316 14.854 16.9385 14.49 16.609 14.2918C16.2795 14.0936 15.8675 14.0936 15.538 14.2918C15.2084 14.49 15.0153 14.854 15.036 15.238C15.0104 15.5247 15.1096 15.8084 15.3082 16.0168Z" fill="#42526E"/>
</svg>
