<svg width="24" height="24" viewBox="0 0 24 24" fill="none" xmlns="http://www.w3.org/2000/svg">
<path fill-rule="evenodd" clip-rule="evenodd" d="M18.5847 17.4946C18.5847 17.4946 15.3967 22.0446 8.68471 15.3276C1.93371 8.56257 6.52471 5.41757 6.52471 5.41757C6.81566 5.12549 7.21925 4.97438 7.63048 5.00356C8.04171 5.03275 8.41992 5.23933 8.66671 5.56957L9.95871 7.30057C10.3832 7.86718 10.327 8.65959 9.82671 9.16057L8.68871 10.3006C8.68871 10.3006 8.68871 11.3066 10.6987 13.3196C12.7087 15.3326 13.7137 15.3326 13.7137 15.3326L14.8517 14.1926C15.3516 13.6918 16.144 13.6355 16.7097 14.0606L18.4317 15.3546C18.7597 15.6024 18.9646 15.9798 18.994 16.3898C19.0233 16.7999 18.8741 17.2026 18.5847 17.4946Z" fill="#42526E"/>
</svg>
