<svg width="24" height="24" viewBox="0 0 24 24" fill="none" xmlns="http://www.w3.org/2000/svg">
<path fill-rule="evenodd" clip-rule="evenodd" d="M13.615 6.615H10.385C10.0897 6.62539 9.81232 6.4738 9.6616 6.21968C9.51089 5.96556 9.51089 5.64944 9.6616 5.39532C9.81232 5.1412 10.0897 4.98961 10.385 5H13.615C13.9103 4.98961 14.1877 5.1412 14.3384 5.39532C14.4891 5.64944 14.4891 5.96556 14.3384 6.21968C14.1877 6.4738 13.9103 6.62539 13.615 6.615ZM16.307 6.286H16.846C17.0602 6.286 17.2656 6.37116 17.417 6.52272C17.5683 6.67427 17.6533 6.8798 17.653 7.094V18.192C17.6533 18.4062 17.5683 18.6117 17.417 18.7633C17.2656 18.9148 17.0602 19 16.846 19H7.15399C6.70868 19 6.34754 18.6393 6.34699 18.194V7.094C6.34672 6.8798 6.43163 6.67427 6.583 6.52272C6.73437 6.37116 6.93978 6.286 7.15399 6.286H7.69299C8.13884 6.28655 8.49999 6.64814 8.49999 7.094C8.49999 7.37388 8.61131 7.64228 8.8094 7.84C9.0075 8.03772 9.2761 8.14853 9.55599 8.148H14.448C15.0212 8.14702 15.4886 7.68811 15.5 7.115V7.094C15.5 6.64814 15.8611 6.28655 16.307 6.286ZM10.385 14.962H13.615C13.9103 14.9724 14.1877 14.8208 14.3384 14.5667C14.4891 14.3126 14.4891 13.9964 14.3384 13.7423C14.1877 13.4882 13.9103 13.3366 13.615 13.347H10.385C10.0897 13.3366 9.81232 13.4882 9.6616 13.7423C9.51089 13.9964 9.51089 14.3126 9.6616 14.5667C9.81232 14.8208 10.0897 14.9724 10.385 14.962ZM10.385 11.731H13.615C13.9103 11.7414 14.1877 11.5898 14.3384 11.3357C14.4891 11.0816 14.4891 10.7654 14.3384 10.5113C14.1877 10.2572 13.9103 10.1056 13.615 10.116H10.385C10.0897 10.1056 9.81232 10.2572 9.6616 10.5113C9.51089 10.7654 9.51089 11.0816 9.6616 11.3357C9.81232 11.5898 10.0897 11.7414 10.385 11.731Z" fill="#42526E"/>
</svg>
