<svg width="24" height="24" viewBox="0 0 24 24" fill="none" xmlns="http://www.w3.org/2000/svg">
<path fill-rule="evenodd" clip-rule="evenodd" d="M5.38554 8.75262C5.9754 7.74465 7.06329 7.13345 8.23099 7.154C9.08825 7.154 9.91037 7.49468 10.5164 8.10104C11.1223 8.70741 11.4625 9.52974 11.462 10.387C11.462 13.955 9.64599 16.848 6.07699 16.848C5.48217 16.848 4.99999 16.3658 4.99999 15.771C4.99999 15.1762 5.48217 14.694 6.07699 14.694C6.99943 14.7403 7.88539 14.3288 8.44499 13.594C8.4156 13.596 8.38672 13.5999 8.35786 13.6038C8.316 13.6094 8.27419 13.615 8.23099 13.615C7.06329 13.6355 5.9754 13.0243 5.38554 12.0164C4.79568 11.0084 4.79568 9.76058 5.38554 8.75262ZM12.9235 8.75262C13.5134 7.74465 14.6013 7.13345 15.769 7.154C16.626 7.15373 17.448 7.49406 18.0539 8.10004C18.6599 8.70603 19.0003 9.528 19 10.385C19 13.953 17.184 16.846 13.615 16.848C13.0202 16.848 12.538 16.3658 12.538 15.771C12.538 15.1762 13.0202 14.694 13.615 14.694C14.5378 14.7407 15.4242 14.3291 15.984 13.594C15.9547 13.596 15.926 13.5999 15.8972 13.6037C15.8551 13.6094 15.8129 13.615 15.769 13.615C14.6013 13.6355 13.5134 13.0243 12.9235 12.0164C12.3337 11.0084 12.3337 9.76058 12.9235 8.75262Z" fill="#42526E"/>
</svg>
