<svg width="24" height="24" viewBox="0 0 24 24" fill="none" xmlns="http://www.w3.org/2000/svg">
<path fill-rule="evenodd" clip-rule="evenodd" d="M12.831 5.688L14.585 9.388L18.177 9.769C18.5489 9.80508 18.8619 10.0627 18.9688 10.4208C19.0757 10.7788 18.9552 11.1659 18.664 11.4L15.8 13.755L16.686 17.714C16.7669 18.0737 16.625 18.447 16.3256 18.6621C16.0261 18.8772 15.6271 18.8926 15.312 18.701L12 16.686L8.685 18.7C8.3698 18.8912 7.97091 18.8757 7.67143 18.6608C7.37195 18.4458 7.22971 18.0728 7.31 17.713L8.2 13.755L5.336 11.4C5.04686 11.1653 4.92794 10.7793 5.03487 10.4226C5.1418 10.0659 5.45343 9.80894 5.824 9.772L9.415 9.391L11.169 5.688C11.3214 5.3672 11.6448 5.16277 12 5.16277C12.3552 5.16277 12.6786 5.3672 12.831 5.688Z" fill="#42526E"/>
</svg>
