<svg width="24" height="24" viewBox="0 0 24 24" fill="none" xmlns="http://www.w3.org/2000/svg">
<path fill-rule="evenodd" clip-rule="evenodd" d="M18.177 9.772L14.585 9.391L12.831 5.688C12.6786 5.3672 12.3552 5.16277 12 5.16277C11.6448 5.16277 11.3214 5.3672 11.169 5.688L9.415 9.388L5.823 9.772C5.4526 9.80929 5.14129 10.0663 5.0346 10.423C4.92791 10.7797 5.04692 11.1654 5.336 11.4L8.2 13.755L7.31 17.714C7.22971 18.0738 7.37195 18.4468 7.67143 18.6618C7.97091 18.8767 8.36979 18.8922 8.685 18.701L12 16.686L15.315 18.7C15.6302 18.8912 16.0291 18.8757 16.3286 18.6608C16.628 18.4458 16.7703 18.0728 16.69 17.713L15.8 13.755L18.664 11.4C18.9531 11.1654 19.0721 10.7797 18.9654 10.423C18.8587 10.0663 18.5474 9.80929 18.177 9.772ZM14.08 12.714C13.9304 12.8376 13.8628 13.0346 13.905 13.224L14.467 15.731L12.267 14.531C12.187 14.4806 12.0946 14.4533 12 14.452C11.9056 14.4522 11.8131 14.4777 11.732 14.526L9.532 15.731L10.1 13.224C10.1422 13.0346 10.0746 12.8376 9.925 12.714L8.11 11.221L10.418 10.861C10.5964 10.841 10.752 10.7307 10.83 10.569L11.94 8.225L13.171 10.569C13.2483 10.7308 13.4037 10.8412 13.582 10.861L15.856 11.102L14.08 12.714Z" fill="#42526E"/>
</svg>
