<svg width="24" height="24" viewBox="0 0 24 24" fill="none" xmlns="http://www.w3.org/2000/svg">
<path fill-rule="evenodd" clip-rule="evenodd" d="M18.177 9.772L14.585 9.391L12.831 5.688C12.6786 5.3672 12.3552 5.16277 12 5.16277C11.6448 5.16277 11.3214 5.3672 11.169 5.688L9.415 9.388L5.823 9.772C5.4526 9.80929 5.14129 10.0663 5.0346 10.423C4.92791 10.7797 5.04692 11.1654 5.336 11.4L8.2 13.754L7.314 17.714C7.23371 18.0738 7.37595 18.4468 7.67543 18.6618C7.97491 18.8767 8.37379 18.8922 8.689 18.701L12 16.686L15.316 18.7C15.6311 18.8916 16.0301 18.8762 16.3296 18.6611C16.629 18.446 16.7709 18.0727 16.69 17.713L15.8 13.754L18.664 11.4C18.9531 11.1654 19.0721 10.7797 18.9654 10.423C18.8587 10.0663 18.5474 9.80929 18.177 9.772ZM14.377 12.9C14.2304 13.0212 14.164 13.2143 14.205 13.4L14.694 16.03L12.589 14.684C12.4853 14.6446 12.375 14.6252 12.264 14.627V8.466L13.48 10.778C13.5561 10.938 13.7098 11.047 13.886 11.066L16.129 11.304L14.377 12.9Z" fill="#42526E"/>
</svg>
