<svg width="24" height="24" viewBox="0 0 24 24" fill="none" xmlns="http://www.w3.org/2000/svg">
<path fill-rule="evenodd" clip-rule="evenodd" d="M15.924 5H8.07601C7.19236 5 6.47601 5.71634 6.47601 6.6V17.121C6.47572 17.3189 6.55331 17.5089 6.69201 17.65L7.79701 18.78C7.93388 18.9206 8.12178 19 8.31801 19C8.51425 19 8.70215 18.9206 8.83901 18.78L9.63901 17.962C9.77588 17.8214 9.96378 17.742 10.16 17.742C10.3562 17.742 10.5442 17.8214 10.681 17.962L11.481 18.78C11.6182 18.9204 11.8062 18.9996 12.0025 18.9996C12.1988 18.9996 12.3868 18.9204 12.524 18.78L13.324 17.962C13.4609 17.8214 13.6488 17.742 13.845 17.742C14.0412 17.742 14.2292 17.8214 14.366 17.962L15.166 18.78C15.3029 18.9206 15.4908 19 15.687 19C15.8832 19 16.0712 18.9206 16.208 18.78L17.308 17.653C17.4479 17.5101 17.5262 17.318 17.526 17.118V7.074V7.062V6.6C17.526 6.17531 17.3572 5.76804 17.0567 5.46792C16.7562 5.16781 16.3487 4.99947 15.924 5ZM9.30001 8.5H13.465C13.8715 8.5 14.201 8.82952 14.201 9.236C14.201 9.64248 13.8715 9.972 13.465 9.972H9.30001C8.89353 9.972 8.56401 9.64248 8.56401 9.236C8.56401 8.82952 8.89353 8.5 9.30001 8.5ZM9.30001 11.188H11.429C11.692 11.188 11.9349 11.3283 12.0664 11.556C12.1979 11.7837 12.1979 12.0643 12.0664 12.292C11.9349 12.5197 11.692 12.66 11.429 12.66H9.30001C8.89353 12.66 8.56401 12.3305 8.56401 11.924C8.56401 11.5175 8.89353 11.188 9.30001 11.188Z" fill="#42526E"/>
</svg>
