<svg width="24" height="24" viewBox="0 0 24 24" fill="none" xmlns="http://www.w3.org/2000/svg">
<path fill-rule="evenodd" clip-rule="evenodd" d="M17.479 12.916H16.179C15.8969 12.9181 15.6554 13.1189 15.602 13.396C15.4014 15.1601 13.9184 16.4986 12.143 16.518C11.1559 16.5586 10.1967 16.1849 9.49725 15.4872C8.79781 14.7895 8.42177 13.8312 8.46 12.844C8.5489 11.1323 9.9866 9.80374 11.7 9.85V11.482C11.7002 11.6206 11.7792 11.747 11.9038 11.8078C12.0283 11.8686 12.1766 11.8531 12.286 11.768L16.052 8.836C16.1714 8.74115 16.241 8.59699 16.241 8.4445C16.241 8.29201 16.1714 8.14785 16.052 8.053L12.291 5.079C12.1818 4.99088 12.0317 4.97355 11.9053 5.03449C11.779 5.09542 11.699 5.22372 11.7 5.364V7.164C8.5955 7.25598 6.09852 9.7477 6 12.852C5.83459 16.1657 8.38679 18.9861 11.7005 19.1515C15.0142 19.3169 17.8346 16.7647 18 13.451C18.0073 13.3094 17.9552 13.1713 17.8563 13.0697C17.7574 12.9682 17.6207 12.9125 17.479 12.916Z" fill="#42526E"/>
</svg>
