<svg width="24" height="24" viewBox="0 0 24 24" fill="none" xmlns="http://www.w3.org/2000/svg">
<path fill-rule="evenodd" clip-rule="evenodd" d="M6.448 9.405H5.992C5.72892 9.40553 5.47644 9.30132 5.29032 9.11539C5.1042 8.92945 4.99974 8.67708 5 8.414V5.99C4.99973 5.727 5.10423 5.47473 5.29038 5.28896C5.47653 5.10318 5.72901 4.9992 5.992 5H15.347L10.791 9.556V7.424H7.43V8.414C7.43057 8.95804 6.99203 9.4006 6.448 9.405ZM18.747 5.251C18.9199 5.42723 19.0075 5.66998 18.987 5.916C18.9879 5.92782 18.9907 5.93881 18.9934 5.94972C18.9967 5.96282 19 5.97582 19 5.99V8.414C19.0003 8.67691 18.8959 8.92913 18.71 9.11503C18.5241 9.30094 18.2719 9.40526 18.009 9.405H17.555C17.0894 9.39518 16.6953 9.05839 16.613 8.6L13.213 12V16.574H13.982C14.5253 16.574 14.9671 17.0118 14.972 17.555V18.01C14.972 18.5568 14.5288 19 13.982 19H10.022C9.75926 19.0003 9.5072 18.8961 9.32132 18.7104C9.13544 18.5247 9.031 18.2727 9.031 18.01V17.555C9.03594 17.0114 9.47835 16.5734 10.022 16.574H10.791V14.426L6.47 18.749C6.13223 19.0765 5.59413 19.0722 5.26159 18.7394C4.92906 18.4066 4.92523 17.8685 5.253 17.531L17.53 5.251L17.781 5H18.012C18.023 5 18.0333 5.003 18.0435 5.006C18.0538 5.009 18.064 5.012 18.075 5.012C18.3231 4.98997 18.5685 5.07724 18.747 5.251Z" fill="#42526E"/>
</svg>
