<svg width="24" height="24" viewBox="0 0 24 24" fill="none" xmlns="http://www.w3.org/2000/svg">
<path fill-rule="evenodd" clip-rule="evenodd" d="M17.8895 5.26069C18.0311 5.30967 18.1323 5.43523 18.15 5.584L18.752 10.715C18.7732 10.8797 18.7168 11.045 18.5994 11.1624C18.482 11.2798 18.3167 11.3362 18.152 11.315L13.052 10.679C12.904 10.6604 12.7795 10.5591 12.7311 10.4181C12.6826 10.277 12.7187 10.1206 12.824 10.015L14.067 8.771C12.798 7.42703 10.6878 7.34308 9.316 8.582C8.8435 8.96994 8.48883 9.4822 8.292 10.061C8.22329 10.2925 8.00035 10.4429 7.76 10.42L6.111 10.228C5.97083 10.2133 5.8437 10.1392 5.76185 10.0244C5.68 9.90967 5.65129 9.76533 5.683 9.628C5.98559 8.51124 6.59576 7.50191 7.444 6.715C9.88317 4.42589 13.682 4.42852 16.118 6.721L17.485 5.354C17.5908 5.24796 17.748 5.21172 17.8895 5.26069ZM5.95045 18.7393C5.80887 18.6903 5.70771 18.5648 5.69 18.416L5.088 13.28C5.06851 13.1161 5.12562 12.9523 5.24283 12.8361C5.36004 12.7199 5.52426 12.6641 5.688 12.685L10.788 13.321C10.936 13.3397 11.0605 13.4409 11.1089 13.582C11.1574 13.723 11.1213 13.8794 11.016 13.985L9.773 15.233C11.042 16.577 13.1522 16.6609 14.524 15.422C14.9974 15.0333 15.3522 14.5194 15.548 13.939C15.6167 13.7075 15.8396 13.5571 16.08 13.58L17.73 13.772C17.87 13.787 17.9969 13.8612 18.0785 13.9759C18.1601 14.0906 18.1887 14.2348 18.157 14.372C17.8548 15.4889 17.2446 16.4984 16.396 17.285C13.9572 19.574 10.1587 19.5714 7.723 17.279L6.355 18.646C6.24916 18.752 6.09204 18.7883 5.95045 18.7393Z" fill="#42526E"/>
</svg>
