<svg width="24" height="24" viewBox="0 0 24 24" fill="none" xmlns="http://www.w3.org/2000/svg">
<path fill-rule="evenodd" clip-rule="evenodd" d="M8.387 9.762L8.37 9.85C8.27778 10.314 7.87304 10.6499 7.4 10.655C6.84772 10.655 6.4 10.2073 6.4 9.655V9.2C6.4 8.0402 7.3402 7.1 8.5 7.1H15.15V5.363C15.1489 5.26761 15.1859 5.17573 15.2527 5.10762C15.3195 5.03951 15.4106 5.00079 15.506 5C15.5979 5.00004 15.6861 5.03592 15.752 5.1L18.482 7.755C18.6958 7.96473 18.7038 8.30652 18.5 8.526L18.482 8.545L15.75 11.199C15.6824 11.2644 15.5915 11.2999 15.4975 11.2977C15.4035 11.2954 15.3143 11.2555 15.25 11.187C15.186 11.119 15.1503 11.0293 15.15 10.936V9.2H9.074C8.74032 9.19965 8.45278 9.43487 8.387 9.762ZM15.613 14.237L15.63 14.149C15.723 13.6843 16.1311 13.3498 16.605 13.35C16.8688 13.3497 17.1219 13.4543 17.3085 13.6408C17.4951 13.8272 17.6 14.0802 17.6 14.344V14.8C17.6 15.9598 16.6598 16.9 15.5 16.9H8.85V18.636C8.85107 18.7315 8.81416 18.8235 8.74739 18.8917C8.68063 18.96 8.58948 18.9989 8.494 19C8.40205 19.0003 8.31368 18.9644 8.248 18.9L5.518 16.245C5.30422 16.0353 5.29624 15.6935 5.5 15.474L5.516 15.455L8.25 12.8C8.31782 12.735 8.4088 12.6998 8.50271 12.7022C8.59662 12.7047 8.68565 12.7446 8.75 12.813C8.81398 12.8805 8.84975 12.97 8.85 13.063V14.8H14.926C15.26 14.8003 15.5476 14.5645 15.613 14.237Z" fill="#42526E"/>
</svg>
