<svg width="24" height="24" viewBox="0 0 24 24" fill="none" xmlns="http://www.w3.org/2000/svg">
<path fill-rule="evenodd" clip-rule="evenodd" d="M10.114 10.939V7.9C10.114 7.43 9.814 7.3 9.449 7.611L4.276 12.123C4.10096 12.2562 3.99873 12.464 4 12.684C4.00042 12.9039 4.10227 13.1112 4.276 13.246L9.449 17.77C9.816 18.081 10.114 17.95 10.114 17.481V14.44H10.989C14.3137 14.2655 17.1245 11.9183 17.889 8.678C17.9411 8.45473 17.9782 8.22822 18 8C18.026 7.765 17.913 7.714 17.746 7.877C17.746 7.877 17.698 7.921 17.659 7.965C15.8887 9.76167 13.5065 10.8253 10.987 10.944H10.112" fill="#42526E"/>
</svg>
