<svg width="24" height="24" viewBox="0 0 24 24" fill="none" xmlns="http://www.w3.org/2000/svg">
<path fill-rule="evenodd" clip-rule="evenodd" d="M5.353 13.624L8.931 17.118C9.22967 17.4095 9.66119 17.5196 10.063 17.4067C10.4648 17.2938 10.7759 16.9751 10.879 16.5707C10.9821 16.1663 10.8617 15.7375 10.563 15.446L9.026 13.946H13.181C16.3849 13.9438 18.9851 11.3538 19 8.15V7.719C19.0125 7.29339 18.7925 6.89466 18.4258 6.67818C18.0592 6.46169 17.6038 6.46169 17.2372 6.67818C16.8705 6.89466 16.6505 7.29339 16.663 7.719V8.15C16.6493 10.0633 15.0943 11.6071 13.181 11.607H9L10.5 10.1C10.7947 9.80437 10.9094 9.37394 10.8007 8.97087C10.6921 8.56779 10.3766 8.2533 9.97322 8.14587C9.56982 8.03843 9.13974 8.15437 8.845 8.45L5.341 11.963C5.12046 12.1839 4.99758 12.4839 4.99984 12.796C5.00209 13.1081 5.12929 13.4063 5.353 13.624Z" fill="#42526E"/>
</svg>
