<svg width="48" height="48" viewBox="0 0 48 48" fill="none" xmlns="http://www.w3.org/2000/svg">
<path d="M35.9993 34.5022C35.9738 33.6322 35.9468 32.9377 35.8425 32.5754L35.6198 31.8029L34.9958 32.3084C34.7783 32.4854 34.605 32.8034 34.4333 33.1184C34.1708 33.6022 33.8738 34.1497 33.3518 34.2607C33.3049 34.2704 33.2572 34.2755 33.2093 34.2757C32.9393 34.2757 32.7653 34.0642 32.4803 33.5887C32.2133 33.1424 31.9118 32.6362 31.278 32.6362C31.1715 32.6362 31.0605 32.6512 30.939 32.6819C30.5645 32.7777 30.1796 32.8266 29.793 32.8274C28.362 32.8274 27.2948 32.1532 26.7855 31.7504L26.427 31.4684L26.0933 31.7789C24.561 33.2009 22.1685 33.5324 20.4315 33.5602L20.1308 33.5647L19.98 33.8249C19.2615 35.0602 17.3175 35.5919 15.7575 36.0194C14.9925 36.2294 14.2688 36.4282 13.7708 36.6817C12.9675 37.0912 13.3035 38.1644 13.6598 39.3007L13.824 39.8227L36.0525 35.8979L36.033 35.4314C36.0188 35.1202 36.0083 34.8089 35.9993 34.5022ZM45.5798 28.2847C45.5093 28.1287 45.3113 27.8677 44.7938 27.8677C44.439 27.8677 43.932 27.9869 43.4723 28.1782L43.3913 28.2119L43.245 28.3469C42.759 28.7534 42.975 29.5079 43.362 30.6127C43.6155 31.3349 43.9028 32.1539 43.6718 32.5702C43.5878 32.7224 43.4348 32.8222 43.2038 32.8747C43.0875 32.9009 42.9788 32.9137 42.8798 32.9137C42.72 32.9207 42.5626 32.8731 42.4335 32.7787C42.0098 32.4532 41.976 31.5937 41.943 30.7627C41.9033 29.7517 41.8455 29.2477 41.4765 28.9777L41.2703 28.8907H41.1555C41.0805 28.8907 40.998 28.9027 40.9193 28.9252C39.9083 29.1974 40.101 29.9302 40.2555 30.5182C40.4505 31.2659 40.4588 31.6529 39.9855 31.9702C39.7823 32.1067 39.5955 32.1757 39.4313 32.1757C39.1403 32.1757 38.8995 31.9619 38.6865 31.7729C38.439 31.5539 38.184 31.3274 37.833 31.3274C37.626 31.3274 37.4603 31.4092 37.353 31.4707L37.191 31.5652L37.1235 31.7399C36.9945 32.0744 37.113 32.5064 37.791 34.1744C37.914 34.4744 38.037 34.7834 38.1555 35.0932L38.304 35.4794L38.715 35.4314C39.4298 35.3474 45.723 34.5862 46.3838 33.5189C46.962 32.3602 45.8033 28.7759 45.5798 28.2847ZM11.7968 38.5282C11.757 37.7609 11.7218 37.1954 11.6235 36.9044L11.4983 36.5324L11.1068 36.5422C10.809 36.5489 10.2863 36.7147 9.89927 36.8527C9.40727 37.0267 8.84927 37.2239 8.38127 37.2239C8.27927 37.2239 8.18327 37.2149 8.09627 37.1962C7.72127 37.1144 7.64102 36.8302 7.59302 36.1822C7.56077 35.7389 7.51952 35.1877 7.01852 35.0572C6.92434 35.0319 6.82727 35.0191 6.72977 35.0189C6.49727 35.0189 6.29102 35.0864 6.02177 35.1809C5.82902 35.2484 5.58977 35.3332 5.32727 35.3557L5.18777 35.3744C5.04302 35.3744 4.54052 35.4029 4.16927 35.7719C3.90152 36.0374 3.76952 36.4117 3.77777 36.8849C3.81752 39.5197 4.38302 41.0039 5.45852 41.2964C5.68802 41.3587 5.97527 41.3894 6.33677 41.3894C7.80377 41.3894 10.272 40.8644 11.4998 40.5539L11.949 40.4399L11.8988 39.9802C11.851 39.4972 11.817 39.013 11.7968 38.5282Z" fill="#FFA963"/>
<path d="M12.939 42.3524C12.726 42.3524 12.5333 42.2872 12.366 42.1604C11.691 41.6459 11.5665 40.2224 11.4825 38.5529C11.4488 37.8794 11.4015 36.9682 11.256 36.8752C11.207 36.8627 11.1566 36.8569 11.106 36.8579C10.8285 36.8579 10.431 36.9989 10.0103 37.1474C9.48904 37.3319 8.90403 37.5389 8.38203 37.5389C8.25828 37.5389 8.13979 37.5269 8.03104 37.5037C7.36579 37.3597 7.31778 36.7207 7.27878 36.2077C7.23379 35.6002 7.16104 35.4187 6.93829 35.3602C6.87115 35.3429 6.80209 35.3344 6.73279 35.3347C6.53404 35.3347 6.33003 35.4067 6.13278 35.4764C5.85904 35.5739 5.55528 35.6819 5.16753 35.6819C4.81278 35.6819 4.44304 35.5897 4.03504 35.3999C3.67129 35.2312 3.42604 34.9582 3.30904 34.5899C3.02254 33.6907 3.59328 32.4689 3.77478 32.1164L3.96303 31.7482L4.36803 31.8412C4.51428 31.8749 4.59303 31.8937 4.68003 31.9042C4.77978 31.9154 4.87278 31.9214 4.96128 31.9214C5.75478 31.9214 6.01878 31.4752 6.25278 31.0814C6.44253 30.7627 6.62029 30.4619 7.01554 30.4619C7.71529 30.5332 7.75129 31.1017 7.77979 31.5577C7.81504 32.1059 7.87204 32.5117 8.29129 32.7427C8.39573 32.8055 8.51448 32.8406 8.63629 32.8447C8.77654 32.8447 8.92579 32.7824 9.09379 32.6534L9.41928 32.4029L9.74329 32.6549C10.2818 33.0704 11.811 34.0372 14.3768 34.0372C15.231 34.0372 16.1273 33.9262 17.0408 33.7072C17.3805 33.6254 17.6933 33.5422 17.988 33.4567L18.0638 33.4349L18.267 33.4484C18.444 33.4739 19.6133 32.0572 20.2583 32.0827L20.6955 33.5977L19.9208 34.4452C18.993 35.4592 17.253 35.9362 15.855 36.3202C15.096 36.5279 14.3843 36.7229 13.9148 36.9622C13.4325 37.2074 13.5383 37.8584 13.9373 39.1349C14.232 40.0724 14.5365 41.0437 14.157 41.6999C13.9755 42.0149 13.6643 42.2174 13.2053 42.3209C13.1179 42.3408 13.0286 42.3519 12.939 42.3524Z" fill="#F9C900"/>
<path d="M45.5775 28.2825C45.51 28.1325 45.315 27.87 44.79 27.87C44.5425 27.87 44.2275 27.93 43.8975 28.0275C44.28 29.7525 44.4225 31.41 43.7475 32.025C43.77 32.2425 43.7475 32.43 43.6725 32.5725C43.59 32.7225 43.4325 32.82 43.2075 32.8725C43.0875 32.9025 42.975 32.9175 42.8775 32.9175C42.7177 32.9246 42.5607 32.874 42.435 32.775C42.3503 32.7112 42.2811 32.6292 42.2325 32.535C41.19 32.79 39.57 33.1725 37.5675 33.615C37.635 33.7875 37.71 33.975 37.7925 34.1775C37.9125 34.4775 38.04 34.785 38.1525 35.0925L38.3025 35.4825L38.715 35.43C39.4275 35.3475 45.72 34.5825 46.38 33.5175C46.965 32.3625 45.8025 28.7775 45.5775 28.2825ZM36 34.5C35.9925 34.32 35.985 34.14 35.985 33.975C29.715 35.3625 20.7225 37.26 13.77 38.5575C13.815 38.7375 13.8675 38.925 13.935 39.135C14.0025 39.345 14.07 39.5625 14.13 39.7725L36.0525 35.895L36.03 35.43C36.0225 35.1225 36.0075 34.8075 36 34.5ZM4.2525 40.02C4.53 40.725 4.935 41.145 5.46 41.295C5.685 41.3625 5.9775 41.3925 6.3375 41.3925C7.8075 41.3925 10.275 40.8675 11.4975 40.5525L11.655 40.515C11.58 40.0575 11.535 39.5325 11.505 38.97C8.19 39.5625 5.55 39.9675 4.2525 40.02Z" fill="#F49853"/>
<path d="M37.4498 39.2055C37.1753 39.2055 36.939 39.1305 36.7275 38.9737C35.865 38.3377 35.745 36.579 35.6835 34.5165C35.658 33.594 35.631 32.64 35.4435 32.4675C35.181 32.4697 35.016 32.7052 34.713 33.264C34.4168 33.81 34.0808 34.4272 33.4148 34.569C33.3525 34.5825 33.2865 34.5907 33.2213 34.5907C32.7135 34.5907 32.4578 34.1632 32.2103 33.7507C31.929 33.282 31.698 32.9512 31.2825 32.9512C31.1922 32.9524 31.1023 32.9645 31.0148 32.9872C30.616 33.0891 30.2061 33.141 29.7945 33.1417C28.6778 33.1417 27.774 32.7502 27.213 32.4217L25.62 31.3162L27.4793 31.4295C29.0363 31.422 30.3885 31.1122 31.497 30.5077L31.6208 30.4402L31.9538 30.4455C33.1478 30.4455 37.1888 30.2362 38.9738 27.5505L39.0848 27.387L39.2738 27.333C39.612 27.2385 39.8445 27.1005 39.9848 26.9092C40.2975 26.4847 40.1565 25.8457 40.0433 25.3335C40.0115 25.1946 39.984 25.0548 39.9608 24.9142L39.7928 23.7712L40.7708 24.3855C40.899 24.4657 41.0745 24.6067 41.2028 24.7132C41.5763 25.02 42.039 25.401 42.621 25.401C43.011 25.401 43.4363 25.2262 43.8855 24.8805C43.9133 24.8505 43.938 24.8272 43.9673 24.8032L44.5868 24.2887L44.8163 25.0627C45.1643 26.2372 44.7563 27.3975 43.6373 28.4167L43.5353 28.4977L43.4453 28.5907C43.1183 28.8675 43.338 29.5905 43.659 30.507C44.0033 31.4895 44.2253 32.2222 43.9478 32.7232C43.8158 32.9595 43.5953 33.1095 43.2728 33.1815C43.1348 33.213 43.0028 33.2295 42.8805 33.2295C42.5055 33.2295 42.309 33.0795 42.2438 33.03C41.7015 32.613 41.6625 31.6387 41.6288 30.7785C41.6018 30.1155 41.5748 29.4382 41.3265 29.256C41.2758 29.2214 41.2154 29.204 41.154 29.2065C41.102 29.2072 41.0503 29.2147 41.0003 29.229C40.3575 29.403 40.3703 29.7142 40.5593 30.4372C40.7108 31.017 40.899 31.7355 40.161 32.232C39.8963 32.4097 39.6638 32.493 39.4275 32.493C39.024 32.493 38.7615 32.2597 38.4825 32.013C38.2935 31.845 38.0618 31.6402 37.833 31.6402C37.7355 31.6402 37.6305 31.674 37.512 31.743C37.2128 31.917 37.6733 33.0495 38.0798 34.0485C38.7083 35.5927 39.417 37.3297 38.9033 38.3752C38.7188 38.7502 38.3895 39.0052 37.9238 39.1357C37.7696 39.1801 37.6102 39.2036 37.4498 39.2055Z" fill="#F9C900"/>
<path d="M32.5515 29.7787C32.7008 29.649 32.8478 29.5147 32.9865 29.3655L33.1215 29.2192L33.3188 29.1982C33.711 29.1555 34.0088 29.0235 34.2293 28.7955C34.6935 28.3125 34.7018 27.54 34.6845 27.231L34.6695 27.003L34.8263 26.8357C35.0288 26.6205 35.142 26.3167 35.2418 26.0257C35.3768 25.6282 35.4533 25.4407 35.6258 25.3132L35.6483 25.2967L35.733 25.248L35.85 25.2157L35.9963 25.1992C36.4965 25.1992 36.6923 25.6462 36.8993 26.1195C37.215 26.844 37.5248 27.4012 38.3933 27.4395L39.5295 27.4905L38.7638 28.3305C37.1363 30.117 34.4205 30.588 32.946 30.711L31.3283 30.8445L32.5515 29.7787Z" fill="#A02E14"/>
<path d="M27.4178 31.7317C25.5653 31.7317 23.8905 31.3342 23.0558 31.0972L22.3823 30.9059L22.7468 30.3074C22.9455 29.9827 22.8435 29.5462 22.7535 29.1614C22.6238 28.6109 22.5645 28.3597 22.6913 28.1227L22.8563 27.8137L23.2043 27.8422C23.397 27.8572 23.5703 27.9547 23.9618 28.2209C24.2828 28.4384 24.7658 28.7662 25.2495 28.7662C25.3418 28.7662 25.4333 28.7542 25.521 28.7309L25.7475 28.6687L25.947 28.7947C26.142 28.9199 26.6625 29.2094 27.252 29.2094C27.3795 29.2094 27.5055 29.1952 27.624 29.1674C28.149 29.0474 28.584 28.6619 28.92 28.0229C29.22 27.4492 29.4953 27.1762 29.811 27.1387H29.8133C30.2558 27.1387 30.546 27.4507 30.9825 27.9584C31.3965 28.4384 31.8638 28.9799 32.4863 29.1532L33.459 29.4232L32.6865 30.0734C32.3655 30.3434 32.0633 30.5579 31.761 30.7289C30.5783 31.3942 29.1173 31.7317 27.4178 31.7317Z" fill="#F40B1C"/>
<path d="M33.0645 29.5349C32.9535 29.5349 32.8395 29.5297 32.718 29.5162C31.833 29.4262 31.23 28.7279 30.7455 28.1662C30.456 27.8294 30.1298 27.4507 29.8778 27.4507C29.6715 27.4732 29.4375 27.7154 29.199 28.1677C28.8203 28.8914 28.3163 29.3302 27.702 29.4727C27.5595 29.5064 27.4088 29.5229 27.255 29.5229C26.9235 29.5229 26.5763 29.4449 26.2215 29.2919L25.464 28.9642L26.0745 28.4092C26.1267 28.3625 26.1767 28.3134 26.2245 28.2622C26.5343 27.9254 26.6573 27.5782 26.5898 27.2294C26.484 26.6759 25.9463 26.2034 25.5143 25.9057L24.5003 25.2052L25.704 24.9472C27.7958 24.4972 30.0345 24.0089 32.1975 23.5252L33.3008 23.2784L32.7885 24.2864C32.5848 24.7052 32.5161 25.177 32.592 25.6364C32.7308 26.4809 33.2633 27.0802 33.918 27.1274C34.0619 27.1378 34.2065 27.1267 34.347 27.0944L35.0468 26.9399L34.9928 27.6539C34.9508 28.2322 34.7678 28.6904 34.4528 29.0167C34.119 29.3609 33.6518 29.5349 33.0645 29.5349Z" fill="#599306"/>
<path d="M19.767 33.8692L17.553 33.5902L19.68 32.8507C21.471 32.0579 21.7095 31.2959 21.7388 31.1512L21.801 30.8527L22.089 30.7544C22.1563 30.7322 22.2224 30.7064 22.287 30.6772L22.482 30.5857L22.6853 30.6554C22.824 30.7034 24.0803 31.1279 25.7603 31.3282L27.0278 31.4789L26.0288 32.2739C24.3675 33.5947 21.9173 33.8722 20.1533 33.8722L19.767 33.8692Z" fill="#A02E14"/>
<path d="M14.4128 34.3463C11.853 34.3463 10.227 33.3863 9.64652 32.9738L9.17627 32.6393L9.62852 32.1023C9.93602 31.737 10.1588 31.491 10.44 31.4048L10.53 31.3823L10.6275 31.3755C10.9418 31.3755 11.2103 31.566 11.5215 31.788C11.9213 32.0715 12.3713 32.391 12.9068 32.391C13.1715 32.391 13.4393 32.316 13.7258 32.1623C13.9673 32.031 14.1698 31.8278 14.3258 31.5608L14.6168 31.0583L15.0923 31.3928C15.3938 31.6058 15.8745 31.8585 16.4483 31.8585C16.7505 31.8585 17.0505 31.7858 17.3423 31.6425C18.0398 31.2998 18.057 30.8288 18.0075 30.249L18.0038 30.204L18.3285 29.6093L18.9495 29.8268L19.0575 29.994C19.3275 30.423 19.6628 30.954 20.7855 30.954C20.9408 30.954 21.1095 30.9443 21.291 30.9225L22.4933 30.7778L21.7875 31.7618C21.3398 32.3858 20.166 33.2835 17.115 34.014C16.1925 34.2345 15.2828 34.3463 14.4128 34.3463Z" fill="#F40B1C"/>
<path d="M16.4453 32.1712C15.5978 32.1712 14.9588 31.7084 14.724 31.5097L14.472 31.2952L14.5508 30.9742C14.742 30.0307 14.421 28.8067 14.0048 28.0889L13.6313 27.4439L14.361 27.2992C17.2812 26.717 20.1977 26.117 23.1105 25.4992L24.8685 25.1264L25.0598 25.2614C25.6845 25.5937 26.7263 26.2702 26.8988 27.1694C26.9858 27.6232 26.8373 28.0619 26.4563 28.4759C26.0783 28.8869 25.68 29.0864 25.239 29.0864C24.7215 29.0864 24.2558 28.7999 23.784 28.4819C23.592 28.3507 23.301 28.1527 23.1518 28.1527C22.9148 28.3304 22.938 28.5712 23.0588 29.0879C23.1668 29.5484 23.289 30.0704 22.9965 30.5084C22.7633 30.8602 22.299 31.0897 21.5768 31.2104C21.2813 31.2592 21.0083 31.2847 20.7638 31.2847C19.4985 31.2847 19.0785 30.6187 18.801 30.1777C18.6113 29.8754 18.5385 29.8027 18.426 29.8027C18.369 29.8057 18.3413 29.8177 18.336 29.8252C18.291 29.8762 18.3083 30.0742 18.321 30.2182C18.363 30.7132 18.4275 31.4609 17.481 31.9259C17.1592 32.0862 16.8048 32.1701 16.4453 32.1712ZM38.478 27.7649C37.2735 27.7649 36.909 26.9294 36.615 26.2582C36.39 25.7422 36.2528 25.5127 36.03 25.5127C35.9812 25.5133 35.9326 25.5198 35.8853 25.5322C35.7405 25.5689 35.6505 25.8007 35.5403 26.1247C35.3505 26.6834 35.0903 27.4492 34.0628 27.4492C34.0088 27.4492 33.9533 27.4469 33.894 27.4417C32.967 27.3742 32.4165 26.5117 32.2815 25.6874C32.1345 24.7814 32.439 23.6759 33.4538 23.2522C38.559 22.0912 41.7563 21.3029 42.981 20.9032L43.2765 20.8057L43.5068 21.0172C43.845 21.3284 44.9483 22.4377 44.9138 23.6369C44.8958 24.2129 44.6145 24.7154 44.0775 25.1294C43.5705 25.5209 43.0935 25.7114 42.6195 25.7114C41.9198 25.7114 41.4315 25.3094 41.0018 24.9547C40.7655 24.7619 40.5248 24.5639 40.3695 24.5639C40.281 24.5789 40.203 24.5977 40.3508 25.2652C40.4783 25.8404 40.6358 26.5567 40.2383 27.0967C39.9593 27.4762 39.462 27.6914 38.7173 27.7537C38.6348 27.7612 38.5545 27.7649 38.478 27.7649Z" fill="#77A505"/>
<path d="M8.634 33.1544C8.46001 33.1522 8.28953 33.1052 8.139 33.0179C7.53675 32.6872 7.49775 32.0729 7.46625 31.5779C7.425 30.9232 7.33275 30.8092 7.056 30.7792C6.825 30.7799 6.7185 30.9149 6.53475 31.2239C6.28125 31.6514 5.93475 32.2364 4.96575 32.2364C4.86825 32.2364 4.76175 32.2304 4.6455 32.2177C3.93375 32.1359 3.4095 31.8592 3.0855 31.3942C2.63475 30.7447 2.71425 29.9167 2.769 29.5919L2.8425 29.1644L3.276 29.1494C4.64175 29.1007 8.106 28.5314 13.5705 27.4559L13.89 27.3937L14.091 27.6487C14.481 28.1399 15.1327 29.6804 14.871 31.0102C14.742 31.6627 14.397 32.1562 13.8735 32.4389C13.542 32.6189 13.2232 32.7067 12.9007 32.7067C12.2715 32.7067 11.7967 32.3692 11.3775 32.0722C11.1135 31.8847 10.842 31.6897 10.635 31.6897C10.6001 31.6897 10.5655 31.695 10.5322 31.7054C10.3192 31.7714 10.0912 32.0429 9.87075 32.3054C9.45225 32.8019 9.11775 33.1544 8.63325 33.1544H8.634Z" fill="#599306"/>
<path d="M3.45077 21.8227C7.26302 17.1419 16.344 6.23995 18.1755 5.6677C18.288 5.6332 18.417 5.6167 18.5708 5.6167C21.5663 5.6167 38.7383 12.7124 41.9933 15.0067L42.6623 15.5504L41.8238 15.9577C40.035 16.4324 30.6585 18.9007 21.6975 20.8904C12.813 22.8629 3.98627 24.4387 2.30777 24.7349L1.42877 24.5369C1.42877 24.5369 2.53577 22.9469 3.45077 21.8227Z" fill="#FCC683"/>
<path d="M42.66 15.5474L41.82 15.9599C40.035 16.4324 30.66 18.8999 21.6975 20.8874C12.81 22.8599 3.99 24.4424 2.31 24.7349L1.4325 24.5399C1.4325 24.5399 1.9425 23.7974 2.5575 22.9724C6.285 22.2674 11.4 21.2624 16.53 20.1224C25.17 18.2024 34.2 15.8399 36.435 15.2474C36.585 15.2099 36.72 15.1574 36.855 15.0899L37.4925 14.7824L36.9075 14.3099C36.8475 14.2649 36.8025 14.2274 36.7425 14.1824C34.1325 12.4049 23.835 7.98743 17.685 5.93243C17.88 5.79743 18.045 5.70743 18.1725 5.66993C18.285 5.63243 18.42 5.61743 18.57 5.61743C21.5625 5.61743 38.7375 12.7124 41.9925 15.0074L42.66 15.5474Z" fill="#F7BE7F"/>
<path d="M3.26627 29.5372C3.12902 29.5372 3.00527 29.5244 2.88977 29.4989L2.78852 29.4689C2.20802 29.1269 1.76252 28.2742 1.51277 27.0974C1.34927 26.3287 1.30052 25.5689 1.37702 24.9584L1.42952 24.5369L1.85702 24.4694C1.92977 24.4574 11.622 22.8044 21.63 20.5829C29.3378 18.8722 37.2075 16.8442 40.4978 15.9809C41.4255 15.7379 42.6623 15.5504 42.6623 15.5504L42.7695 15.8054C43.8225 17.9129 44.742 20.1817 43.569 21.0097C43.1078 21.3352 42.4868 21.4717 41.94 21.5917C41.7773 21.6269 41.6235 21.6607 41.4863 21.6974C40.0845 22.0724 38.6858 22.4039 37.3725 22.7114C33.4485 23.6332 29.5673 24.4664 25.9575 25.2307C22.9883 25.8607 19.893 26.4982 16.7573 27.1259C14.2367 27.6339 11.7121 28.1219 9.18377 28.5899L8.83877 28.6537C7.30727 28.9357 5.73902 29.2252 4.18127 29.4284C4.10927 29.4374 4.03202 29.4509 3.95327 29.4637C3.74402 29.4982 3.50777 29.5372 3.26627 29.5372Z" fill="#FFA963"/>
<path d="M43.5675 21.0075C43.11 21.3375 42.4875 21.4725 41.94 21.5925C41.775 21.63 41.625 21.66 41.49 21.6975C40.0875 22.0725 38.685 22.4025 37.3725 22.71C33.45 23.6325 29.565 24.465 25.9575 25.23C22.9875 25.86 19.89 26.4975 16.755 27.1275C13.77 27.7275 11.3625 28.1925 9.1875 28.59L8.8425 28.65C7.305 28.935 5.7375 29.2275 4.185 29.43C4.11 29.4375 4.035 29.4525 3.9525 29.46C3.7425 29.4975 3.51 29.535 3.27 29.535C3.1275 29.535 3.0075 29.5275 2.8875 29.4975L2.79 29.4675C2.5125 29.31 2.265 29.0325 2.0625 28.6575L2.2275 28.635C2.31 28.62 2.385 28.605 2.46 28.5975C4.0125 28.395 5.5875 28.1025 7.1175 27.825L7.4625 27.7575C9.6375 27.36 12.045 26.895 15.03 26.295C18.1725 25.665 21.2625 25.0275 24.2325 24.3975C27.84 23.64 31.725 22.8 35.6475 21.885C36.96 21.5775 38.3625 21.24 39.765 20.865C39.9 20.8275 40.0575 20.7975 40.215 20.76C40.7625 20.64 41.385 20.505 41.8425 20.1825C42.8775 19.455 42.2925 17.625 41.43 15.765C42.0825 15.6375 42.66 15.5475 42.66 15.5475L42.7725 15.8025C43.8225 17.91 44.745 20.1825 43.5675 21.0075Z" fill="#F49853"/>
</svg>
