<svg width="24" height="24" viewBox="0 0 24 24" fill="none" xmlns="http://www.w3.org/2000/svg">
<path fill-rule="evenodd" clip-rule="evenodd" d="M11.984 19H6.556C6.14132 19.0049 5.74224 18.8421 5.44928 18.5486C5.15632 18.2551 4.99431 17.8557 5 17.441C5 13.8137 5 10.185 5 6.55499C4.99625 6.14283 5.15778 5.74634 5.44848 5.45414C5.73918 5.16193 6.13483 4.99837 6.547 4.99999C9.61367 4.99999 12.6777 4.99999 15.739 4.99999C15.8365 4.99315 15.932 5.02976 16 5.09999C16.965 6.07099 17.935 7.03599 18.9 8.00799C18.9604 8.07339 18.9959 8.15803 19 8.24699C19 11.3223 19 14.397 19 17.471C18.9903 18.3102 18.3132 18.9887 17.474 19H11.984ZM13.841 7.46799H8.041C7.49976 7.46799 7.061 7.90675 7.061 8.44799V9.57999C7.061 10.1212 7.49976 10.56 8.041 10.56H13.841C14.1009 10.56 14.3502 10.4567 14.534 10.273C14.7178 10.0892 14.821 9.8399 14.821 9.57999V8.44799C14.821 8.18808 14.7178 7.93881 14.534 7.75502C14.3502 7.57124 14.1009 7.46799 13.841 7.46799ZM12 16.618C13.1055 16.6178 14.0034 15.7249 14.0097 14.6195C14.016 13.514 13.1284 12.6109 12.0229 12.5981C10.9175 12.5853 10.0093 13.4677 9.99 14.573C9.98089 15.112 10.1886 15.6322 10.5665 16.0167C10.9444 16.4011 11.4609 16.6178 12 16.618Z" fill="#42526E"/>
</svg>
