<svg width="24" height="24" viewBox="0 0 24 24" fill="none" xmlns="http://www.w3.org/2000/svg">
<path fill-rule="evenodd" clip-rule="evenodd" d="M18.6345 17.3508L21.7175 20.4329C22.574 21.2892 21.2896 22.5739 20.4331 21.7177L17.3499 18.6353C13.6462 21.69 8.1824 21.4566 4.74917 18.0233C1.08361 14.3578 1.08361 8.41473 4.74917 4.74917C8.41473 1.08361 14.3578 1.08361 18.0233 4.74917C21.4569 8.18273 21.69 13.6472 18.6345 17.3508ZM16.7387 6.03376C13.7826 3.07767 8.98986 3.07767 6.03376 6.03376C3.07767 8.98986 3.07767 13.7826 6.03376 16.7387C8.98986 19.6948 13.7826 19.6948 16.7387 16.7387C19.6948 13.7826 19.6948 8.98986 16.7387 6.03376Z" fill="#42526E"/>
</svg>
