<svg width="24" height="24" viewBox="0 0 24 24" fill="none" xmlns="http://www.w3.org/2000/svg">
<path fill-rule="evenodd" clip-rule="evenodd" d="M18.209 6.03L5.59999 10.877C5.35914 10.9701 5.20207 11.2037 5.20677 11.4618C5.21146 11.72 5.37692 11.9477 5.62099 12.032L8.42099 13.013C8.6701 13.1003 8.94518 13.0717 9.17099 12.935L15.289 9.246C15.374 9.20265 15.4778 9.22537 15.5369 9.30028C15.596 9.37519 15.5939 9.48142 15.532 9.554L10.942 14.216C10.7775 14.3612 10.6826 14.5696 10.681 14.789L10.659 19.6C10.6709 19.7932 10.8111 19.9542 11.0009 19.9924C11.1906 20.0306 11.3823 19.9365 11.468 19.763L13.154 16.343C13.3611 16.0117 13.7947 15.9061 14.131 16.105L17.122 17.755C17.3165 17.8618 17.5521 17.8618 17.7467 17.755C17.9412 17.6482 18.0677 17.4495 18.082 17.228L18.79 6.418C18.7905 6.27746 18.7206 6.14602 18.6037 6.06797C18.4868 5.98992 18.3386 5.97566 18.209 6.03Z" fill="#42526E"/>
</svg>
