<svg width="24" height="24" viewBox="0 0 24 24" fill="none" xmlns="http://www.w3.org/2000/svg">
<path fill-rule="evenodd" clip-rule="evenodd" d="M6.86601 10.02C7.03505 10.447 7.39202 10.7718 7.83301 10.9L12.619 12L7.87801 13.039C7.42665 13.1625 7.05961 13.491 6.88701 13.926L5.74901 17.9C5.62138 18.216 5.70799 18.5782 5.96479 18.8023C6.22158 19.0264 6.59216 19.0632 6.88801 18.894L17.9 12.7C18.1547 12.5591 18.3127 12.291 18.3127 12C18.3127 11.709 18.1547 11.4409 17.9 11.3L6.88801 5.106C6.59216 4.93677 6.22158 4.97357 5.96479 5.19767C5.70799 5.42177 5.62138 5.78397 5.74901 6.1L6.86601 10.02Z" fill="#42526E"/>
</svg>
