<svg width="24" height="24" viewBox="0 0 24 24" fill="none" xmlns="http://www.w3.org/2000/svg">
<path fill-rule="evenodd" clip-rule="evenodd" d="M17.519 11L18.505 10.468C18.6539 10.3896 18.7649 10.2545 18.8131 10.0933C18.8612 9.93206 18.8425 9.75822 18.761 9.61099L17.686 7.66899C17.5144 7.36092 17.1268 7.2485 16.817 7.41699L15.828 7.95199C15.4805 8.10659 15.0788 8.07771 14.757 7.87499C14.622 7.78799 14.484 7.70799 14.346 7.63399C14.0109 7.45652 13.7898 7.12001 13.76 6.74199V5.63299C13.7595 5.46441 13.6919 5.30295 13.5722 5.18421C13.4526 5.06547 13.2906 4.99919 13.122 4.99999H10.88C10.5295 4.99944 10.2446 5.28252 10.243 5.63299V6.74599C10.2127 7.12283 9.99211 7.45812 9.65799 7.63499C9.54799 7.69399 9.43799 7.75699 9.33099 7.82399C9.00427 8.02003 8.60112 8.03955 8.25699 7.87599L7.49999 7.44899C7.19478 7.27431 6.80586 7.37722 6.62699 7.67999L5.50899 9.59999C5.42446 9.74519 5.40196 9.91831 5.44654 10.0803C5.49113 10.2423 5.59906 10.3795 5.74599 10.461L6.50199 10.892C6.81772 11.0994 7.0038 11.4553 6.99399 11.833C6.99399 11.914 6.99399 11.991 6.99399 12.071C6.99333 12.4483 6.79932 12.799 6.47999 13L5.49999 13.534C5.35107 13.6124 5.24006 13.7475 5.19206 13.9088C5.14407 14.0701 5.16315 14.2439 5.24499 14.391L6.31399 16.33C6.48556 16.6381 6.87323 16.7505 7.18299 16.582L8.17599 16.047C8.52185 15.8909 8.92312 15.9199 9.24299 16.124C9.37799 16.211 9.51599 16.292 9.65799 16.365C9.99205 16.5434 10.2125 16.8795 10.243 17.257V18.367C10.2452 18.7176 10.5304 19.0005 10.881 19H13.122C13.473 19.0011 13.7588 18.718 13.761 18.367V17.253C13.789 16.8756 14.0103 16.5396 14.346 16.365C14.456 16.305 14.565 16.242 14.672 16.176C14.9991 15.98 15.4025 15.9604 15.747 16.124L16.502 16.55C16.8069 16.7246 17.1955 16.6216 17.374 16.319L18.491 14.4C18.5752 14.2546 18.5974 14.0815 18.5526 13.9196C18.5078 13.7576 18.3999 13.6205 18.253 13.539L17.495 13.109C17.1826 12.8983 16.9982 12.5437 17.005 12.167C17.005 12.087 17.005 12.007 17.005 11.926C17.0067 11.5497 17.2006 11.2004 17.519 11ZM12 14.464C10.6432 14.4447 9.55712 13.3325 9.5701 11.9757C9.58309 10.6188 10.6902 9.52757 12.0472 9.53427C13.4041 9.54097 14.5004 10.6431 14.5 12C14.4963 12.6586 14.2306 13.2886 13.7615 13.751C13.2924 14.2133 12.6586 14.4699 12 14.464Z" fill="#42526E"/>
</svg>
