<svg width="24" height="24" viewBox="0 0 24 24" fill="none" xmlns="http://www.w3.org/2000/svg">
<path fill-rule="evenodd" clip-rule="evenodd" d="M12.373 5.067L17.758 7.054C18.1825 7.20943 18.4651 7.61297 18.466 8.065V11.047C18.5712 14.8692 15.919 18.216 12.174 18.987C12.0614 19.0057 11.9466 19.0057 11.834 18.987C8.08894 18.216 5.43678 14.8692 5.54199 11.047V8.065C5.54168 7.61501 5.82067 7.21206 6.24199 7.054L11.627 5.067C11.8677 4.97804 12.1323 4.97804 12.373 5.067ZM11.811 13.844L14.824 10.569L14.832 10.573C14.9972 10.3665 15.0397 10.0875 14.9435 9.84119C14.8473 9.59484 14.627 9.41854 14.3655 9.37869C14.1041 9.33884 13.8412 9.4415 13.676 9.648L11.176 12.277L10.276 11.377C9.98687 11.0879 9.51811 11.0879 9.22899 11.377C8.93987 11.6661 8.93987 12.1349 9.22899 12.424L10.71 13.9C10.8482 14.0399 11.0364 14.1191 11.233 14.12H11.274C11.4842 14.109 11.6797 14.0086 11.811 13.844Z" fill="#42526E"/>
</svg>
