<svg width="24" height="24" viewBox="0 0 24 24" fill="none" xmlns="http://www.w3.org/2000/svg">
<path fill-rule="evenodd" clip-rule="evenodd" d="M18.356 7.1L16.659 5.409C16.3959 5.14738 16.04 5.00036 15.669 5H8.331C7.9601 5.0001 7.60427 5.14674 7.341 5.408L5.644 7.1C5.23155 7.51156 4.99983 8.07034 5 8.653V16.806C5.00331 18.0187 5.98731 19 7.2 19H16.8C18.015 19 19 18.015 19 16.8V8.653C19.0002 8.07034 18.7685 7.51156 18.356 7.1ZM12 15.025C9.95518 15.0256 8.29631 13.3698 8.293 11.325C8.293 10.8605 8.66953 10.484 9.134 10.484C9.59847 10.484 9.975 10.8605 9.975 11.325C9.99946 12.4256 10.8987 13.305 11.9995 13.305C13.1003 13.305 13.9995 12.4256 14.024 11.325C14.024 10.86 14.401 10.483 14.866 10.483C15.331 10.483 15.708 10.86 15.708 11.325C15.7047 13.3702 14.0452 15.0261 12 15.025ZM8.832 6.541H15.194C15.3961 6.54119 15.588 6.63001 15.719 6.784L17.1 8.41H6.738L8.338 6.752C8.46727 6.61763 8.64555 6.54149 8.832 6.541Z" fill="#42526E"/>
</svg>
