<svg width="24" height="24" viewBox="0 0 24 24" fill="none" xmlns="http://www.w3.org/2000/svg">
<path fill-rule="evenodd" clip-rule="evenodd" d="M12 19C9.41176 19.0008 7.0343 17.5733 5.81838 15.2885C4.60246 13.0037 4.74654 10.2343 6.193 8.088C6.393 7.81107 6.70524 7.63678 7.04593 7.61189C7.38662 7.58701 7.72088 7.71407 7.959 7.959C8.35219 8.36571 8.40407 8.99325 8.083 9.459C6.81885 11.4105 7.18409 13.9949 8.93952 15.5197C10.695 17.0445 13.305 17.0445 15.0605 15.5197C16.8159 13.9949 17.1811 11.4105 15.917 9.459C15.5959 8.99325 15.6478 8.36571 16.041 7.959C16.2791 7.71407 16.6134 7.58701 16.9541 7.61189C17.2948 7.63678 17.607 7.81107 17.807 8.088C19.2535 10.2343 19.3975 13.0037 18.1816 15.2885C16.9657 17.5733 14.5882 19.0008 12 19ZM12 12C11.6904 12.0003 11.3934 11.8774 11.1745 11.6585C10.9556 11.4396 10.8327 11.1426 10.833 10.833V6.167C10.8327 5.85741 10.9556 5.56043 11.1745 5.34151C11.3934 5.1226 11.6904 4.99973 12 5C12.3094 5 12.6061 5.12298 12.8248 5.34187C13.0435 5.56075 13.1663 5.85758 13.166 6.167V10.833C13.1663 11.1424 13.0435 11.4392 12.8248 11.6581C12.6061 11.877 12.3094 12 12 12Z" fill="#42526E"/>
</svg>
