<svg width="24" height="24" viewBox="0 0 24 24" fill="none" xmlns="http://www.w3.org/2000/svg">
<path fill-rule="evenodd" clip-rule="evenodd" d="M17.713 6C18.0544 5.99947 18.382 6.13517 18.623 6.377C18.8648 6.61803 19.0005 6.94556 19 7.287V18.713C19 19.0543 18.8644 19.3817 18.6231 19.623C18.3817 19.8644 18.0543 20 17.713 20H14.488C13.7772 20 13.201 19.4238 13.201 18.713C13.201 18.0022 13.7772 17.426 14.488 17.426H16.427V8.573H14.488C14.0198 8.58605 13.5815 8.34374 13.3436 7.94033C13.1057 7.53691 13.1057 7.03609 13.3436 6.63267C13.5815 6.22925 14.0198 5.98694 14.488 6H17.713ZM14.146 12.325C14.3668 12.5462 14.49 12.8465 14.488 13.159C14.4855 13.471 14.3584 13.7691 14.135 13.987L11.345 16.693C11.0463 16.9845 10.6148 17.0946 10.213 16.9817C9.8112 16.8688 9.50014 16.5501 9.39701 16.1457C9.29388 15.7413 9.41433 15.3125 9.71301 15.021L10.462 14.307H9.97201C8.08303 14.305 6.31278 13.3853 5.22501 11.841C5.03446 11.5797 4.95953 11.2515 5.01776 10.9334C5.07598 10.6152 5.26225 10.3349 5.53301 10.158C6.06171 9.82201 6.76145 9.96426 7.11701 10.48C7.76828 11.4134 8.83382 11.9707 9.97201 11.973H10.492L9.77501 11.25C9.31937 10.793 9.32049 10.0531 9.77751 9.5975C10.2345 9.14186 10.9744 9.14298 11.43 9.6L14.146 12.325Z" fill="#42526E"/>
</svg>
