<svg width="24" height="24" viewBox="0 0 24 24" fill="none" xmlns="http://www.w3.org/2000/svg">
<path fill-rule="evenodd" clip-rule="evenodd" d="M17.713 6C18.0544 5.99947 18.3819 6.13517 18.623 6.377C18.8648 6.61803 19.0005 6.94556 19 7.287V18.713C19 19.0543 18.8644 19.3817 18.623 19.623C18.3817 19.8644 18.0543 20 17.713 20H14.488C13.7772 20 13.201 19.4238 13.201 18.713C13.201 18.0022 13.7772 17.426 14.488 17.426H16.427V8.573H14.488C14.0198 8.58605 13.5815 8.34374 13.3436 7.94033C13.1056 7.53691 13.1056 7.03609 13.3436 6.63267C13.5815 6.22925 14.0198 5.98694 14.488 6H17.713ZM8.99998 11.831H12.968C13.6 11.8495 14.1028 12.3672 14.1028 12.9995C14.1028 13.6318 13.6 14.1495 12.968 14.168H9.02598L9.77498 14.882C10.0737 15.1735 10.1941 15.6023 10.091 16.0067C9.98784 16.4111 9.67678 16.7298 9.27497 16.8427C8.87317 16.9556 8.44165 16.8455 8.14298 16.554L5.35298 13.847C5.12927 13.6293 5.00207 13.3311 4.99982 13.019C4.99756 12.7069 5.12043 12.4069 5.34098 12.186L8.06298 9.458C8.35772 9.16254 8.7877 9.04677 9.19095 9.1543C9.59419 9.26182 9.90945 9.57631 10.0179 9.9793C10.1265 10.3823 10.0117 10.8125 9.71698 11.108L8.99998 11.831Z" fill="#42526E"/>
</svg>
