<svg width="24" height="24" viewBox="0 0 24 24" fill="none" xmlns="http://www.w3.org/2000/svg">
<path fill-rule="evenodd" clip-rule="evenodd" d="M6.79 9.724C9.83343 7.28008 14.1666 7.28008 17.21 9.724C17.6847 10.1043 18.3777 10.0277 18.758 9.553C19.1382 9.07831 19.0617 8.38525 18.587 8.005C14.7386 4.91695 9.26144 4.91695 5.413 8.005C4.93831 8.38525 4.86175 9.07831 5.242 9.553C5.62225 10.0277 6.31531 10.1043 6.79 9.724ZM16.124 12.846C16.5036 12.3718 16.4271 11.6797 15.953 11.3C13.6524 9.42148 10.3476 9.42148 8.047 11.3C7.74029 11.546 7.5881 11.9369 7.64777 12.3255C7.70743 12.7141 7.96989 13.0414 8.33627 13.184C8.70264 13.3266 9.11729 13.263 9.424 13.017C10.9269 11.8033 13.0731 11.8033 14.576 13.017C14.8038 13.1999 15.0951 13.2847 15.3855 13.2526C15.6759 13.2205 15.9416 13.0742 16.124 12.846ZM12 15.021C11.0915 15.021 10.355 15.7575 10.355 16.666C10.355 17.5745 11.0915 18.311 12 18.311C12.9085 18.311 13.645 17.5745 13.645 16.666C13.645 15.7575 12.9085 15.021 12 15.021Z" fill="#42526E"/>
</svg>
