<svg width="24" height="24" viewBox="0 0 24 24" fill="none" xmlns="http://www.w3.org/2000/svg">
<path fill-rule="evenodd" clip-rule="evenodd" d="M9.62399 10.1V6C9.62399 5.44772 9.17627 5 8.62399 5H8.23699C7.6847 5 7.23699 5.44772 7.23699 6V10.1C6.03891 10.5838 5.25449 11.7464 5.25449 13.0385C5.25449 14.3306 6.03891 15.4932 7.23699 15.977V18C7.23699 18.5523 7.6847 19 8.23699 19H8.62499C9.17727 19 9.62499 18.5523 9.62499 18V15.976C10.8231 15.4922 11.6075 14.3296 11.6075 13.0375C11.6075 11.7454 10.8231 10.5828 9.62499 10.099L9.62399 10.1ZM8.42999 14.213C7.7805 14.2124 7.25444 13.6855 7.25499 13.036C7.25554 12.3865 7.7825 11.8604 8.43199 11.861C9.08147 11.8616 9.60754 12.3885 9.60699 13.038C9.60588 13.6873 9.07925 14.213 8.42999 14.213ZM16.678 8.023V6C16.678 5.44772 16.2303 5 15.678 5H15.29C14.7377 5 14.29 5.44772 14.29 6V8.024C13.0919 8.50776 12.3075 9.67044 12.3075 10.9625C12.3075 12.2546 13.0919 13.4172 14.29 13.901V18C14.29 18.5523 14.7377 19 15.29 19H15.678C16.2303 19 16.678 18.5523 16.678 18V13.9C17.8761 13.4162 18.6605 12.2536 18.6605 10.9615C18.6605 9.66944 17.8761 8.50676 16.678 8.023ZM15.484 12.138C14.8345 12.138 14.308 11.6115 14.308 10.962C14.308 10.3125 14.8345 9.786 15.484 9.786C16.1335 9.786 16.66 10.3125 16.66 10.962C16.6594 11.6113 16.1332 12.1374 15.484 12.138Z" fill="#42526E"/>
</svg>
