<svg width="24" height="24" viewBox="0 0 24 24" fill="none" xmlns="http://www.w3.org/2000/svg">
<path fill-rule="evenodd" clip-rule="evenodd" d="M8.225 9.75399C8.22548 9.24105 8.25519 8.72855 8.314 8.21899C8.47939 7.25555 9.07608 6.42056 9.934 5.95199C11.5045 5.05629 13.4737 5.27779 14.806 6.49999C15.4271 7.08673 15.7772 7.90462 15.773 8.75899C15.765 9.39899 15.747 10.039 15.713 10.678C15.702 10.889 15.787 11.003 15.971 10.988C16.2277 10.9694 16.4813 10.9197 16.726 10.84C16.9565 10.7471 17.2188 10.782 17.417 10.932C17.51 10.9799 17.5714 11.0727 17.579 11.1771C17.5865 11.2815 17.5392 11.3822 17.454 11.443C17.257 11.583 17.045 11.7007 16.822 11.794C16.61 11.894 16.376 11.952 16.171 12.064C16.0161 12.13 15.896 12.258 15.8401 12.4168C15.7842 12.5756 15.7976 12.7505 15.877 12.899C16.359 14.1949 17.4455 15.1723 18.785 15.515C18.866 15.535 19 15.597 19 15.64C18.999 15.7443 18.9578 15.8443 18.885 15.919C18.7703 16.0176 18.6375 16.093 18.494 16.141C18.2139 16.256 17.9202 16.3343 17.62 16.374C17.196 16.399 17.049 16.614 16.987 16.993C16.921 17.393 16.861 17.419 16.457 17.333C15.5795 17.0961 14.6417 17.2976 13.939 17.874C13.3875 18.3584 12.6726 18.615 11.939 18.592C11.4827 18.5851 11.0355 18.4629 10.639 18.237C10.4258 18.1193 10.2219 17.9856 10.029 17.837C9.35519 17.2918 8.46057 17.1032 7.624 17.33C7.534 17.349 7.442 17.36 7.35 17.373C7.199 17.393 7.085 17.327 7.08 17.179C7.062 16.579 6.723 16.369 6.169 16.33C5.90299 16.2887 5.64474 16.2074 5.403 16.089C5.27939 16.0357 5.16859 15.9566 5.078 15.857C4.939 15.706 4.983 15.577 5.183 15.534C6.47109 15.2293 7.5389 14.3329 8.062 13.117C8.368 12.517 8.228 12.185 7.602 11.933C7.345 11.833 7.077 11.75 6.829 11.633C6.508 11.476 6.397 11.265 6.492 11.071C6.65671 10.8393 6.95602 10.7464 7.223 10.844C7.48546 10.9233 7.75567 10.9743 8.029 10.996C8.243 11.012 8.358 10.896 8.32 10.643C8.276 10.352 8.279 10.055 8.262 9.76099L8.225 9.75399Z" fill="#42526E"/>
</svg>
