<svg width="24" height="24" viewBox="0 0 24 24" fill="none" xmlns="http://www.w3.org/2000/svg">
<path fill-rule="evenodd" clip-rule="evenodd" d="M5.1 11.764L9.385 7.478C9.48013 7.38244 9.62349 7.35368 9.74812 7.40515C9.87274 7.45662 9.95403 7.57816 9.954 7.713V16.287C9.95403 16.4218 9.87274 16.5434 9.74812 16.5949C9.62349 16.6463 9.48013 16.6176 9.385 16.522L5.1 12.236C4.9698 12.1056 4.9698 11.8944 5.1 11.764ZM18.9 12.236L14.616 16.522C14.5209 16.6176 14.3775 16.6463 14.2529 16.5949C14.1283 16.5434 14.047 16.4218 14.047 16.287V7.713C14.047 7.57816 14.1283 7.45662 14.2529 7.40515C14.3775 7.35368 14.5209 7.38244 14.616 7.478L18.9 11.764C19.0302 11.8944 19.0302 12.1056 18.9 12.236Z" fill="#42526E"/>
</svg>
