<svg width="24" height="24" viewBox="0 0 24 24" fill="none" xmlns="http://www.w3.org/2000/svg">
<path fill-rule="evenodd" clip-rule="evenodd" d="M12.24 5.1L16.613 9.472C16.7096 9.56948 16.7383 9.71537 16.6859 9.8422C16.6335 9.96903 16.5102 10.0521 16.373 10.053H7.627C7.48977 10.0521 7.36646 9.96903 7.31406 9.8422C7.26167 9.71537 7.29041 9.56948 7.387 9.472L11.76 5.1C11.8236 5.03625 11.9099 5.00042 12 5.00042C12.09 5.00042 12.1764 5.03625 12.24 5.1ZM11.76 18.9L7.387 14.528C7.29041 14.4305 7.26167 14.2846 7.31406 14.1578C7.36646 14.031 7.48977 13.9479 7.627 13.947H16.373C16.5102 13.9479 16.6335 14.031 16.6859 14.1578C16.7383 14.2846 16.7096 14.4305 16.613 14.528L12.24 18.9C12.1764 18.9638 12.09 18.9996 12 18.9996C11.9099 18.9996 11.8236 18.9638 11.76 18.9Z" fill="#42526E"/>
</svg>
