<svg width="24" height="24" viewBox="0 0 24 24" fill="none" xmlns="http://www.w3.org/2000/svg">
<path fill-rule="evenodd" clip-rule="evenodd" d="M6.548 12.7V11.3C6.548 10.1402 7.4882 9.2 8.648 9.2H8.83C9.49357 9.2007 10.1523 9.08668 10.777 8.863L14.694 5.506C15.0746 5.17953 15.5595 5.00004 16.061 5C16.7917 5 17.384 5.59233 17.384 6.323V17.677C17.384 18.4077 16.7917 19 16.061 19C15.5595 19 15.0746 18.8205 14.694 18.494L10.777 15.137C10.1523 14.9133 9.49357 14.7993 8.83 14.8H8.648C7.4882 14.8 6.548 13.8598 6.548 12.7Z" fill="#42526E"/>
</svg>
