<svg width="24" height="24" viewBox="0 0 24 24" fill="none" xmlns="http://www.w3.org/2000/svg">
<path fill-rule="evenodd" clip-rule="evenodd" d="M11.7048 5.72452C11.8772 5.55196 12.1111 5.455 12.355 5.455C12.8631 5.455 13.275 5.8669 13.275 6.375V8.214C13.2586 8.71003 12.8518 9.10367 12.3555 9.10367C11.8592 9.10367 11.4524 8.71003 11.436 8.214V6.375C11.4357 6.13109 11.5324 5.89709 11.7048 5.72452ZM11.85 17.028C11.85 16.7489 12.0759 16.5226 12.355 16.522C12.6342 16.5226 12.8604 16.7488 12.861 17.028V18.039C12.8693 18.225 12.7748 18.4005 12.615 18.4959C12.4552 18.5914 12.2558 18.5914 12.096 18.4959C11.9362 18.4005 11.8417 18.225 11.85 18.039V17.028ZM15.526 10.479C15.7509 10.4808 15.9671 10.3922 16.126 10.233L17.31 9.045C17.5224 8.83279 17.6054 8.52338 17.5279 8.23333C17.4503 7.94329 17.2238 7.71666 16.9339 7.63883C16.6439 7.561 16.3344 7.64379 16.122 7.856L14.932 9.044C14.692 9.2845 14.6204 9.64575 14.7503 9.95966C14.8802 10.2736 15.1863 10.4785 15.526 10.479ZM7.154 16.711L8.454 15.411C8.8169 15.0765 9.37909 15.0879 9.72808 15.4369C10.0771 15.7859 10.0885 16.3481 9.754 16.711L8.454 18.011C8.22178 18.2432 7.88331 18.3339 7.56608 18.2489C7.24886 18.1639 7.00108 17.9161 6.91608 17.5989C6.83108 17.2817 6.92178 16.9432 7.154 16.711ZM18.258 11.891H16.775C16.3652 11.891 16.033 12.2232 16.033 12.633C16.033 13.0428 16.3652 13.375 16.775 13.375H18.258C18.6678 13.375 19 13.0428 19 12.633C19 12.2232 18.6678 11.891 18.258 11.891ZM7.758 11.891C8.2661 11.891 8.678 12.3029 8.678 12.811C8.67745 13.3187 8.26571 13.73 7.758 13.73H5.919C5.42297 13.7136 5.02933 13.3068 5.02933 12.8105C5.02933 12.3142 5.42297 11.9074 5.919 11.891H7.758ZM15.685 15.313C15.4564 15.0844 15.0856 15.0844 14.857 15.313C14.6284 15.5416 14.6284 15.9124 14.857 16.141L15.686 16.969C15.8339 17.1167 16.0494 17.1743 16.2513 17.1201C16.4532 17.0659 16.6108 16.9081 16.6648 16.7061C16.7188 16.5041 16.6609 16.2887 16.513 16.141L15.685 15.313ZM7.154 7.61C7.51299 7.25102 8.09501 7.25102 8.454 7.61L9.754 8.91C10.0885 9.2729 10.0771 9.83509 9.72808 10.1841C9.37909 10.5331 8.8169 10.5445 8.454 10.21L7.154 8.91C6.79501 8.55102 6.79501 7.96899 7.154 7.61Z" fill="#42526E"/>
</svg>
