<svg width="24" height="24" viewBox="0 0 24 24" fill="none" xmlns="http://www.w3.org/2000/svg">
<path fill-rule="evenodd" clip-rule="evenodd" d="M11.125 5.875C11.125 5.39175 11.5168 5 12 5C12.4832 5 12.875 5.39175 12.875 5.875V7.625C12.875 8.10825 12.4832 8.5 12 8.5C11.5168 8.5 11.125 8.10825 11.125 7.625V5.875ZM11.125 16.375C11.125 15.8918 11.5168 15.5 12 15.5C12.4832 15.5 12.875 15.8918 12.875 16.375V18.125C12.875 18.6082 12.4832 19 12 19C11.5168 19 11.125 18.6082 11.125 18.125V16.375ZM15.093 9.781C15.3252 9.78148 15.548 9.68934 15.712 9.525L16.95 8.288C17.2919 7.94641 17.2921 7.39236 16.9505 7.0505C16.6089 6.70864 16.0549 6.70841 15.713 7.05L14.475 8.287C14.2246 8.53713 14.1496 8.91344 14.2849 9.24046C14.4202 9.56749 14.7391 9.78082 15.093 9.781ZM7.05 15.712L8.288 14.475C8.50691 14.2441 8.83388 14.1503 9.14191 14.2299C9.44994 14.3095 9.69048 14.5501 9.7701 14.8581C9.84972 15.1661 9.75587 15.4931 9.525 15.712L8.288 16.95C7.94614 17.2919 7.39186 17.2919 7.05 16.95C6.70814 16.6081 6.70814 16.0539 7.05 15.712ZM18.125 11.125H16.375C15.8918 11.125 15.5 11.5168 15.5 12C15.5 12.4832 15.8918 12.875 16.375 12.875H18.125C18.6082 12.875 19 12.4832 19 12C19 11.5168 18.6082 11.125 18.125 11.125ZM7.625 11.125C8.10825 11.125 8.5 11.5168 8.5 12C8.5 12.4832 8.10825 12.875 7.625 12.875H5.875C5.39175 12.875 5 12.4832 5 12C5 11.5168 5.39175 11.125 5.875 11.125H7.625ZM15.712 14.475C15.4909 14.254 15.1686 14.1678 14.8667 14.2489C14.5647 14.3299 14.329 14.5659 14.2482 14.8679C14.1674 15.1699 14.2539 15.492 14.475 15.713L15.713 16.95C16.0549 17.2916 16.6089 17.2914 16.9505 16.9495C17.2921 16.6076 17.2919 16.0536 16.95 15.712L15.712 14.475ZM7.44243 6.82343C7.74452 6.74248 8.06685 6.82885 8.288 7.05L9.525 8.288C9.75587 8.50691 9.84972 8.83388 9.7701 9.14191C9.69048 9.44994 9.44994 9.69048 9.14191 9.7701C8.83388 9.84972 8.50691 9.75587 8.288 9.525L7.05 8.288C6.82885 8.06685 6.74248 7.74452 6.82343 7.44243C6.90438 7.14034 7.14034 6.90438 7.44243 6.82343Z" fill="#42526E"/>
</svg>
