<svg width="24" height="24" viewBox="0 0 24 24" fill="none" xmlns="http://www.w3.org/2000/svg">
<path fill-rule="evenodd" clip-rule="evenodd" d="M14.15 19H9.85C7.1724 18.9967 5.00275 16.8266 5 14.149V9.849C5.00386 7.17179 7.17379 5.00275 9.851 5H14.151C16.8282 5.00386 18.9972 7.17379 19 9.851V14.151C18.9961 16.8278 16.8268 18.9967 14.15 19ZM9.851 7.913C8.78113 7.9141 7.9141 8.78113 7.913 9.851V14.151C7.9141 15.2209 8.78113 16.0879 9.851 16.089H14.151C15.2207 16.0879 16.0874 15.2207 16.088 14.151V9.851C16.0874 8.7809 15.2201 7.91355 14.15 7.913H9.851Z" fill="#42526E"/>
</svg>
