<svg width="24" height="24" viewBox="0 0 24 24" fill="none" xmlns="http://www.w3.org/2000/svg">
<path fill-rule="evenodd" clip-rule="evenodd" d="M5.01774 11.4215C5.36133 8.19836 7.81993 5.60407 11.02 5.088C14.411 4.54631 17.7117 6.47816 18.9 9.7C18.9622 9.90106 18.9112 10.12 18.7666 10.2729C18.622 10.4258 18.4062 10.4889 18.202 10.438C17.3975 10.2493 16.5649 10.2127 15.747 10.33C12.9371 10.7478 10.7163 12.9283 10.247 15.73C10.1146 16.5457 10.1356 17.379 10.309 18.187C10.3616 18.3952 10.2953 18.6154 10.1365 18.7599C9.97777 18.9044 9.75233 18.9498 9.55 18.878C6.53063 17.6989 4.67416 14.6447 5.01774 11.4215ZM15.721 12.65C16.7368 12.3263 17.8353 12.3796 18.815 12.8C18.9011 12.8379 18.9628 12.916 18.9798 13.0085C18.9968 13.101 18.9669 13.1959 18.9 13.262L13.245 18.919C13.1793 18.9857 13.085 19.0159 12.9927 18.9997C12.9005 18.9835 12.8221 18.9231 12.783 18.838C12.3616 17.8564 12.3084 16.7557 12.633 15.738C13.0979 14.2671 14.2501 13.1149 15.721 12.65Z" fill="#42526E"/>
</svg>
