<svg width="24" height="24" viewBox="0 0 24 24" fill="none" xmlns="http://www.w3.org/2000/svg">
<path fill-rule="evenodd" clip-rule="evenodd" d="M17.88 10.88H12C10.9078 10.9609 9.95256 10.1508 9.854 9.06C9.94945 7.96762 10.9067 7.15579 12 7.24C12.7453 7.22651 13.448 7.58685 13.872 8.2C14.0308 8.44982 14.2828 8.62586 14.572 8.689C15.0149 8.78623 15.4728 8.60676 15.7317 8.23442C15.9906 7.86208 15.9994 7.37037 15.754 6.989C14.9237 5.72924 13.5086 4.97949 12 5C9.66977 4.91603 7.70942 6.73025 7.613 9.06C7.61283 9.69772 7.77748 10.3247 8.091 10.88H6.12C5.50144 10.88 5 11.3814 5 12C5 12.6186 5.50144 13.12 6.12 13.12H12C13.0922 13.0391 14.0474 13.8492 14.146 14.94C14.0505 16.0324 13.0933 16.8442 12 16.76C11.2543 16.7738 10.5512 16.4134 10.127 15.8C9.91221 15.4585 9.53031 15.2588 9.12726 15.2774C8.72422 15.296 8.36234 15.53 8.17992 15.8899C7.9975 16.2497 8.02274 16.6799 8.246 17.016C9.07747 18.2739 10.4923 19.0216 12 19C14.3302 19.084 16.2906 17.2698 16.387 14.94C16.3872 14.3023 16.2225 13.6753 15.909 13.12H17.88C18.4986 13.12 19 12.6186 19 12C19 11.3814 18.4986 10.88 17.88 10.88Z" fill="#42526E"/>
</svg>
