<svg width="24" height="24" viewBox="0 0 24 24" fill="none" xmlns="http://www.w3.org/2000/svg">
<path fill-rule="evenodd" clip-rule="evenodd" d="M13.671 18.492C12.9909 19.1713 11.8891 19.1713 11.209 18.492L5.89999 13.178C5.36894 12.6035 5.05827 11.8596 5.02299 11.078L4.99999 6.744C4.99893 6.28131 5.18219 5.83725 5.50927 5.50999C5.83634 5.18272 6.2803 4.9992 6.74299 5L11.079 5.021C11.8609 5.05666 12.6048 5.36807 13.179 5.9L18.49 11.207C19.1683 11.8879 19.1683 12.9891 18.49 13.67L13.672 18.492H13.671ZM9.37099 11.125C10.3375 11.125 11.121 10.3415 11.121 9.375C11.121 8.4085 10.3375 7.625 9.37099 7.625C8.40449 7.625 7.62099 8.4085 7.62099 9.375C7.62072 9.83921 7.80501 10.2845 8.13326 10.6127C8.46151 10.941 8.90678 11.1253 9.37099 11.125Z" fill="#42526E"/>
</svg>
