<svg width="24" height="24" viewBox="0 0 24 24" fill="none" xmlns="http://www.w3.org/2000/svg">
<path fill-rule="evenodd" clip-rule="evenodd" d="M6.01 9H14.995C15.5483 9.00159 15.9979 9.44679 16.005 10V10.406C16.0045 10.9636 15.5526 11.4154 14.995 11.416H6.01C5.45242 11.4154 5.00055 10.9636 5 10.406V10C5.00816 9.44724 5.45719 9.00266 6.01 9ZM6.01 13.581H17.99C18.5436 13.5837 18.9929 14.0295 19 14.583V14.991C18.9989 15.5482 18.5472 15.9994 17.99 16H6.01C5.74187 15.9997 5.48482 15.893 5.29541 15.7032C5.106 15.5134 4.99974 15.2561 5 14.988V14.581C5.00816 14.0282 5.45719 13.5837 6.01 13.581Z" fill="#42526E"/>
</svg>
