<svg width="24" height="24" viewBox="0 0 24 24" fill="none" xmlns="http://www.w3.org/2000/svg">
<path fill-rule="evenodd" clip-rule="evenodd" d="M19 5.99C19 5.44324 18.5568 5 18.01 5H5.99C5.44324 5 5 5.44324 5 5.99V8.415C5 8.96176 5.44324 9.405 5.99 9.405H6.447C6.99024 9.40006 7.42802 8.95827 7.428 8.415V7.425H10.789V16.575H10.02C9.47673 16.575 9.03494 17.0128 9.03 17.556V18.01C9.03 18.5568 9.47324 19 10.02 19H13.98C14.2426 19.0003 14.4946 18.896 14.6803 18.7103C14.866 18.5246 14.9703 18.2726 14.97 18.01V17.556C14.9661 17.0123 14.5237 16.5739 13.98 16.575H13.211V7.425H16.578V8.415C16.5774 8.95733 17.0137 9.39897 17.556 9.405H18.01C18.5568 9.405 19 8.96176 19 8.415V5.99Z" fill="#42526E"/>
</svg>
