<svg width="24" height="24" viewBox="0 0 24 24" fill="none" xmlns="http://www.w3.org/2000/svg">
<path fill-rule="evenodd" clip-rule="evenodd" d="M14.869 5H12.4C12.4 5 12.368 14.472 12.346 14.7C12.2769 15.2038 12.0157 15.6614 11.617 15.977C11.2499 16.2851 10.79 16.4611 10.311 16.477C9.1272 16.4643 8.16305 15.5222 8.123 14.339C8.15211 13.2733 8.94473 12.3836 10 12.232C10.112 12.223 10.271 12.219 10.424 12.216V9.706C10.0536 9.70031 9.68341 9.72473 9.317 9.779C7.38166 10.1864 5.91135 11.7664 5.644 13.726C5.41648 15.2247 5.96472 16.7365 7.1 17.741C8.60595 19.1659 10.8802 19.4045 12.649 18.323C14.049 17.5223 14.9072 16.0277 14.893 14.415C14.923 12.768 14.917 10.04 14.924 9.915C15.9436 10.6239 17.1513 11.0128 18.393 11.032V8.581C16.348 8.237 15.063 7.17 14.869 5Z" fill="#42526E"/>
</svg>
