<svg width="24" height="24" viewBox="0 0 24 24" fill="none" xmlns="http://www.w3.org/2000/svg">
<path fill-rule="evenodd" clip-rule="evenodd" d="M12 5C8.13401 5 5 8.13401 5 12C5 15.866 8.13401 19 12 19C15.866 19 19 15.866 19 12C19 10.1435 18.2625 8.36301 16.9497 7.05025C15.637 5.7375 13.8565 5 12 5ZM15.15 13.4H12.006C11.5283 13.3869 11.1441 13.0027 11.131 12.525V8.509C11.131 8.02575 11.5228 7.634 12.006 7.634C12.4892 7.634 12.881 8.02575 12.881 8.509V11.646H15.15C15.6332 11.646 16.025 12.0378 16.025 12.521C16.025 13.0042 15.6332 13.396 15.15 13.396V13.4Z" fill="#42526E"/>
</svg>
