<svg width="24" height="24" viewBox="0 0 24 24" fill="none" xmlns="http://www.w3.org/2000/svg">
<path fill-rule="evenodd" clip-rule="evenodd" d="M9.869 6.922H14.12C15.423 6.92603 16.6675 7.46338 17.564 8.409C18.4861 9.37652 18.9979 10.6634 18.992 12C19.0478 14.7472 16.8672 17.0201 14.12 17.078H9.869C7.12012 17.0222 4.93677 14.7489 4.992 12C4.93732 9.25132 7.12036 6.97831 9.869 6.922ZM13.576 11.943C13.5772 13.2562 12.7871 14.4407 11.5743 14.944C10.3614 15.4474 8.96477 15.1704 8.03579 14.2423C7.10682 13.3142 6.82856 11.9178 7.3308 10.7045C7.83304 9.49119 9.01684 8.7 10.33 8.7C12.1218 8.69944 13.5749 10.1512 13.576 11.943Z" fill="#42526E"/>
</svg>
