<svg width="24" height="24" viewBox="0 0 24 24" fill="none" xmlns="http://www.w3.org/2000/svg">
<path fill-rule="evenodd" clip-rule="evenodd" d="M14.123 6.922H9.872C8.56905 6.92627 7.3246 7.46358 6.428 8.409C5.50588 9.37652 4.99412 10.6634 5 12C4.94531 14.7464 7.12564 17.018 9.872 17.076H14.123C16.8711 17.0202 19.0541 14.7481 19 12C19.0547 9.25132 16.8716 6.97831 14.123 6.922ZM10.417 11.943C10.4162 13.2557 11.2063 14.4395 12.4188 14.9424C13.6313 15.4453 15.0274 15.1682 15.9559 14.2403C16.8843 13.3124 17.1623 11.9165 16.6602 10.7037C16.158 9.49083 14.9747 8.7 13.662 8.7C11.8706 8.7 10.4181 10.1516 10.417 11.943Z" fill="#42526E"/>
</svg>
