<svg width="24" height="24" viewBox="0 0 24 24" fill="none" xmlns="http://www.w3.org/2000/svg">
<path fill-rule="evenodd" clip-rule="evenodd" d="M13.2984 5.21647C15.2232 5.71551 16.8692 6.96228 17.871 8.68C18.6326 9.93943 18.9766 11.4073 18.854 12.874C18.8428 13.7831 18.4241 14.6392 17.7134 15.2062C17.0026 15.7732 16.0749 15.9911 15.186 15.8C14.4032 15.6455 13.7528 15.1033 13.46 14.361C13.3069 14.0176 13.1903 13.6589 13.0733 13.2993C13.0084 13.0997 12.9434 12.8998 12.872 12.702C12.804 12.511 12.734 12.319 12.652 12.134C12.4269 11.3892 11.6695 10.9401 10.908 11.1C10.1165 11.2108 9.50209 11.8462 9.41799 12.641C9.25329 14.137 9.72382 15.6334 10.715 16.766C10.9861 17.1832 11.3356 17.5438 11.744 17.828C12.0159 18.0468 12.0657 18.4417 11.8566 18.7211C11.6475 19.0006 11.2546 19.0642 10.968 18.865L10.83 18.765C10.2623 18.3389 9.77192 17.8187 9.37999 17.227C8.53705 16.0911 8.08132 14.7145 8.07999 13.3C8.08664 12.7357 8.18562 12.1763 8.37299 11.644C8.81895 10.5332 9.89402 9.80383 11.091 9.8C12.3559 9.70175 13.5185 10.4974 13.885 11.712C14.0271 12.0681 14.1566 12.4305 14.2859 12.7924C14.3867 13.0747 14.4875 13.3567 14.594 13.635C14.7111 14.1794 15.1932 14.5676 15.75 14.566C16.3987 14.6181 17.0136 14.2689 17.301 13.685C17.643 12.8924 17.7027 12.0063 17.47 11.175C16.8262 8.62361 14.6727 6.73554 12.059 6.431C11.8482 6.40829 11.6364 6.39414 11.4458 6.38141C11.3678 6.3762 11.2934 6.37123 11.224 6.366C9.6046 6.36534 8.05023 7.00311 6.89799 8.141C6.72499 8.315 6.57799 8.474 6.43199 8.641L6.27199 8.815C6.03021 9.06873 5.63271 9.09045 5.36473 8.86456C5.09674 8.63868 5.05086 8.24325 5.25999 7.962L5.69999 7.515C6.26177 6.92458 6.90857 6.42137 7.61899 6.022C9.32915 5.00739 11.3736 4.71742 13.2984 5.21647ZM7.26499 14.615C6.70927 12.9005 7.20387 11.0194 8.53099 9.8C9.60614 8.79873 11.1668 8.51731 12.524 9.08C14.0753 9.62357 15.1757 11.0108 15.352 12.645C15.3591 12.8261 15.4455 12.9949 15.5882 13.1066C15.7309 13.2182 15.9155 13.2616 16.093 13.225C16.2713 13.1974 16.4291 13.0943 16.526 12.9421C16.6229 12.7898 16.6495 12.6032 16.599 12.43C16.3465 10.3437 14.9249 8.58465 12.938 7.9C11.1643 7.15085 9.11655 7.507 7.69999 8.811C6.43177 9.93208 5.73423 11.5636 5.79999 13.255C5.80279 13.3042 5.80473 13.3603 5.80683 13.4212C5.81225 13.578 5.81878 13.767 5.84399 13.955C6.01761 15.7227 6.74203 17.3912 7.91499 18.725C8.05161 18.9317 8.29804 19.0375 8.54199 18.994C8.78199 18.96 8.98152 18.792 9.0558 18.5612C9.13009 18.3305 9.06609 18.0776 8.89099 17.91C8.07391 16.9703 7.51377 15.8352 7.26499 14.615ZM18.743 16.376C18.6485 16.2165 18.4907 16.1047 18.3089 16.0685C18.1271 16.0322 17.9384 16.0749 17.79 16.186L17.7206 16.2258C17.5989 16.2957 17.4774 16.3654 17.353 16.431C15.8091 17.3526 13.8164 16.936 12.771 15.473C12.2071 14.729 11.8544 13.8467 11.75 12.919C11.7407 12.6812 11.598 12.4691 11.3812 12.3708C11.1645 12.2725 10.9109 12.305 10.7259 12.4546C10.5409 12.6043 10.4562 12.8455 10.507 13.078C10.5734 13.8391 10.7878 14.58 11.138 15.259C11.836 16.9142 13.4076 18.0343 15.2 18.154C16.3427 18.1863 17.4698 17.882 18.441 17.279C18.605 17.2039 18.7306 17.0641 18.7879 16.893C18.8451 16.7219 18.8288 16.5347 18.743 16.376Z" fill="#42526E"/>
</svg>
