<svg width="24" height="24" viewBox="0 0 24 24" fill="none" xmlns="http://www.w3.org/2000/svg">
<path fill-rule="evenodd" clip-rule="evenodd" d="M19 9.56903V5.43203C19 5.19344 18.8066 5.00003 18.568 5.00003H14.437C14.1986 5.00058 14.0056 5.19367 14.005 5.43203V6.55403C14.005 6.79223 13.8122 6.98548 13.574 6.98603H10.427C10.1904 6.98329 9.99999 6.79068 10 6.55403V5.43203C10 5.31658 9.95381 5.20594 9.87171 5.12478C9.78961 5.04362 9.67844 4.99869 9.563 5.00003H5.432C5.19341 5.00003 5 5.19344 5 5.43203V9.56903C4.99973 9.68368 5.04516 9.79372 5.12624 9.87479C5.20731 9.95587 5.31735 10.0013 5.432 10.001H6.551C6.66575 10.001 6.77578 10.0467 6.85683 10.1279C6.93787 10.2091 6.98327 10.3193 6.983 10.434V13.566C6.98327 13.6808 6.93787 13.7909 6.85683 13.8721C6.77578 13.9534 6.66575 13.999 6.551 13.999H5.432C5.31735 13.9988 5.20731 14.0442 5.12624 14.1253C5.04516 14.2063 4.99973 14.3164 5 14.431V18.568C5 18.8066 5.19341 19 5.432 19H9.563C9.67844 19.0014 9.78961 18.9564 9.87171 18.8753C9.95381 18.7941 10 18.6835 10 18.568V17.446C10 17.3315 10.0455 17.2216 10.1265 17.1406C10.2075 17.0595 10.3174 17.014 10.432 17.014H13.574C13.8122 17.0146 14.005 17.2078 14.005 17.446V18.568C14.0056 18.8064 14.1986 18.9995 14.437 19H18.568C18.8066 19 19 18.8066 19 18.568V14.431C19.0003 14.3164 18.9548 14.2063 18.8738 14.1253C18.7927 14.0442 18.6827 13.9988 18.568 13.999H17.729C17.6143 13.999 17.5042 13.9534 17.4232 13.8721C17.3421 13.7909 17.2967 13.6808 17.297 13.566V10.434C17.2967 10.3193 17.3421 10.2091 17.4232 10.1279C17.5042 10.0467 17.6143 10.001 17.729 10.001H18.568C18.6827 10.0013 18.7927 9.95587 18.8738 9.87479C18.9548 9.79372 19.0003 9.68368 19 9.56903ZM15.837 13.999H14.437C14.3224 13.999 14.2125 14.0445 14.1315 14.1256C14.0505 14.2066 14.005 14.3165 14.005 14.431V15.552C14.0053 15.6665 13.96 15.7764 13.8791 15.8574C13.7983 15.9385 13.6885 15.984 13.574 15.984H10.427C10.1901 15.9818 9.99944 15.7889 10 15.552V14.431C10.0003 14.3164 9.95484 14.2063 9.87377 14.1253C9.79269 14.0442 9.68266 13.9988 9.568 13.999H8.444C8.32925 13.999 8.21922 13.9534 8.13818 13.8721C8.05713 13.7909 8.01174 13.6808 8.012 13.566V10.434C8.01174 10.3193 8.05713 10.2091 8.13818 10.1279C8.21922 10.0467 8.32925 10.001 8.444 10.001H9.563C9.67852 10.0026 9.78985 9.9578 9.87201 9.87658C9.95417 9.79536 10.0003 9.68456 10 9.56903V8.44803C10.0022 8.21294 10.1919 8.02274 10.427 8.02003H13.574C13.8122 8.02058 14.005 8.21383 14.005 8.45203V9.56903C14.005 9.6836 14.0505 9.79348 14.1315 9.8745C14.2125 9.95551 14.3224 10.001 14.437 10.001H15.837C15.9516 10.0013 16.0614 10.0471 16.1422 10.1283C16.223 10.2095 16.2683 10.3195 16.268 10.434V13.566C16.2683 13.6806 16.223 13.7906 16.1422 13.8718C16.0614 13.953 15.9516 13.9988 15.837 13.999Z" fill="#42526E"/>
</svg>
