<svg width="24" height="24" viewBox="0 0 24 24" fill="none" xmlns="http://www.w3.org/2000/svg">
<path fill-rule="evenodd" clip-rule="evenodd" d="M18.613 6.671C18.0474 6.99783 17.4308 7.22703 16.789 7.349C16.2384 6.78127 15.4798 6.46303 14.689 6.468C13.1264 6.44798 11.8429 7.69744 11.821 9.26C11.8219 9.4757 11.8485 9.69053 11.9 9.9C9.60384 9.79609 7.45567 8.73705 5.975 6.979C5.72096 7.40183 5.58651 7.88572 5.586 8.379C5.58781 9.32199 6.06939 10.1992 6.864 10.707C6.40937 10.6937 5.96416 10.5742 5.564 10.358C5.564 10.369 5.564 10.381 5.564 10.393C5.57763 11.7383 6.54131 12.8859 7.864 13.132C7.61708 13.1981 7.36261 13.2317 7.107 13.232C6.92578 13.2324 6.74495 13.2153 6.567 13.181C6.95984 14.3309 8.03491 15.1083 9.25 15.121C8.22524 15.9022 6.97159 16.324 5.683 16.321C5.45466 16.3191 5.22661 16.3041 5 16.276C6.31988 17.099 7.84458 17.5342 9.4 17.532C11.5424 17.5781 13.6137 16.7628 15.1499 15.2688C16.686 13.7747 17.5586 11.7268 17.572 9.584C17.572 9.463 17.572 9.343 17.564 9.223C18.1251 8.83013 18.6114 8.34008 19 7.776C18.4747 8.00336 17.9187 8.15196 17.35 8.217C17.946 7.87355 18.3953 7.3235 18.613 6.671Z" fill="#42526E"/>
</svg>
