<svg width="24" height="24" viewBox="0 0 24 24" fill="none" xmlns="http://www.w3.org/2000/svg">
<path fill-rule="evenodd" clip-rule="evenodd" d="M17.025 9.953C17.0217 12.7909 14.7219 15.0907 11.884 15.094C9.04569 15.0912 6.74531 12.7913 6.742 9.953V6.205C6.76079 5.55274 7.29497 5.03372 7.9475 5.03372C8.60003 5.03372 9.13421 5.55274 9.153 6.205V9.953C9.153 11.4613 10.3757 12.684 11.884 12.684C13.3923 12.684 14.615 11.4613 14.615 9.953V6.205C14.615 5.5395 15.1545 5 15.82 5C16.4855 5 17.025 5.5395 17.025 6.205V9.953ZM6.011 16.581H17.989C18.543 16.5831 18.9929 17.0291 19 17.583V17.991C18.9989 18.5486 18.5466 19 17.989 19H6.011C5.74269 19 5.48539 18.8933 5.29576 18.7035C5.10613 18.5137 4.99974 18.2563 5 17.988V17.581C5.00817 17.0279 5.4578 16.5831 6.011 16.581Z" fill="#42526E"/>
</svg>
