<svg width="24" height="24" viewBox="0 0 24 24" fill="none" xmlns="http://www.w3.org/2000/svg">
<path fill-rule="evenodd" clip-rule="evenodd" d="M17.491 17.917C18.1899 16.0309 18.5321 14.0312 18.5 12.02C18.4826 11.4277 18.0415 10.9339 17.455 10.85L12.773 10.18V6.64C12.7758 6.20504 12.6014 5.78766 12.29 5.484C11.9485 5.13491 11.467 4.9598 10.981 5.008C10.1163 5.12638 9.47869 5.87554 9.5 6.748V13.458L8.63 12.525C7.95124 11.8451 6.84986 11.8442 6.17 12.523C5.49014 13.2018 5.48924 14.3031 6.168 14.983L9.622 18.489C9.94458 18.8165 10.3853 19.0007 10.845 19H15.936C16.6302 19.0008 17.2511 18.5684 17.491 17.917Z" fill="#42526E"/>
</svg>
