<svg width="24" height="24" viewBox="0 0 24 24" fill="none" xmlns="http://www.w3.org/2000/svg">
<path fill-rule="evenodd" clip-rule="evenodd" d="M5.845 16.949V15.943C5.88302 15.196 6.33205 14.5317 7.011 14.218C10.2127 12.932 13.7873 12.932 16.989 14.218C17.6679 14.5317 18.117 15.196 18.155 15.943V16.949C18.1547 17.4936 17.938 18.0157 17.5526 18.4004C17.1671 18.7851 16.6446 19.0008 16.1 19H7.9C7.35543 19.0008 6.83288 18.7851 6.44743 18.4004C6.06199 18.0157 5.84527 17.4936 5.845 16.949ZM12 5C10.6166 4.9996 9.36929 5.8326 8.83962 7.11053C8.30995 8.38846 8.60231 9.85963 9.58034 10.838C10.5584 11.8163 12.0295 12.1091 13.3075 11.5798C14.5856 11.0505 15.419 9.80335 15.419 8.42C15.4193 7.51305 15.0592 6.64316 14.418 6.00176C13.7767 5.36035 12.9069 5 12 5Z" fill="#42526E"/>
</svg>
