<svg width="24" height="24" viewBox="0 0 24 24" fill="none" xmlns="http://www.w3.org/2000/svg">
<path fill-rule="evenodd" clip-rule="evenodd" d="M15.691 13.552C15.5944 13.4804 15.4657 13.4692 15.3581 13.523C15.2506 13.5769 15.1825 13.6867 15.182 13.807V15.682C15.182 16.3851 14.6121 16.955 13.909 16.955H6.273C5.56994 16.955 5 16.3851 5 15.682V8.318C5 7.61494 5.56994 7.045 6.273 7.045H13.909C14.6121 7.045 15.182 7.61494 15.182 8.318V10.193C15.1817 10.3136 15.2497 10.424 15.3576 10.4781C15.4654 10.5321 15.5946 10.5205 15.691 10.448L17.982 8.491C18.2222 8.31286 18.5534 8.32321 18.782 8.516C18.9257 8.64165 19.0054 8.82521 18.999 9.016V15C18.9992 15.2411 18.8631 15.4615 18.6474 15.5694C18.4318 15.6772 18.1737 15.6538 17.981 15.509L15.691 13.552Z" fill="#42526E"/>
</svg>
