<svg width="24" height="24" viewBox="0 0 24 24" fill="none" xmlns="http://www.w3.org/2000/svg">
<path fill-rule="evenodd" clip-rule="evenodd" d="M12.0005 4C6.48046 4 2 8.84 2 12C2 15.086 6.57752 20 12.0005 20C17.4235 20 22 15.086 22 12C22 8.84 17.5195 4 12.0005 4ZM11.9835 15.984C9.77628 15.984 7.98129 14.19 7.98129 11.984C7.98129 9.778 9.77628 7.984 11.9835 7.984C14.1907 7.984 15.9857 9.778 15.9857 11.984C15.9857 14.19 14.1907 15.984 11.9835 15.984ZM14.0005 11.9996C14.0005 13.1042 13.1051 13.9996 12.0005 13.9996C10.8959 13.9996 10.0005 13.1042 10.0005 11.9996C10.0005 10.895 10.8959 9.9996 12.0005 9.9996C13.1051 9.9996 14.0005 10.895 14.0005 11.9996Z" fill="#42526E"/>
<mask id="mask0_0_2694" style="mask-type:luminance" maskUnits="userSpaceOnUse" x="2" y="4" width="20" height="16">
<path fill-rule="evenodd" clip-rule="evenodd" d="M12.0005 4C6.48046 4 2 8.84 2 12C2 15.086 6.57752 20 12.0005 20C17.4235 20 22 15.086 22 12C22 8.84 17.5195 4 12.0005 4ZM11.9835 15.984C9.77628 15.984 7.98129 14.19 7.98129 11.984C7.98129 9.778 9.77628 7.984 11.9835 7.984C14.1907 7.984 15.9857 9.778 15.9857 11.984C15.9857 14.19 14.1907 15.984 11.9835 15.984ZM14.0005 11.9996C14.0005 13.1042 13.1051 13.9996 12.0005 13.9996C10.8959 13.9996 10.0005 13.1042 10.0005 11.9996C10.0005 10.895 10.8959 9.9996 12.0005 9.9996C13.1051 9.9996 14.0005 10.895 14.0005 11.9996Z" fill="white"/>
</mask>
<g mask="url(#mask0_0_2694)">
</g>
</svg>
