<svg width="24" height="24" viewBox="0 0 24 24" fill="none" xmlns="http://www.w3.org/2000/svg">
<path fill-rule="evenodd" clip-rule="evenodd" d="M17.6 8.287C17.6 6.74778 16.3522 5.5 14.813 5.5H7.787C6.24778 5.5 5 6.74778 5 8.287V16.62C5.01099 17.665 5.86391 18.505 6.909 18.5H17.727C18.0621 18.5027 18.3846 18.372 18.6234 18.1368C18.8621 17.9016 18.9976 17.5811 19 17.246V9.681C18.9484 8.93123 18.35 8.33533 17.6 8.287ZM6.4 8.287V8.06C6.4 7.75058 6.52298 7.45386 6.74187 7.23516C6.96075 7.01646 7.25758 6.89373 7.567 6.894H15.033C15.3424 6.89373 15.6392 7.01646 15.8581 7.23516C16.077 7.45386 16.2 7.75058 16.2 8.06V8.287H6.4ZM15.075 14.687C14.3132 14.6837 13.6977 14.0645 13.699 13.3027C13.7003 12.5409 14.3178 11.9238 15.0797 11.923C15.8415 11.9223 16.4602 12.5382 16.463 13.3C16.4627 13.6678 16.3163 14.0203 16.056 14.2801C15.7957 14.5399 15.4428 14.6855 15.075 14.685V14.687Z" fill="#42526E"/>
</svg>
