<svg width="24" height="24" viewBox="0 0 24 24" fill="none" xmlns="http://www.w3.org/2000/svg">
<path fill-rule="evenodd" clip-rule="evenodd" d="M18.7074 8.54307C18.5465 7.93721 18.0752 7.46285 17.4704 7.29807C15.6555 7.07938 13.8282 6.98083 12.0004 7.00307C10.1725 6.98083 8.34522 7.07938 6.53037 7.29807C5.92556 7.46285 5.45425 7.93721 5.29337 8.54307C5.09125 9.66228 4.99317 10.7978 5.00037 11.9351C4.99317 13.0724 5.09125 14.2079 5.29337 15.3271C5.45425 15.9329 5.92556 16.4073 6.53037 16.5721C8.34522 16.7908 10.1725 16.8893 12.0004 16.8671C13.8282 16.8893 15.6555 16.7908 17.4704 16.5721C18.0752 16.4073 18.5465 15.9329 18.7074 15.3271C18.9095 14.2079 19.0076 13.0724 19.0004 11.9351C19.0076 10.7978 18.9095 9.66228 18.7074 8.54307ZM10.5684 14.0171V9.85307L14.2274 11.9351L10.5684 14.0171Z" fill="#42526E"/>
</svg>
